<svg xmlns="http://www.w3.org/2000/svg" xmlns:xlink="http://www.w3.org/1999/xlink" viewBox="0 0 841.87 600.28"><defs><style>.cls-1{fill:url(#linear-gradient);}.cls-2,.cls-8{fill:#aacbf2;}.cls-10,.cls-11,.cls-12,.cls-13,.cls-14,.cls-15,.cls-2,.cls-4,.cls-9{stroke-miterlimit:10;}.cls-2{stroke:url(#linear-gradient-2);}.cls-10,.cls-12,.cls-14,.cls-15,.cls-3{fill:#0828cc;}.cls-4,.cls-7{fill:#cdff17;}.cls-11,.cls-13,.cls-4,.cls-9{stroke:#0828cc;}.cls-4{stroke-width:0.2px;}.cls-5{fill:#fff;}.cls-11,.cls-6{fill:#10f4ff;}.cls-9{fill:none;}.cls-11,.cls-13,.cls-9{stroke-width:0.4px;}.cls-10{stroke:#10f4ff;}.cls-12{stroke:url(#linear-gradient-3);}.cls-13{fill:#e3f1ff;}.cls-14{stroke:url(#linear-gradient-4);}.cls-15{stroke:url(#linear-gradient-5);}.cls-16{fill:#fcfcfc;}</style><linearGradient id="linear-gradient" x1="547.5" y1="770.23" x2="91.33" y2="-19.88" gradientUnits="userSpaceOnUse"><stop offset="0" stop-color="#fff"/><stop offset="1" stop-color="#d2e3ff"/></linearGradient><linearGradient id="linear-gradient-2" x1="3.47" y1="326.1" x2="277.33" y2="326.1" xlink:href="#linear-gradient"/><linearGradient id="linear-gradient-3" x1="365.32" y1="192.89" x2="494.73" y2="192.89" xlink:href="#linear-gradient"/><linearGradient id="linear-gradient-4" x1="365.32" y1="97.44" x2="494.73" y2="97.44" xlink:href="#linear-gradient"/><linearGradient id="linear-gradient-5" x1="211.62" y1="175.95" x2="341.04" y2="175.95" xlink:href="#linear-gradient"/></defs><title>Asset 5</title><g id="Layer_2" data-name="Layer 2"><g id="Layer_1-2" data-name="Layer 1"><polygon class="cls-1" points="56.89 0 841.87 600.28 56.89 600.28 56.89 0"/><polygon class="cls-2" points="216.26 474.95 4.1 310.72 55.46 203.43 58.31 177.18 276.61 351.92 215.25 420.86 216.26 474.95"/><path class="cls-3" d="M347.08,204.92l-5-2.24a3.23,3.23,0,0,0-2.6.21c-1.56.71-111.91,58.28-111.91,58.28s-9.23,3.46-9.23,11v65A3.54,3.54,0,0,0,219,339c.64.93,5.48,5.2,5.48,5.2"/><path class="cls-4" d="M223.49,273.47v65.36s-1.23,8.18,4.91,4.91,116.13-63.38,116.13-63.38,4.5-.82,4.09-4.5V207.14a2.27,2.27,0,0,0-3.32-2L227.53,266.79A7.53,7.53,0,0,0,223.49,273.47Z"/><path class="cls-5" d="M306.19,425.84v4a3.05,3.05,0,0,1,.91-.15c0-1.85,0-3.64,0-4.35Z"/><path class="cls-5" d="M306.19,435h0a1.52,1.52,0,0,0,.12.76h0c.35,0,.68,0,.74-.92,0-.52,0-2.59,0-4.69a2.63,2.63,0,0,0-.91.17Z"/><polygon class="cls-5" points="305.27 392.64 295.12 398.29 295.09 412.59 305.08 420.82 305.27 392.64"/><path class="cls-3" d="M306.37,436.24h-.06a.44.44,0,0,1-.32-.14,1.81,1.81,0,0,1-.26-1.1v-4.44a4.76,4.76,0,0,0-2.1,3c-.55,2.26.38,4.42,2.06,4.83s3.5-1.09,4.05-3.35-.38-4.42-2.06-4.83l-.11,0c0,2.09,0,4.14,0,4.67C307.46,436.2,306.77,436.24,306.37,436.24Z"/><path class="cls-5" d="M307.79,429.78a2.83,2.83,0,0,1,.79.33,9.15,9.15,0,0,0-1-1c0,.22,0,.45,0,.67Z"/><path class="cls-3" d="M325,365.49c-2.31,1.68-7.52,5.2-7.57,5.24h0a8.77,8.77,0,0,0-2.61,2.44c-.94,1.49-3.53,5.41-3.56,5.45h0l.84.67c.41-.58,2.49-3.52,3.33-4.9a12.66,12.66,0,0,1,2.61-2.89h0c.07,0,6.87-4.62,7.38-5a2.83,2.83,0,0,0,.73-1v-.93A7.11,7.11,0,0,1,325,365.49Z"/><path class="cls-5" d="M305.73,430V428.7a4.33,4.33,0,0,0-2.77,1.85,7.09,7.09,0,0,0-1,2.33,2.73,2.73,0,0,0,.27,1.83l.86,1.29a5.69,5.69,0,0,1,0-2.54A5.12,5.12,0,0,1,305.73,430Z"/><path class="cls-6" d="M276.61,351.92l-7.24,3.55,33.2,26.06a1.24,1.24,0,0,1,.75,1.11,1.1,1.1,0,0,1-.13.43v3.26a.23.23,0,0,1-.12.2c-.75.4-74.87,40.49-78.78,42.29a7.47,7.47,0,0,1-3.15.66,10.06,10.06,0,0,1-2.64-.37,11.64,11.64,0,0,1-2.73-1.11l0,0c-.29-.23-28-22.1-30.44-24.08l-5.51,3,36.25,29.76,99.51-54-33.42-26.45Z"/><path class="cls-6" d="M294.83,413l-48.9,27.45a.23.23,0,0,1-.11,0h0v14l59.06-33.24Z"/><polygon class="cls-3" points="294.65 398.55 245.81 425.68 245.81 439.97 294.62 412.56 294.65 398.55"/><path class="cls-3" d="M216.26,475l2.62-1.52,10.4-5.73a.23.23,0,0,1,.1-.06l1.19-.65a.23.23,0,0,1,.21-.15h0L315.75,420v-37l-99.49,54Zm29.08-49.41a.23.23,0,0,1,.12-.2L305.4,392a.23.23,0,0,1,.35.21l-.2,29a.23.23,0,0,1-.21.32h-.06l-59.59,33.53a.23.23,0,0,1-.35-.2Z"/><path class="cls-4" d="M184.81,399.37l32.81,25.14c.22.13,3.55,2,5.84,1,2.46-1.05,76.49-40.8,77.24-41.21h0a5.13,5.13,0,0,0,2-1.41v-.25a.23.23,0,0,1,.12-.2.76.76,0,0,0-.32-.43l-.09,0-.15-.12,0,0-34.43-27c-3.59-2.83-7.54-.28-7.58-.26h0l-74.47,41a.23.23,0,0,1-.1.22,2.82,2.82,0,0,0-1.54,2,1.52,1.52,0,0,0,0,.33v0A2.18,2.18,0,0,0,184.81,399.37Z"/><path class="cls-3" d="M289.33,346.33c1.27-.45,4.43-1.88,4.46-1.89h0a3,3,0,0,1,2.64.4c1.26.82,23.88,18.09,25.69,19.48l.26-.19a.59.59,0,0,0,.28-.42.82.82,0,0,0-.23-.54c-.74-.56-24.71-18.68-26-19.51a2.68,2.68,0,0,0-2.11-.51c-.32.15-4,1.93-5.31,2.39a8.35,8.35,0,0,0-2.73,2.43l-4.63,7.3.53.41,4.49-6.81A6.84,6.84,0,0,1,289.33,346.33Z"/><path class="cls-5" d="M185.49,403.44c1.29,1.09,29.8,23.58,30.54,24.17.25.15,4.38,2.49,8.07.79s75.2-40.36,78.63-42.21v-2.54a7,7,0,0,1-1.8,1.12c-3.18,1.71-74.79,40.16-77.27,41.22a4.27,4.27,0,0,1-1.69.32,10.33,10.33,0,0,1-4.59-1.41h0l-32.83-25.16h0a2.56,2.56,0,0,1-.36-.4v1.85A3.71,3.71,0,0,0,185.49,403.44Z"/><path class="cls-6" d="M285.93,347.69h0a8.69,8.69,0,0,1,3-2.6c1.3-.45,5.23-2.35,5.27-2.37h0a3.08,3.08,0,0,1,2.52.56c1.32.86,25,18.78,26,19.54l0,0a1.31,1.31,0,0,1,.37.91,1,1,0,0,1-.46.76c-.79.59-6.2,4.29-6.43,4.44h0a10.58,10.58,0,0,0-2.38,1.92c-.59.85-4.27,6.3-4.3,6.35l0,0,1.37,1.08c.21-.31,2.64-4,3.54-5.42a9.07,9.07,0,0,1,2.77-2.59c.21-.14,5.29-3.57,7.55-5.22,1.38-1,1.39-1.44,1.38-1.52a.18.18,0,0,0-.11-.12l-.07,0c-7.86-6-28.44-21.66-29.29-22a5.36,5.36,0,0,0-1.64-.34l-7.24,3a10.29,10.29,0,0,0-2.58,2.33l-5,7.76,1.12.86Z"/><path class="cls-5" d="M229.67,468v3.88a3.05,3.05,0,0,1,.91-.15c0-1.74,0-3.43,0-4.21Z"/><polygon class="cls-5" points="179.62 445.27 179.79 445.39 215.79 474.67 215.79 437.06 179.62 407.36 179.62 445.27"/><path class="cls-3" d="M229.85,478.29h-.06a.44.44,0,0,1-.32-.14,1.81,1.81,0,0,1-.26-1.1V472.6a4.76,4.76,0,0,0-2.1,3,5,5,0,0,0,.21,3.14,2.61,2.61,0,0,0,4.28,1,5,5,0,0,0,1.63-2.69c.55-2.26-.38-4.42-2.06-4.83l-.11,0c0,2.09,0,4.14,0,4.67C230.94,478.25,230.25,478.29,229.85,478.29Z"/><path class="cls-5" d="M229.67,477.05h0a1.52,1.52,0,0,0,.12.76h0c.35,0,.68,0,.74-.92,0-.52,0-2.59,0-4.69a2.63,2.63,0,0,0-.91.17Z"/><path class="cls-5" d="M229.21,472.08v-1.33a4.33,4.33,0,0,0-2.77,1.85,7.09,7.09,0,0,0-1,2.33,2.75,2.75,0,0,0,.27,1.83l.86,1.28a5.71,5.71,0,0,1,.06-2.53A5.12,5.12,0,0,1,229.21,472.08Z"/><path class="cls-5" d="M231.27,471.83a2.83,2.83,0,0,1,.79.33,9.12,9.12,0,0,0-1-1c0,.22,0,.45,0,.67Z"/><path class="cls-7" d="M332.22,287l-.37-.21a32.21,32.21,0,0,0-.69,5.47c0,.07,0,.09,0,.11s.39.18,1.6-.18a30,30,0,0,1-.6-5.12A.23.23,0,0,1,332.22,287Z"/><path class="cls-5" d="M321.84,331.78a7.12,7.12,0,0,1,.75-5,6.18,6.18,0,0,1,1.27-1.55l-1.31-1.08a6,6,0,0,0-2.68-.8,2.68,2.68,0,0,0-1,.16,2.71,2.71,0,0,0-1.55,1.9,12.72,12.72,0,0,0,.09,7.4c.07.24.12.44.14.58.11.61,2.94,2.82,4.47,3.37a2.73,2.73,0,0,0,2.06-.24C323.54,336.1,322.46,334.93,321.84,331.78Z"/><path class="cls-7" d="M318.07,323.46c-.39-.44-8.13-9.19-10.61-13.74-1.19-2.2-2.55-4.78-3.65-6.89l-.29-.12a.23.23,0,0,1,0-.43l-.23-.44-.25-.49h0a.23.23,0,0,1-.15-.29v0c-.72-1.39-1.3-2.48-1.38-2.6-.29-.39-3-3.27-5.15-3.27a20.7,20.7,0,0,0-2.76.11c-.24.12-.59.35-.61.53,0,0,0,.08.11.18a5.42,5.42,0,0,0,2.5.53.23.23,0,0,1,.15.41c-.64.53-1.54,1.47-1.54,1.88a6.48,6.48,0,0,0,.7,2.49l.2.23c.4.47,1.13,1.35,2,1.24l.62-.09c1-.15,2-.29,2.45.35a23.56,23.56,0,0,1,1,2.15c2.62,5.81,9.49,21.08,15.49,26.37a12.47,12.47,0,0,1,.26-6.26A3.53,3.53,0,0,1,318.07,323.46Z"/><path class="cls-5" d="M295,296.93a4.49,4.49,0,0,1-2.22-.62.84.84,0,0,1-.19-.24h-.08l-1.24-.13c-.11.05-.46.3-.25,1.24h.49a5.32,5.32,0,0,1,2.82.44A8.46,8.46,0,0,1,295,296.93Z"/><path class="cls-5" d="M291.15,295.48h.08l.2,0c-.16-.3-.5-.77-.9-.77a1.3,1.3,0,0,0-.94.42,1.28,1.28,0,0,0-.31,1,2.36,2.36,0,0,0,1,1.85l0,0a.38.38,0,0,0,.32.13,1.45,1.45,0,0,0,.76-.55c-.55,0-.64,0-.73-.09a.25.25,0,0,1-.06-.11h0a2,2,0,0,1,.05-1.53A.91.91,0,0,1,291.15,295.48Z"/><path class="cls-5" d="M290.66,298.67h-.09a.85.85,0,0,1-.61-.27l0,0a2.79,2.79,0,0,1-1.11-2.14,1.73,1.73,0,0,1,.43-1.38,1.77,1.77,0,0,1,1.29-.58c.81,0,1.3,1,1.39,1.17-.09-.47-.41-1.59-1.28-1.76h0a2.61,2.61,0,0,0-3.11,1.79c-.71,2.19,1.3,3.66,1.58,3.85a2.67,2.67,0,0,0,3.1-1.65H292C291.83,297.85,291.29,298.6,290.66,298.67Z"/><path class="cls-7" d="M365.26,340.29c.22,3.07.36,5.52.44,7,.09,1.69.15,3.17.17,4.28a10.83,10.83,0,0,1,0,1.73,120.52,120.52,0,0,1-1.91,21.57,7.08,7.08,0,0,0,1.22-2h0c3.08-11.22,4.23-30.91,4.37-33.43a8.87,8.87,0,0,1-3.44,1A2.35,2.35,0,0,1,365.26,340.29Z"/><path class="cls-5" d="M371.3,330.51a.84.84,0,0,1-.32.51c-1.73,1.59-5.57,2.53-6.26,2.69.2,2.18.37,4.22.5,6.06l.08,0c1.44.74,5.26-1.35,6.08-2,.5-.38.62-3.33.44-6A1.76,1.76,0,0,0,371.3,330.51Z"/><path class="cls-5" d="M343.52,366.23a18.43,18.43,0,0,1-6.68,1.22,20.8,20.8,0,0,1-4-.4,20.36,20.36,0,0,1-4.32-1.35c.28,3.36,2.2,26.54,2.64,30.36a11,11,0,0,1,.47,4.24c0,.6-.15,1.24-.25,1.92a16,16,0,0,0-.21,5.24c.46,2.74,5.78,45.95,5.84,46.38a7.46,7.46,0,0,0,.54,2.4c.45-1.75,1.59-20,2.21-29.92.47-7.47.59-9.37.64-9.53.13-.42.29-7-.45-8.42s-.66-5.31,0-7.09,8.45-20,9.73-21.28,8.54-10.21,9-15.06a.23.23,0,1,1,.46,0c-.47,5-7.87,14.09-9.13,15.34a12,12,0,0,0-1.19,2.08c.12.58,1.26,6,1.94,7.17.9,1.5,1.27,3.51,1.27,6.92,0,3.25,2,7.92,3.35,11l.59,1.39c1.11,2.66,3.84,23.41,4.73,30.23l.23,1.73c.16,1.15.38,1.23.38,1.24s.26-.24.39-.52c0-1.41.87-32.25,1.11-37.29a8.76,8.76,0,0,0-2.21-6.59,4.24,4.24,0,0,1-.87-1.37c-.32-1.16-.69-5.14,2.72-16.94,2.84-9.84,3-22.93,3-25.61C362.92,355.65,350.59,363.49,343.52,366.23Z"/><path class="cls-5" d="M343.35,365.79a105.14,105.14,0,0,0,13.8-7.24c4.52-2.74,7.88-5,8.26-5.39.1-.79-.22-9.4-1.18-19.8-.87-9.36-2.43-22-4.94-29.05a.23.23,0,0,1,.44-.16c2.52,7.07,4.08,19.64,5,29.09.78-.19,4.23-1.06,5.86-2.45a.23.23,0,0,1-.06-.14c-.73-8.17-3.87-16.42-6.37-21.91-2.88-6.31-5.68-10.64-6.24-11.1-.89-.73-2.63.81-3.23,1.46a.23.23,0,0,1-.09.06c-.05,0-5,1.83-5.69,2.16-.36.18-.75,0-1-.49a2.6,2.6,0,0,1-.31-.91,20.78,20.78,0,0,1-2.13,1,15.32,15.32,0,0,1-3.13,1,17.38,17.38,0,0,1-.23,2.19.23.23,0,0,1-.11.16s-1.56.91-3.14,1.8c-3.23,1.82-3.48,1.83-3.61,1.83h0a2.32,2.32,0,0,1-.83-.29c-.29-.14-.77-.36-.91-.3s0,0,0,0c-.24.85-5,12.11-6.2,13.73s-2.81,4.22-2.83,4.25l-.06.07A5.47,5.47,0,0,0,323,327a6.52,6.52,0,0,0-.69,4.66,9,9,0,0,0,1.5,3.86,2.48,2.48,0,0,0,.78.7c.92-.69,7.51-5.6,8.53-6.69,1.21-1.29,6-8.38,6.32-10.57a.23.23,0,0,1,.46.06c-.18,1.31-1.69,3.91-2.93,5.86a46.65,46.65,0,0,1-3.52,5,13.12,13.12,0,0,1-1,.92s0,0,0,0c0,.47-.81,11.6-1.7,15.16-.78,3.13-2.76,13.44-2.29,19.19a19.61,19.61,0,0,0,4.47,1.43A18.88,18.88,0,0,0,343.35,365.79Z"/><path class="cls-5" d="M338.07,306l2.73-8.06-.81.5a.23.23,0,0,1,0,.07c-.51,1.6-2,6.29-2.67,7.91l.76-.42Z"/><path class="cls-5" d="M342.07,297.53a1.78,1.78,0,0,1-.23-.28l-.45.31a.23.23,0,0,1,0,.11l-2.7,8c1-.56,2-1.17,2.91-1.67a11,11,0,0,0,.19-2.24.23.23,0,0,1,.3-.28.23.23,0,0,1,0-.11C342.1,301.17,342.09,299,342.07,297.53Z"/><path class="cls-5" d="M337.18,299.68a2.08,2.08,0,0,1-1.57-1.07,6.05,6.05,0,0,1-.35-.54c0,2.8.1,8,.12,9.35.27-.12.72-.35,1.27-.64a.23.23,0,0,1,.05-.12c.22-.32,1.72-4.84,2.7-7.88a6.73,6.73,0,0,1-2.12.9Z"/><path class="cls-5" d="M304.15,302.46a19.59,19.59,0,0,1,7.06,5.23,40.28,40.28,0,0,0,4.78,5.1c1.79,1.58,3.26,2.51,4.16,2.61l.09,0s2.85,1.55,8.87.66a.23.23,0,0,1,.12,0l.34-.75a11,11,0,0,1-3.55.59,13.28,13.28,0,0,1-6.57-1.89,16.63,16.63,0,0,1-4.55-3.77l0,0a30.7,30.7,0,0,0-11.17-8.65v0Z"/><path class="cls-3" d="M335.86,288.7c.36.21,1.29-.41,2-.91a8.93,8.93,0,0,1,1.44-.84.9.9,0,0,1,.8,0c.77.44,1,2.07,1.18,2.86a20.84,20.84,0,0,1-.64,4.42,3.73,3.73,0,0,1,1,1.58,4.52,4.52,0,0,0,.79,1.4c.37.29,2.17-.29,3.25-.63a16.26,16.26,0,0,1,1.62-.47,8.17,8.17,0,0,0,3-2.15l0,0c2.47-2.62,3-12.85,3-14.62a8.22,8.22,0,0,0-1.29-3.48c-.42-.8-.89-1.71-1.4-2.84-1.15-2.54-2.67-2.17-4.14-1.81a9.55,9.55,0,0,1-1,.21c-1.79.24-2.63-1-3.4-2.38-.34-.61-1.74-.22-2.55.07a23,23,0,0,0-3.25,1.53,37.17,37.17,0,0,1-4.34,1.6c-1.88.63-3.83,1.28-5,1.8a3.41,3.41,0,0,0-2,3.45v.09c.21.39,2.76,1.74,5.13,2.82.74.26,1.12.59,1.15,1,.06.72-1,1.33-1.78,1.77l-.24.14a1.74,1.74,0,0,0-.94,1.61c0,.25,1.34.9,2.18.9.56,0,2.16.94,4.55,2.46Z"/><path class="cls-7" d="M342.52,301.48a16.73,16.73,0,0,0,2.45-.85c.92-.38,1.64-.72,2.1-1a18.44,18.44,0,0,1-.27-2.91l-1,.3a12.14,12.14,0,0,1-3,.73l-.27,0c0,1,0,3.44,0,3.69Z"/><path class="cls-7" d="M334,292.64h0v0h0a20.76,20.76,0,0,1,3.45-2.68,1.23,1.23,0,0,1,.46-1.1,1.33,1.33,0,0,1,1.3.07c.46.23.66,1.05.71,1.3a2.47,2.47,0,0,1-.26,1.94.69.69,0,0,1-.79.24,1.62,1.62,0,0,1-.71-.66c-.3.2-.79.55-1.24.88a6.83,6.83,0,0,0-1.21,1h0v.05a10.06,10.06,0,0,0-.47,2.81c0,.16,0,.42,0,.75a.23.23,0,0,1,.16.13c.23.54,1,1.93,1.82,1.87s3.35-1.67,4.37-2.37c-.13-.25-.25-.53-.38-.81-.24-.54-.6-1.36-.84-1.39a.23.23,0,0,1-.2-.28,22.51,22.51,0,0,0,.68-4.43c-.1-.6-.37-2.2-.95-2.53a.43.43,0,0,0-.4,0,8.84,8.84,0,0,0-1.36.8c-1,.66-1.93,1.28-2.54.92l-.71-.45c-.49-.31-1.38-.88-2.23-1.38a25.58,25.58,0,0,0,1,6.51,5.38,5.38,0,0,1,.29-1.14Z"/><path class="cls-5" d="M335.52,293.15a10.38,10.38,0,0,1,1-.84c.63-.48,1.36-1,1.62-1.14a.23.23,0,0,1,.35.16c0,.13.33.57.59.62,0,0,.12,0,.23-.11a2,2,0,0,0,.16-1.54,1.57,1.57,0,0,0-.46-1,.91.91,0,0,0-.84-.1c-.22.14-.25.53-.24.83a.23.23,0,0,1-.11.2,31.86,31.86,0,0,0-3.12,2.29A1.64,1.64,0,0,1,335.52,293.15Z"/><path class="cls-5" d="M315.24,310.29a.23.23,0,0,0,.06-.11A.23.23,0,0,1,315.24,310.29Z"/><path class="cls-5" d="M334.41,292.93a10.47,10.47,0,0,0-.36,3.62c.09,2.42.23,9.55.25,10.6l.23.11.4.18c0-1.67-.13-9.68-.13-11a10.33,10.33,0,0,1,.46-2.86A1.14,1.14,0,0,0,334.41,292.93Z"/><path class="cls-3" d="M371.09,329.93a.57.57,0,0,0-.21,0c-.84-8-3.89-16-6.34-21.38-2.85-6.25-5.7-10.72-6.37-11.26-1.33-1.09-3.49,1.12-3.83,1.47-.57.21-5,1.83-5.69,2.16,0,0-.12.06-.27-.1a1.79,1.79,0,0,1-.4-1.21l.07-.09a.23.23,0,0,0-.34-.3.39.39,0,0,0-.11.12l-.11.08c-.08-.49-.17-1.68-.23-2.79l.14,0c1.2-.23,3-2,3.3-2.34,1.12-1.19,2-3.86,2.56-7.94a60.45,60.45,0,0,0,.59-7,8.47,8.47,0,0,0-1.35-3.69c-.41-.79-.88-1.69-1.39-2.81-1.31-2.89-3.18-2.43-4.67-2.07a9.22,9.22,0,0,1-.93.2c-1.5.2-2.19-.8-2.93-2.14-.39-.7-1.43-.74-3.11-.14a23.46,23.46,0,0,0-3.32,1.56,37.47,37.47,0,0,1-4.26,1.57c-1.9.63-3.86,1.29-5,1.82a3.67,3.67,0,0,0-2,2.07,4.87,4.87,0,0,0-.26,1.81s0,.07,0,.1c0,.19,0,.52,2.77,1.94,1.31.67,2.64,1.28,2.65,1.29h0c.53.19.83.4.85.6,0,.43-1,1-1.55,1.32l-.25.14a2.2,2.2,0,0,0-1.17,2c0,.35.36.68,1.07,1a4.61,4.61,0,0,0,1.58.39,2.55,2.55,0,0,1,.81.31l0,.06a32.89,32.89,0,0,0-.71,5.65.57.57,0,0,0,.23.48,1,1,0,0,0,.61.16,5.06,5.06,0,0,0,1.37-.26,12,12,0,0,0,.61,1.86.23.23,0,0,0,.1.11,15.43,15.43,0,0,0,0,1.93c.09,2.3.22,8.86.25,10.4a.86.86,0,0,0-.6,0,.51.51,0,0,0-.28.34c-.09.32-1.64,4.1-3.19,7.62a.23.23,0,0,0-.23,0,11.73,11.73,0,0,1-9.89-1.25,16.72,16.72,0,0,1-4.34-3.58l0-.07a33.92,33.92,0,0,0-8.29-7.22,21.32,21.32,0,0,0-3.59-1.79c-.94-1.8-1.41-2.69-1.51-2.84s-3-3.46-5.53-3.46a17.86,17.86,0,0,0-2.88.12l0,0c-.13.06-.75.36-.89.81h-.09c0-.09-.25-2.1-1.69-2.38a3.1,3.1,0,0,0-3.65,2.1c-.87,2.68,1.78,4.39,1.81,4.41l.07,0a3.36,3.36,0,0,0,.74.08,3.61,3.61,0,0,0,.77-.08,3,3,0,0,0,2.23-2.06A2.56,2.56,0,0,1,294,298h0a1.53,1.53,0,0,0-.32.79,6.43,6.43,0,0,0,.83,2.82l.17.2c.42.5,1.29,1.54,2.44,1.4l.63-.09c.9-.13,1.68-.25,2,.18.08.11.47,1,1,2.06,2.67,5.94,9.78,21.71,15.93,26.81a.23.23,0,0,0,.14.05c.07.27.13.51.19.72s.11.42.14.54c.18,1,3.5,3.27,4.77,3.72a2.56,2.56,0,0,0,.86.14,3.78,3.78,0,0,0,2-.64h0c.24-.18,4.68-3.48,7.18-5.5-.15,2.11-.87,11.53-1.65,14.66s-2.81,13.69-2.29,19.48h0c0,.33,2.22,26.88,2.68,30.83a.23.23,0,0,0,.05.12,11,11,0,0,1,.41,4c0,.59-.14,1.22-.25,1.88a16.34,16.34,0,0,0-.21,5.39c.45,2.73,5.78,45.93,5.83,46.36,0,0,.06.62.19,1.26.24,1.23.49,1.49.68,1.57a.4.4,0,0,0,.16,0,.44.44,0,0,0,.26-.09c.16-.12.36-.27,1.12-11,.43-6,.89-13.4,1.26-19.31.31-4.89.57-9.12.62-9.42a27.84,27.84,0,0,0,.12-4,15.45,15.45,0,0,0-.6-4.8c-.71-1.43-.6-5.06,0-6.73.3-.83,2.41-5.83,4.6-10.75,1.43-3.23,2.62-5.81,3.5-7.6.34,1.6,1.26,5.71,1.87,6.73s1.2,2.57,1.2,6.68c0,3.35,2,8.07,3.38,11.19l.59,1.38c.72,1.73,2.3,11.86,4.7,30.11l.23,1.73c.15,1.08.39,1.58.78,1.63h.06c.44,0,.75-.63.84-.83a.23.23,0,0,0,0-.09c0-.32.87-32.2,1.11-37.33a9.18,9.18,0,0,0-2.32-6.9,4,4,0,0,1-.78-1.2c-.24-.88-.75-4.68,2.72-16.69.38-1.3.71-2.66,1-4h.08c.74-.27,1.59-2.1,1.71-2.48h0C368.9,361,370,339.55,370,339.17a14.31,14.31,0,0,0,1.66-1c.24-.18.57-.66.67-2.71a33.29,33.29,0,0,0,0-3.66C372.21,330.52,371.59,330,371.09,329.93ZM330.62,285.8c-.84,0-2.18-.64-2.18-.9a1.74,1.74,0,0,1,.94-1.61l.24-.14c.78-.44,1.85-1,1.78-1.77,0-.41-.41-.74-1.15-1-2.38-1.09-4.93-2.43-5.13-2.82v-.09a3.41,3.41,0,0,1,2-3.45c1.12-.52,3.07-1.17,5-1.8a37.17,37.17,0,0,0,4.34-1.6,23,23,0,0,1,3.25-1.53c.8-.29,2.21-.68,2.55-.07.77,1.39,1.62,2.62,3.4,2.38a9.55,9.55,0,0,0,1-.21c1.47-.36,3-.73,4.14,1.81.51,1.13,1,2,1.4,2.84a8.22,8.22,0,0,1,1.29,3.48c0,1.77-.56,12-3,14.62l0,0a8.17,8.17,0,0,1-3,2.15,16.26,16.26,0,0,0-1.62.47c-1.08.34-2.88.92-3.25.63a4.52,4.52,0,0,1-.79-1.4,3.73,3.73,0,0,0-1-1.58,20.84,20.84,0,0,0,.64-4.42c-.13-.79-.4-2.42-1.18-2.86a.9.9,0,0,0-.8,0,8.93,8.93,0,0,0-1.44.84c-.75.5-1.69,1.12-2,.91l-.7-.44C332.77,286.74,331.18,285.8,330.62,285.8Zm11.93,12,.27,0a12.14,12.14,0,0,0,3-.73l1-.3a18.44,18.44,0,0,0,.27,2.91c-.46.25-1.18.59-2.1,1a16.73,16.73,0,0,1-2.45.85v0C342.57,301.2,342.55,298.77,342.54,297.76Zm-.46,3.72a.23.23,0,0,0-.3.28,11,11,0,0,1-.19,2.24c-.86.5-1.9,1.1-2.91,1.67l2.7-8a.23.23,0,0,0,0-.11l.45-.31a1.78,1.78,0,0,0,.23.28c0,1.42,0,3.64,0,3.84A.23.23,0,0,0,342.08,301.48Zm-2.1-3a.23.23,0,0,0,0-.07l.81-.5L338.07,306h0l-.76.42C338,304.81,339.47,300.12,340,298.52Zm-3.27,8.14a.23.23,0,0,0-.05.12c-.55.3-1,.53-1.27.64,0-1.33-.09-6.55-.12-9.35a6.05,6.05,0,0,0,.35.54,2.08,2.08,0,0,0,1.57,1.07h.1a6.73,6.73,0,0,0,2.12-.9C338.43,301.82,336.93,306.34,336.71,306.66Zm-5.51-14.27s0,0,0-.11a32.21,32.21,0,0,1,.69-5.47l.37.21a.23.23,0,0,0,0,.08,30,30,0,0,0,.6,5.12C331.59,292.58,331.27,292.44,331.2,292.39Zm2.52,1.39a25.58,25.58,0,0,1-1-6.51c.85.5,1.74,1.07,2.23,1.38l.71.45c.61.37,1.55-.26,2.54-.92a8.84,8.84,0,0,1,1.36-.8.43.43,0,0,1,.4,0c.58.33.85,1.92.95,2.53a22.51,22.51,0,0,1-.68,4.43.23.23,0,0,0,.2.28c.24,0,.6.85.84,1.39.13.29.25.57.38.81-1,.7-3.51,2.3-4.37,2.37s-1.59-1.32-1.82-1.87a.23.23,0,0,0-.16-.13c0-.34,0-.6,0-.75a10.06,10.06,0,0,1,.47-2.81v0h0a6.83,6.83,0,0,1,1.21-1c.45-.33.94-.68,1.24-.88a1.62,1.62,0,0,0,.71.66.69.69,0,0,0,.79-.24,2.47,2.47,0,0,0,.26-1.94c0-.25-.25-1.07-.71-1.3a1.33,1.33,0,0,0-1.3-.07,1.23,1.23,0,0,0-.46,1.1,20.76,20.76,0,0,0-3.45,2.68h0v0h0A5.38,5.38,0,0,0,333.72,293.78Zm1.2,13.66-.4-.18-.23-.11c0-1.05-.16-8.18-.25-10.6a10.47,10.47,0,0,1,.36-3.62,1.14,1.14,0,0,1,.85.67,10.33,10.33,0,0,0-.46,2.86C334.79,297.77,334.9,305.78,334.92,307.44Zm-.19-14.91a31.86,31.86,0,0,1,3.12-2.29.23.23,0,0,0,.11-.2c0-.3,0-.68.24-.83a.91.91,0,0,1,.84.1,1.57,1.57,0,0,1,.46,1,2,2,0,0,1-.16,1.54c-.12.14-.2.12-.23.11-.25,0-.54-.49-.59-.62a.23.23,0,0,0-.35-.16c-.26.16-1,.66-1.62,1.14a10.38,10.38,0,0,0-1,.84A1.64,1.64,0,0,0,334.73,292.53ZM315.3,310.18a.23.23,0,0,1-.06.11A.23.23,0,0,0,315.3,310.18Zm-.43.06,0,0a16.63,16.63,0,0,0,4.55,3.77,13.28,13.28,0,0,0,6.57,1.89,11,11,0,0,0,3.55-.59l-.34.75a.23.23,0,0,0-.12,0c-6,.89-8.84-.64-8.87-.66l-.09,0c-.9-.1-2.37-1-4.16-2.61a40.28,40.28,0,0,1-4.78-5.1,19.59,19.59,0,0,0-7.06-5.23l-.44-.85v0A30.7,30.7,0,0,1,314.87,310.24ZM329,316.56a32.76,32.76,0,0,1-2.19,4.32c-1,1.28-2.2,3.22-2.67,4l-1.31-1.08,0,0c-.09-.06-2.27-1.36-4.06-.68l-.29.13,0,0c-.08-.09-8.06-9.07-10.57-13.67-1.09-2-2.32-4.35-3.36-6.35a18.87,18.87,0,0,1,6.33,4.83,40.76,40.76,0,0,0,4.83,5.16c1.3,1.15,3.1,2.55,4.37,2.72a12.17,12.17,0,0,0,5.43,1A25.08,25.08,0,0,0,329,316.56ZM289.1,299.31c-.28-.19-2.3-1.66-1.58-3.85a2.61,2.61,0,0,1,3.11-1.79h0c.87.17,1.18,1.29,1.28,1.76-.09-.2-.58-1.17-1.39-1.17a1.77,1.77,0,0,0-1.29.58,1.73,1.73,0,0,0-.43,1.38,2.79,2.79,0,0,0,1.11,2.14l0,0a.85.85,0,0,0,.61.27h.09c.63-.07,1.17-.82,1.29-1h.25A2.67,2.67,0,0,1,289.1,299.31Zm1.48-1.86h0a.25.25,0,0,0,.06.11c.09.09.18.09.73.09a1.45,1.45,0,0,1-.76.55.38.38,0,0,1-.32-.13l0,0a2.36,2.36,0,0,1-1-1.85,1.28,1.28,0,0,1,.31-1,1.3,1.3,0,0,1,.94-.42c.4,0,.74.47.9.77l-.2,0h-.08a.91.91,0,0,0-.52.43A2,2,0,0,0,290.58,297.45Zm.9-.26H291c-.22-.93.14-1.18.25-1.24l1.24.13h.08a.84.84,0,0,0,.19.24,4.49,4.49,0,0,0,2.22.62,8.46,8.46,0,0,0-.67.7A5.32,5.32,0,0,0,291.48,297.19Zm25.18,34.35c-6-5.3-12.87-20.56-15.49-26.37a23.56,23.56,0,0,0-1-2.15c-.5-.64-1.45-.5-2.45-.35l-.62.09c-.89.11-1.63-.77-2-1.24l-.2-.23a6.48,6.48,0,0,1-.7-2.49c0-.41.9-1.35,1.54-1.88a.23.23,0,0,0-.15-.41,5.42,5.42,0,0,1-2.5-.53c-.12-.1-.11-.16-.11-.18,0-.18.37-.42.61-.53a20.7,20.7,0,0,1,2.76-.11c2.13,0,4.86,2.89,5.15,3.27.09.12.66,1.21,1.38,2.6v0a.23.23,0,0,0,.15.29h0l.25.49.23.44a.23.23,0,0,0,0,.43l.29.12c1.1,2.11,2.45,4.7,3.65,6.89,2.48,4.56,10.22,13.3,10.61,13.74a3.53,3.53,0,0,0-1.15,1.81A12.47,12.47,0,0,0,316.66,331.53Zm5.41,5.22c-1.53-.54-4.36-2.76-4.47-3.37,0-.14-.08-.33-.14-.58a12.72,12.72,0,0,1-.09-7.4,2.71,2.71,0,0,1,1.55-1.9,2.68,2.68,0,0,1,1-.16,6,6,0,0,1,2.68.8l1.31,1.08a6.18,6.18,0,0,0-1.27,1.55,7.12,7.12,0,0,0-.75,5c.62,3.15,1.7,4.32,2.29,4.74A2.73,2.73,0,0,1,322.07,336.75Zm8.65,9.22c.89-3.56,1.67-14.69,1.7-15.16,0,0,0,0,0,0a13.12,13.12,0,0,0,1-.92,46.65,46.65,0,0,0,3.52-5c1.24-1.95,2.75-4.55,2.93-5.86a.23.23,0,0,0-.46-.06c-.3,2.19-5.12,9.27-6.32,10.57-1,1.09-7.61,6-8.53,6.69a2.48,2.48,0,0,1-.78-.7,9,9,0,0,1-1.5-3.86A6.52,6.52,0,0,1,323,327a5.47,5.47,0,0,1,1.31-1.55l.06-.07s1.62-2.66,2.83-4.25,6-12.88,6.2-13.73c0,0,0,0,0,0s.62.16.91.3a2.32,2.32,0,0,0,.83.29h0c.13,0,.38,0,3.61-1.83,1.58-.89,3.13-1.79,3.14-1.8a.23.23,0,0,0,.11-.16,17.38,17.38,0,0,0,.23-2.19,15.32,15.32,0,0,0,3.13-1,20.78,20.78,0,0,0,2.13-1,2.6,2.6,0,0,0,.31.91c.28.49.67.67,1,.49.67-.33,5.64-2.14,5.69-2.16a.23.23,0,0,0,.09-.06c.6-.65,2.34-2.19,3.23-1.46.56.46,3.36,4.79,6.24,11.1,2.51,5.49,5.65,13.75,6.37,21.91a.23.23,0,0,0,.06.14c-1.63,1.39-5.08,2.27-5.86,2.45-.88-9.45-2.44-22-5-29.09a.23.23,0,0,0-.44.16c2.51,7.06,4.07,19.7,4.94,29.05,1,10.4,1.28,19,1.18,19.8-.38.37-3.73,2.65-8.26,5.39a105.14,105.14,0,0,1-13.8,7.24,18.88,18.88,0,0,1-10.45.8,19.61,19.61,0,0,1-4.47-1.43C328,359.4,329.94,349.1,330.73,346Zm31.65,33.41c-3.41,11.8-3,15.78-2.72,16.94a4.24,4.24,0,0,0,.87,1.37,8.76,8.76,0,0,1,2.21,6.59c-.24,5-1.07,35.89-1.11,37.29-.13.28-.32.51-.39.52s-.22-.08-.38-1.24l-.23-1.73c-.9-6.82-3.62-27.56-4.73-30.23l-.59-1.39c-1.33-3.09-3.35-7.76-3.35-11,0-3.41-.37-5.42-1.27-6.92-.68-1.13-1.82-6.59-1.94-7.17a12,12,0,0,1,1.19-2.08c1.26-1.26,8.66-10.37,9.13-15.34a.23.23,0,1,0-.46,0c-.45,4.85-7.75,13.82-9,15.06s-9.12,19.61-9.73,21.28-.76,5.55,0,7.09.58,8,.45,8.42c-.05.15-.18,2.05-.64,9.53-.62,9.92-1.76,28.17-2.21,29.92a7.46,7.46,0,0,1-.54-2.4c-.05-.44-5.38-43.64-5.84-46.38a16,16,0,0,1,.21-5.24c.11-.68.21-1.32.25-1.92a11,11,0,0,0-.47-4.24c-.44-3.83-2.36-27-2.64-30.36a20.36,20.36,0,0,0,4.32,1.35,20.8,20.8,0,0,0,4,.4,18.43,18.43,0,0,0,6.68-1.22c7.07-2.74,19.4-10.58,21.87-12.46C365.39,356.45,365.22,369.53,362.38,379.38Zm2.79-6.54h0a7.08,7.08,0,0,1-1.22,2,120.52,120.52,0,0,0,1.91-21.57,10.83,10.83,0,0,0,0-1.73c0-1.11-.09-2.59-.17-4.28-.08-1.49-.22-3.94-.44-7a2.35,2.35,0,0,0,.83.13,8.87,8.87,0,0,0,3.44-1C369.4,341.93,368.25,361.62,365.17,372.84Zm6.22-35c-.82.62-4.64,2.71-6.08,2l-.08,0c-.14-1.84-.3-3.88-.5-6.06.7-.16,4.54-1.1,6.26-2.69a.84.84,0,0,0,.32-.51,1.76,1.76,0,0,1,.53,1.35C372,334.49,371.89,337.44,371.39,337.83Z"/><path class="cls-3" d="M245.46,455.08a.23.23,0,0,0,.23,0l59.59-33.53h.06a.23.23,0,0,0,.21-.32l.2-29a.23.23,0,0,0-.35-.21l-59.93,33.3a.23.23,0,0,0-.12.2v29.34A.23.23,0,0,0,245.46,455.08Zm49.66-56.79,10.16-5.64-.19,28.17-10-8.23Zm-49.31,27.39,48.84-27.14,0,14L245.81,440Zm0,14.78h0a.23.23,0,0,0,.11,0L294.83,413l10,8.26-59.06,33.24Z"/><path class="cls-3" d="M326.58,363.52a.64.64,0,0,0-.38-.47c-3-2.32-28.45-21.72-29.37-22.07a5.69,5.69,0,0,0-1.85-.37l-.09,0-7.28,3a10.61,10.61,0,0,0-2.78,2.47l0,0-5,7.73-3.06-2.36a.23.23,0,0,0-.24,0L269,355.14l-.84-.66a6.59,6.59,0,0,0-5.53-1.29,8.06,8.06,0,0,0-2.59,1l-75.1,41.39a.23.23,0,0,0-.09.32h0a2.78,2.78,0,0,0-1.15,1.92,2,2,0,0,0,0,.46v2.92a4,4,0,0,0,1.25,2.36l-5.66,3.09h0l0,0h0l0,0h0l0,0h0a.23.23,0,0,0,0,.08h0v38.51a.23.23,0,0,0,.09.19l.25.19,36.29,29.51v.09a.23.23,0,0,0,.35.2l3-1.72,10.1-5.57v2c-2.15.41-3.56,1.94-4.19,4.55a3.18,3.18,0,0,0,.33,2.18h0l1.72,2.57a.23.23,0,0,0,.19.1h0a3,3,0,0,0,1.76,1.23,2.87,2.87,0,0,0,.68.08,3.43,3.43,0,0,0,2.15-.83,5.43,5.43,0,0,0,1.78-2.94,5.3,5.3,0,0,0-.41-3.79.23.23,0,0,0,0-.16,7.42,7.42,0,0,0-2.19-2.74l0,0c0-1.47,0-2.75,0-3.23l74.71-41.18v2.14c-2.15.41-3.56,1.94-4.19,4.55a3.18,3.18,0,0,0,.33,2.18h0l1.72,2.57a.23.23,0,0,0,.19.1h0a3,3,0,0,0,1.75,1.23,2.83,2.83,0,0,0,.67.08c1.72,0,3.41-1.55,3.95-3.77a5.3,5.3,0,0,0-.41-3.79.23.23,0,0,0,0-.16,7.42,7.42,0,0,0-2.19-2.74l0,0c0-1.64,0-3,0-3.37l8.44-4.65h0a.23.23,0,0,0,.23-.23V382.67h0v0h0l0,0h0l0,0h0l-3.66-2.9c.37-.53,2.5-3.54,3.36-5a12.38,12.38,0,0,1,2.49-2.76c.38-.26,6.88-4.63,7.39-5a3.36,3.36,0,0,0,.9-1.29.23.23,0,0,0,0-.08v-1.82a.23.23,0,0,0,0-.12Zm-41.39-17.17a10.29,10.29,0,0,1,2.58-2.33l7.24-3a5.36,5.36,0,0,1,1.64.34c.84.37,21.43,16,29.29,22l.07,0a.18.18,0,0,1,.11.12c0,.08,0,.51-1.38,1.52-2.27,1.65-7.34,5.08-7.55,5.22a9.07,9.07,0,0,0-2.77,2.59c-.9,1.43-3.33,5.11-3.54,5.42l-1.37-1.08,0,0c0-.05,3.71-5.5,4.3-6.35a10.58,10.58,0,0,1,2.38-1.92h0c.23-.16,5.64-3.85,6.43-4.44a1,1,0,0,0,.46-.76,1.31,1.31,0,0,0-.37-.91l0,0c-1-.76-24.72-18.69-26-19.54a3.08,3.08,0,0,0-2.52-.56h0s-4,1.92-5.27,2.37a8.69,8.69,0,0,0-3,2.6h0L281.32,355l-1.12-.86Zm1.91,2.75s1.19-1.91,2.39-2.33,4.3-1.81,4.5-1.9a2.58,2.58,0,0,1,2.21.36c1.21.78,23.21,17.58,25.55,19.37-1.68,1.18-5.58,3.84-5.75,4a10.68,10.68,0,0,0-2.52,2c-.59.85-4.27,6.3-4.31,6.36v0l-26.57-21Zm-4.88,6.56-.53-.41,4.63-7.3a8.35,8.35,0,0,1,2.73-2.43c1.29-.45,5-2.23,5.31-2.39a2.68,2.68,0,0,1,2.11.51c1.29.84,25.26,19,26,19.51a.82.82,0,0,1,.23.54.59.59,0,0,1-.28.42l-.26.19c-1.81-1.38-24.43-18.66-25.69-19.48a3,3,0,0,0-2.64-.4h0s-3.2,1.44-4.46,1.89a6.84,6.84,0,0,0-2.62,2.52ZM184.15,398.2a1.52,1.52,0,0,1,0-.33,2.82,2.82,0,0,1,1.54-2,.23.23,0,0,0,.1-.22l74.47-41h0s4-2.57,7.58.26l34.43,27,0,0,.15.12.09,0a.76.76,0,0,1,.32.43.23.23,0,0,0-.12.2v.25a5.13,5.13,0,0,1-2,1.41h0c-.75.4-74.78,40.15-77.24,41.21-2.29,1-5.63-.92-5.84-1l-32.81-25.14a2.18,2.18,0,0,1-.66-1.14Zm0,3v-1.85a2.56,2.56,0,0,0,.36.4h0l32.83,25.16h0a10.33,10.33,0,0,0,4.59,1.41,4.27,4.27,0,0,0,1.69-.32c2.48-1.06,74.08-39.51,77.27-41.22a7,7,0,0,0,1.8-1.12v2.54c-3.43,1.86-74.81,40.45-78.63,42.21s-7.82-.65-8.07-.79c-.74-.58-29.25-23.08-30.54-24.17A3.71,3.71,0,0,1,184.16,401.18Zm31.64,73.49-36-29.28-.17-.13v-37.9l36.17,29.69ZM226.6,478l-.86-1.28a2.75,2.75,0,0,1-.27-1.83,7.09,7.09,0,0,1,1-2.33,4.33,4.33,0,0,1,2.77-1.85v1.33a5.12,5.12,0,0,0-2.55,3.43A5.71,5.71,0,0,0,226.6,478Zm5.46-5.89a2.83,2.83,0,0,0-.79-.33l-.22,0c0-.22,0-.45,0-.67A9.12,9.12,0,0,1,232.06,472.15Zm-1,.1.11,0c1.69.41,2.61,2.58,2.06,4.83a5,5,0,0,1-1.63,2.69,2.61,2.61,0,0,1-4.28-1,5,5,0,0,1-.21-3.14,4.76,4.76,0,0,1,2.1-3V477a1.81,1.81,0,0,0,.26,1.1.44.44,0,0,0,.32.14h.06c.4,0,1.09,0,1.17-1.36C231,476.39,231.05,474.35,231,472.25Zm-.47,0c0,2.1,0,4.17,0,4.69-.05.92-.39.92-.74.92h0a1.52,1.52,0,0,1-.12-.76h0v-4.67A2.63,2.63,0,0,1,230.58,472.21Zm-.91-.32V468l.88-.49c0,.78,0,2.47,0,4.21A3.05,3.05,0,0,0,229.67,471.89ZM303.12,436l-.86-1.29a2.73,2.73,0,0,1-.27-1.83,7.09,7.09,0,0,1,1-2.33,4.33,4.33,0,0,1,2.77-1.85V430a5.12,5.12,0,0,0-2.55,3.43A5.69,5.69,0,0,0,303.12,436Zm5.46-5.9a2.83,2.83,0,0,0-.79-.33l-.22,0c0-.22,0-.45,0-.67A9.15,9.15,0,0,1,308.58,430.1Zm-1,.1.11,0c1.69.41,2.61,2.58,2.06,4.83s-2.37,3.76-4.05,3.35-2.61-2.58-2.06-4.83a4.76,4.76,0,0,1,2.1-3V435a1.81,1.81,0,0,0,.26,1.1.44.44,0,0,0,.32.14h.06c.4,0,1.09,0,1.17-1.36C307.57,434.34,307.57,432.3,307.57,430.21Zm-.47,0c0,2.1,0,4.17,0,4.69-.05.92-.39.92-.74.92h0a1.52,1.52,0,0,1-.12-.76h0v-4.67A2.63,2.63,0,0,1,307.1,430.16Zm-.91-.32v-4l.88-.49c0,.71,0,2.5,0,4.35A3.05,3.05,0,0,0,306.19,429.85Zm9.55-9.81-84.92,46.81h0a.23.23,0,0,0-.21.15l-1.19.65a.23.23,0,0,0-.1.06l-10.4,5.73L216.26,475V437.08l99.49-54Zm-.19-37.4-99.51,54-36.25-29.76,5.51-3c2.42,2,30.15,23.86,30.44,24.08l0,0a11.64,11.64,0,0,0,2.73,1.11,10.06,10.06,0,0,0,2.64.37,7.47,7.47,0,0,0,3.15-.66c3.91-1.8,78-41.89,78.78-42.29a.23.23,0,0,0,.12-.2v-3.26a1.1,1.1,0,0,0,.13-.43,1.24,1.24,0,0,0-.75-1.11l-33.2-26.06,7.24-3.55,5.53,4.27Zm10.59-17.19a2.83,2.83,0,0,1-.73,1c-.51.39-7.31,5-7.38,5h0a12.66,12.66,0,0,0-2.61,2.89c-.84,1.38-2.92,4.33-3.33,4.9l-.84-.67h0s2.62-4,3.56-5.45a8.77,8.77,0,0,1,2.61-2.44h0c.05,0,5.26-3.56,7.57-5.24a7.11,7.11,0,0,0,1.13-1Z"/><polygon class="cls-8" points="336.95 453.84 308.21 429.01 307.6 428.48 307.54 425.09 310.72 423.45 336.3 452.31 336.95 453.84"/><polygon class="cls-8" points="360.86 440.85 340.56 420.69 340.13 426.32 360.86 440.85"/><path class="cls-9" d="M232.61,311a2.47,2.47,0,0,1-3.68-2.15V275.08a5,5,0,0,1,2.62-4.37l24-12.77a1.67,1.67,0,0,1,2.46,1.48v33.83A5.82,5.82,0,0,1,255,298.3Z"/><path class="cls-3" d="M258.14,291.32s1.25-12.71-11.6-6.11-17.45,19.73-17.45,19.73l.13,4.47a2.28,2.28,0,0,0,2.86,1.79c.1,0,23.5-13.17,23.5-13.17s2.23-1.59,2.23-3.57A12.52,12.52,0,0,1,258.14,291.32Z"/><ellipse class="cls-10" cx="244.78" cy="277.12" rx="8.38" ry="5.96" transform="translate(-83.97 446.34) rotate(-75.78)"/><ellipse class="cls-11" cx="265.42" cy="281.24" rx="3.41" ry="2.43" transform="translate(-72.39 469.47) rotate(-75.78)"/><ellipse class="cls-11" cx="272.63" cy="277.51" rx="3.41" ry="2.43" transform="translate(-63.33 473.64) rotate(-75.78)"/><ellipse class="cls-11" cx="279.84" cy="274.18" rx="3.41" ry="2.43" transform="translate(-54.66 478.12) rotate(-75.78)"/><path class="cls-9" d="M262.15,262.5v-6.65a1.73,1.73,0,0,1,.91-1.52l36.82-19.61a.49.49,0,0,1,.72.43v7.41a.49.49,0,0,1-.26.43l-37.48,19.95A.49.49,0,0,1,262.15,262.5Z"/><path class="cls-9" d="M262.41,274.9v-6.65a1.73,1.73,0,0,1,.91-1.52l36.82-19.61a.49.49,0,0,1,.72.43V255a.49.49,0,0,1-.26.43l-37.48,19.95A.49.49,0,0,1,262.41,274.9Z"/><path class="cls-12" d="M494.53,124.54l-5-2.24a3.23,3.23,0,0,0-2.6.21c-1.56.71-111.91,58.28-111.91,58.28s-9.23,3.46-9.23,11v65a3.54,3.54,0,0,0,.67,1.71c.64.93,5.48,5.2,5.48,5.2"/><path class="cls-13" d="M370.94,193.09v65.36s-1.23,8.18,4.91,4.91S492,200,492,200s4.5-.82,4.09-4.5V126.76a2.27,2.27,0,0,0-3.32-2L375,186.41A7.53,7.53,0,0,0,370.94,193.09Z"/><path class="cls-9" d="M380.06,230.65a2.47,2.47,0,0,1-3.68-2.15V194.7a5,5,0,0,1,2.62-4.37l24-12.77a1.67,1.67,0,0,1,2.46,1.48v33.83a5.82,5.82,0,0,1-2.94,5.06Z"/><path class="cls-3" d="M405.59,210.94s1.25-12.71-11.6-6.11-17.45,19.73-17.45,19.73l.13,4.47a2.28,2.28,0,0,0,2.86,1.79c.1,0,23.5-13.17,23.5-13.17s2.23-1.59,2.23-3.57A12.52,12.52,0,0,1,405.59,210.94Z"/><ellipse class="cls-10" cx="392.23" cy="196.74" rx="8.38" ry="5.96" transform="translate(105.19 528.64) rotate(-75.78)"/><ellipse class="cls-11" cx="412.87" cy="200.86" rx="3.41" ry="2.43" transform="translate(116.77 551.76) rotate(-75.78)"/><ellipse class="cls-11" cx="420.08" cy="197.13" rx="3.41" ry="2.43" transform="translate(125.82 555.94) rotate(-75.78)"/><ellipse class="cls-11" cx="427.29" cy="193.8" rx="3.41" ry="2.43" transform="translate(134.49 560.41) rotate(-75.78)"/><path class="cls-9" d="M409.6,182.12v-6.65a1.73,1.73,0,0,1,.91-1.52l36.82-19.61a.49.49,0,0,1,.72.43v7.41a.49.49,0,0,1-.26.43l-37.48,19.95A.49.49,0,0,1,409.6,182.12Z"/><path class="cls-9" d="M409.86,194.52v-6.65a1.73,1.73,0,0,1,.91-1.52l36.82-19.61a.49.49,0,0,1,.72.43v7.41a.49.49,0,0,1-.26.43L410.58,195A.49.49,0,0,1,409.86,194.52Z"/><path class="cls-14" d="M494.53,29.09l-5-2.24a3.23,3.23,0,0,0-2.6.21c-1.56.71-111.91,58.28-111.91,58.28s-9.23,3.46-9.23,11v65a3.54,3.54,0,0,0,.67,1.71c.64.93,5.48,5.2,5.48,5.2"/><path class="cls-13" d="M370.94,97.64V163s-1.23,8.18,4.91,4.91S492,104.53,492,104.53s4.5-.82,4.09-4.5V31.32a2.27,2.27,0,0,0-3.32-2L375,91A7.53,7.53,0,0,0,370.94,97.64Z"/><path class="cls-9" d="M380.06,135.2a2.47,2.47,0,0,1-3.68-2.15V99.25A5,5,0,0,1,379,94.88l24-12.77a1.67,1.67,0,0,1,2.46,1.48v33.83a5.82,5.82,0,0,1-2.94,5.06Z"/><path class="cls-3" d="M405.59,115.5s1.25-12.71-11.6-6.11-17.45,19.73-17.45,19.73l.13,4.47a2.28,2.28,0,0,0,2.86,1.79c.1,0,23.5-13.17,23.5-13.17s2.23-1.59,2.23-3.57A12.52,12.52,0,0,1,405.59,115.5Z"/><ellipse class="cls-10" cx="392.23" cy="101.29" rx="8.38" ry="5.96" transform="translate(197.71 456.63) rotate(-75.78)"/><ellipse class="cls-11" cx="412.87" cy="105.41" rx="3.41" ry="2.43" transform="translate(209.29 479.76) rotate(-75.78)"/><ellipse class="cls-11" cx="420.08" cy="101.69" rx="3.41" ry="2.43" transform="translate(218.34 483.93) rotate(-75.78)"/><ellipse class="cls-11" cx="427.29" cy="98.35" rx="3.41" ry="2.43" transform="translate(227.02 488.4) rotate(-75.78)"/><path class="cls-9" d="M409.6,86.67V80a1.73,1.73,0,0,1,.91-1.52l36.82-19.61a.49.49,0,0,1,.72.43v7.41a.49.49,0,0,1-.26.43L410.32,87.1A.49.49,0,0,1,409.6,86.67Z"/><path class="cls-9" d="M409.86,99.07V92.42a1.73,1.73,0,0,1,.91-1.52L447.6,71.29a.49.49,0,0,1,.72.43v7.41a.49.49,0,0,1-.26.43L410.58,99.51A.49.49,0,0,1,409.86,99.07Z"/><path class="cls-15" d="M340.83,107.6l-5-2.24a3.23,3.23,0,0,0-2.6.21c-1.56.71-111.91,58.28-111.91,58.28s-9.23,3.46-9.23,11v65a3.54,3.54,0,0,0,.67,1.71c.64.93,5.48,5.2,5.48,5.2"/><path class="cls-13" d="M217.24,176.15v65.36s-1.23,8.18,4.91,4.91S338.27,183,338.27,183s4.5-.82,4.09-4.5V109.82a2.27,2.27,0,0,0-3.32-2L221.28,169.47A7.53,7.53,0,0,0,217.24,176.15Z"/><path class="cls-9" d="M226.37,213.71a2.47,2.47,0,0,1-3.68-2.15V177.76a5,5,0,0,1,2.62-4.37l24-12.77a1.67,1.67,0,0,1,2.46,1.48v33.83a5.82,5.82,0,0,1-2.94,5.06Z"/><path class="cls-3" d="M251.9,194s1.25-12.71-11.6-6.11-17.45,19.73-17.45,19.73l.13,4.47a2.28,2.28,0,0,0,2.86,1.79c.1,0,23.5-13.17,23.5-13.17s2.23-1.59,2.23-3.57A12.52,12.52,0,0,1,251.9,194Z"/><ellipse class="cls-10" cx="238.53" cy="179.8" rx="8.38" ry="5.96" transform="translate(5.66 366.87) rotate(-75.78)"/><ellipse class="cls-11" cx="259.18" cy="183.92" rx="3.41" ry="2.43" transform="translate(17.24 389.99) rotate(-75.78)"/><ellipse class="cls-11" cx="266.39" cy="180.19" rx="3.41" ry="2.43" transform="translate(26.29 394.17) rotate(-75.78)"/><ellipse class="cls-11" cx="273.6" cy="176.86" rx="3.41" ry="2.43" transform="translate(34.96 398.64) rotate(-75.78)"/><path class="cls-9" d="M255.9,165.18v-6.65a1.73,1.73,0,0,1,.91-1.52l36.82-19.61a.49.49,0,0,1,.72.43v7.41a.49.49,0,0,1-.26.43l-37.48,19.95A.49.49,0,0,1,255.9,165.18Z"/><path class="cls-9" d="M256.17,177.58v-6.65a1.73,1.73,0,0,1,.91-1.52l36.82-19.61a.49.49,0,0,1,.72.43v7.41a.49.49,0,0,1-.26.43L256.88,178A.49.49,0,0,1,256.17,177.58Z"/><rect class="cls-16" width="59.89" height="600.28"/></g></g></svg>