<svg xmlns="http://www.w3.org/2000/svg" xmlns:xlink="http://www.w3.org/1999/xlink" viewBox="0 0 726.66 703.26"><defs><style>.cls-1{fill:none;}.cls-2{fill:#fff761;}.cls-3{fill:#fff;}.cls-10,.cls-4{fill:#efe34b;}.cls-5{fill:#0828cc;}.cls-6{fill:#10f4ff;}.cls-7{fill:#f5f7ff;}.cls-8{fill:#cdff17;}.cls-9{clip-path:url(#clip-path);}.cls-10{stroke:#efe34b;stroke-miterlimit:10;}</style><clipPath id="clip-path"><polygon class="cls-1" points="622.07 47 622.07 47 622.07 546.86 98.65 546.86 0 446.39 622.07 47"/></clipPath></defs><title>Asset 1</title><g id="Layer_2" data-name="Layer 2"><g id="Layer_1-2" data-name="Layer 1"><polyline class="cls-2" points="622.07 47 622.07 47 622.07 546.86 153.8 586.01 0 446.39"/><path class="cls-3" d="M556.09,179.69l-4.53,2.54c-1,.56-1.54,2.88-1.57,6.54a52.54,52.54,0,0,0,.29,5.64.38.38,0,0,1-.09.29s-.06.06,0,.22c.49,1.79,8.2,6.81,11.71,7.94a5.72,5.72,0,0,0,2.8.25,12.5,12.5,0,0,1,1.39-.09c1.44,0,3.61.33,7.91,1.92,8.91,3.29,18.44-.36,18.82-.51.58-.28,19.13-9.25,21.79-10.76,1.4-.8,1-2,.32-3.64a3.66,3.66,0,0,1-.5-2.1c0-.12.05-.9-2.45-4.64-1.67-2.5-3.51-4.91-3.72-5.17-1-1.35-5.94-1.31-9.18-1.29h-1.31c-2.31,0-4.38-2.05-6.38-4a15.39,15.39,0,0,0-3.83-3.14c-2.51-1.13-5.58.83-7.83,2.27-.4.26-.79.5-1.13.7a3.06,3.06,0,0,1-3.94-.41l-1.3.07-.52,0c-1.52.07-4.34.21-5.65,1.08-1,.67-5.92,3.43-10.2,5.81l-.1.06Z"/><path class="cls-4" d="M672.27,161.43a67.29,67.29,0,0,0-11.62,3.11c-1.61.61-1.91.72-4.27.2a22.2,22.2,0,0,1-3.24-1c-2.16-.82-3.59-1.36-7.12.17-5.37,2.34-12.81,3.36-16.36,3.59a35.7,35.7,0,0,0-11,2c-3.39,1.27-5.12,1.8-5.59,1.94a6.76,6.76,0,0,1,.4.85,33.46,33.46,0,0,1,1.23,3.87c.4,1.51.52,2,1.5,2.41,1.46.66,3.77,5.46,3.48,9a5.43,5.43,0,0,1-.64,2.24L674.68,165c2.59-1.56,4.67-3.41,4.45-4C679.09,161,678.58,160.15,672.27,161.43Z"/><path class="cls-3" d="M601.66,164.12c-.58-.8-1.73-1.66-4-2.47s-4.17-.79-5.4.2c-1.6,1.28-5.49,1.26-8.33,1.24h-.85a6.33,6.33,0,0,0-1.91.31l-.06,0a.37.37,0,0,1-.18,0h0a6.51,6.51,0,0,0-3.46,2.62c-.46,1.06-1.87,4.71-2.23,5.64a2.31,2.31,0,0,0,3,.23c.33-.19.71-.43,1.1-.69,2.26-1.44,5.67-3.62,8.54-2.32a15.82,15.82,0,0,1,4.05,3.29c1.89,1.88,3.85,3.82,5.85,3.82h1.3c3.79,0,8.51-.06,9.78,1.58.21.27,2.06,2.69,3.75,5.21,2.49,3.73,2.68,4.76,2.55,5.24a3.57,3.57,0,0,0,.46,1.63,11.62,11.62,0,0,1,.53,1.43l1.27-.57a3.85,3.85,0,0,0,1.55-3c.28-3.48-2-7.81-3-8.27-1.3-.59-1.51-1.36-1.91-2.9a32.78,32.78,0,0,0-1.21-3.79c-1.58-4.09-6.89-4.42-7.45-4.44a2.91,2.91,0,0,1-2.27-.33,2.35,2.35,0,0,1-.85-2,2.93,2.93,0,0,0-.45-1.57A.38.38,0,0,1,601.66,164.12Z"/><path class="cls-4" d="M672.13,160.69a68,68,0,0,0-11.73,3.15c-1.53.58-1.7.64-3.84.16a21.59,21.59,0,0,1-3.14-1c-2.25-.85-3.88-1.47-7.69.19-5.28,2.3-12.61,3.3-16.11,3.53a36.34,36.34,0,0,0-11.19,2.09c-3.91,1.46-5.64,2-5.65,2l-.08,0c-2.38-3.3-7.14-3.42-7.37-3.42h-.11a2.25,2.25,0,0,1-1.68-.2,1.65,1.65,0,0,1-.54-1.37,3.76,3.76,0,0,0-.57-1.94s0,.09,0,.14a.38.38,0,0,1-.37.33h0a.37.37,0,0,1-.2-.09,2.93,2.93,0,0,1,.45,1.57,2.35,2.35,0,0,0,.85,2,2.91,2.91,0,0,0,2.27.33c.56,0,5.86.35,7.45,4.44a32.78,32.78,0,0,1,1.21,3.79c.4,1.54.61,2.31,1.91,2.9,1,.46,3.33,4.79,3,8.27a3.85,3.85,0,0,1-1.55,3l-1.27.57a4.39,4.39,0,0,1,.14.74h.05a4.88,4.88,0,0,0,1.44-.64L675,165.71l0,0a30.48,30.48,0,0,0,2.54-1.74c1.82-1.4,2.53-2.4,2.24-3.15S678.42,159.42,672.13,160.69Zm2.55,4.34-55.61,24.82a5.43,5.43,0,0,0,.64-2.24c.29-3.55-2-8.35-3.48-9-1-.45-1.1-.9-1.5-2.41a33.46,33.46,0,0,0-1.23-3.87,6.76,6.76,0,0,0-.4-.85c.46-.14,2.2-.67,5.59-1.94a35.7,35.7,0,0,1,11-2c3.55-.23,11-1.25,16.36-3.59,3.53-1.54,5-1,7.12-.17a22.2,22.2,0,0,0,3.24,1c2.36.53,2.65.42,4.27-.2a67.29,67.29,0,0,1,11.62-3.11c6.3-1.27,6.82-.45,6.85-.36C679.34,161.62,677.26,163.47,674.68,165Z"/><path class="cls-5" d="M616.08,191.18a.38.38,0,0,0,.15.72h0a4.39,4.39,0,0,0-.14-.74Z"/><path class="cls-5" d="M574.68,172.17a.37.37,0,0,0,.48-.22l.08-.22-.14-.15a.37.37,0,0,0-.32-.14h-.24l-.09.23A.38.38,0,0,0,574.68,172.17Z"/><path class="cls-4" d="M551.94,168.8l-.76-1.08c-1-1.43-1.42-2-1.43-2.92a6.15,6.15,0,0,0,1.36,1.59c.73.53,2.93,2.15,5.21,12.32l.68-.38c-2.32-10.25-4.58-11.92-5.45-12.55a8,8,0,0,1-1.72-2.35.38.38,0,0,0-.71.1c-.35,2.1.07,2.69,1.45,4.62l.76,1.07c1.94,2.79,2.95,10.47,3,10.54a.38.38,0,0,0,0,.07l.7-.39C554.81,178.12,553.82,171.49,551.94,168.8Z"/><path class="cls-5" d="M557,179.2l-.1.06Z"/><path class="cls-4" d="M556.38,179a.38.38,0,0,0,.45.29l0,0,.1-.06a.37.37,0,0,0,.13-.37l-.11-.5-.68.38Z"/><path class="cls-4" d="M554.66,180.09h0a.38.38,0,0,0,.32-.42l0-.22-.7.39A.38.38,0,0,0,554.66,180.09Z"/><path class="cls-4" d="M558.1,169.51a18.46,18.46,0,0,0-1.79-2.26c-1.92-2.22-4.32-5-3.87-8.36a20,20,0,0,1,2.24-5.82c1.59-3.18,3.39-6.78,2.71-10.76a19.4,19.4,0,0,0-1.55-5.31c.15.15.3.31.46.48a11.4,11.4,0,0,1,2.61,7.58,16.67,16.67,0,0,1-2.07,8.42c-.84,1.72-1.57,3.2-1.15,5.22a9.32,9.32,0,0,0,2.28,3.87c2,2.47,4.52,5.53,4.17,12.82a.38.38,0,0,0,0,.06l.76-.43c.22-6.44-1.74-9.63-3.63-12a.37.37,0,0,1-.21,0,.38.38,0,0,1-.35-.4s0-.14,0-.32l-.19-.23a8.8,8.8,0,0,1-2.12-3.55c-.37-1.76.27-3.07,1.09-4.73a17.32,17.32,0,0,0,2.15-8.76,12.12,12.12,0,0,0-2.83-8.1A8.35,8.35,0,0,0,554,134.8a.38.38,0,0,0-.49.2.37.37,0,0,0,.2.49s1.89,1,2.9,6.93c.63,3.74-1,7.07-2.64,10.3a20.46,20.46,0,0,0-2.31,6.06c-.5,3.72,2,6.62,4,9a18,18,0,0,1,1.71,2.16c1.42,2.33.71,7.67.7,7.72a.37.37,0,0,0,0,.07l.8-.45C559.11,175.81,559.4,171.65,558.1,169.51Z"/><path class="cls-4" d="M558.48,178h.05a.38.38,0,0,0,.37-.32s0-.21.06-.48l-.8.45A.37.37,0,0,0,558.48,178Z"/><path class="cls-4" d="M562.49,175.78a.37.37,0,0,0,.39-.36c0-.14,0-.27,0-.41l-.76.43A.37.37,0,0,0,562.49,175.78Z"/><path class="cls-4" d="M559.46,162.69c0-.06.41-6.48,2.3-9.84,2.32-4.12,5-9.88,4.32-13.89a31.74,31.74,0,0,0-5.33-12.34c-.32-.42-.65-.79-1-1.15-1.81-2.07-3.12-3.56.4-11.11a26.69,26.69,0,0,0,2.37-8.58,43.42,43.42,0,0,1-.34,8,23.58,23.58,0,0,0,.59,10.31,8.2,8.2,0,0,0,1.62,3c.31.52,3.78,6.34,4.2,9.68.46,3.66-1.39,11.64-4.55,16.86-3.39,5.59-2.21,9.7-1.42,10.49.58.58,2.52,3.43,3.88,8.79l.22-.14a3.85,3.85,0,0,1,.45-.26c-1.41-5.41-3.37-8.27-4-8.92s-1.61-4.39,1.54-9.57c3.24-5.35,5.13-13.57,4.66-17.34s-4.17-9.76-4.33-10l-.06-.08a7.42,7.42,0,0,1-1.49-2.77,23,23,0,0,1-.54-9.9,38.89,38.89,0,0,0-1-16.46.38.38,0,0,0-.71.24A24.26,24.26,0,0,1,559.51,114c-3.72,8-2.21,9.73-.28,11.93.31.35.62.71.93,1.11a30.87,30.87,0,0,1,5.19,12c.34,2.1-.13,6.12-4.23,13.41-1.75,3.11-2.27,8.46-2.38,9.84l.54.67A.38.38,0,0,0,559.46,162.69Z"/><path class="cls-4" d="M566.54,172.91l.07.26a.38.38,0,0,0,.36.29h.09a.38.38,0,0,0,.27-.45l-.12-.48a3.85,3.85,0,0,0-.45.26Z"/><path class="cls-4" d="M559.07,163a.37.37,0,0,0,.21,0l-.54-.67c0,.18,0,.29,0,.32A.38.38,0,0,0,559.07,163Z"/><path class="cls-4" d="M569.3,171.18c-.15-.51-.44-1.36-.85-2.53-.2-.57-.46-1.19-.73-1.85-1.36-3.29-3-7.38.44-9.66a26,26,0,0,0,6.36-5.88c1.94-2.6,2.63-5,2-6.85-.26-.8-.49-1.59-.72-2.36a17.28,17.28,0,0,0-2.17-5.36,9.61,9.61,0,0,1,1.17.82,9,9,0,0,1,3.25,7.3c0,7.7-2.81,10.44-3.83,10.57-.69.09-3.73.93-4.81,3.19a4.53,4.53,0,0,0,.58,4.49,26.25,26.25,0,0,1,2.85,5.8,4.67,4.67,0,0,1,.24,2.68h.24l.55,0c.28-1.36-.2-3.93-3.24-8.83a3.83,3.83,0,0,1-.54-3.77c.86-1.8,3.44-2.68,4.23-2.77s1.89-.89,2.87-2.85a18.88,18.88,0,0,0,1.62-8.47,9.75,9.75,0,0,0-3.53-7.88,10,10,0,0,0-3.54-1.88.38.38,0,0,0-.27.69c2.06,1.15,2.79,3.64,3.62,6.53.22.78.46,1.58.72,2.39.69,2.08-.65,4.5-1.9,6.16a25.17,25.17,0,0,1-6.17,5.7c-4,2.62-2.11,7.22-.72,10.57.27.65.52,1.26.72,1.81.67,1.91.87,2.57.92,2.8a.37.37,0,0,0,0,.28l0,0,.7-.14A1.88,1.88,0,0,0,569.3,171.18Z"/><path class="cls-4" d="M569.21,172.14a.34.34,0,0,0,.21-.28l-.7.14A.39.39,0,0,0,569.21,172.14Z"/><path class="cls-4" d="M573.07,171.54a1.5,1.5,0,0,1-.08.2.38.38,0,1,0,.68.33,2.42,2.42,0,0,0,.19-.57l-.55,0Z"/><path class="cls-4" d="M599.8,161.15v0a15.14,15.14,0,0,1,1.15-2.47c.65-1.1,1.67-2.43,2.87-2.54,1.85-.18,5.71-1,7-3a2.57,2.57,0,0,0,.33-2.27,6.92,6.92,0,0,0-1.36-2.47c-.73-.93-1.17-1.49-.39-3.76a8.48,8.48,0,0,1,1.87-2.82c1.66-1.88,3.37-3.82.66-9a25.18,25.18,0,0,1-2.69-16q0,.13,0,.26a20,20,0,0,0,2.7,10.88c4.18,6.84,5.33,10.51,3.83,12.25-1.07,1.25-3.52,4.31-3.2,5.82a2.79,2.79,0,0,0,.75,1.2,5.45,5.45,0,0,1,1.52,4.36c-.12,3.35-3.73,5.86-4.34,6.26a13.37,13.37,0,0,0-4.09.66,6.62,6.62,0,0,0-4.71,4.74,4.56,4.56,0,0,1,.62.79c.31-2.32,1.76-3.94,4.31-4.81a12.66,12.66,0,0,1,4-.63.37.37,0,0,0,.21-.05c.19-.12,4.65-2.88,4.79-6.93A6.17,6.17,0,0,0,614,146.6a2.31,2.31,0,0,1-.58-.86c-.17-.78,1.05-2.86,3-5.17,1.76-2.06.67-5.86-3.76-13.13-4.25-7-2-15.6-2-15.68a.38.38,0,0,0-.71-.23,25.58,25.58,0,0,0,1.36,21.56c2.47,4.77,1.07,6.36-.56,8.2a9.07,9.07,0,0,0-2,3.07c-.87,2.53-.37,3.35.51,4.47A6.19,6.19,0,0,1,610.5,151a1.83,1.83,0,0,1-.24,1.64,4,4,0,0,1-1.28,1.13l.15.26a.38.38,0,0,1-.65.37l-.16-.28q-.44.21-1,.4l-.78.26a.38.38,0,0,1-.68.32l-.07-.12a14.89,14.89,0,0,1-2.07.36c-2.81.27-4.55,5.18-4.66,5.51l-.18.44.69.31Z"/><path class="cls-5" d="M601.77,164.28l-.11-.16A.38.38,0,0,0,601.77,164.28Z"/><path class="cls-4" d="M599,162.16a.38.38,0,0,0,.49-.21l.13-.33-.69-.31-.14.35A.38.38,0,0,0,599,162.16Z"/><path class="cls-4" d="M601.64,164a.37.37,0,0,0,0,.16l.11.16a.37.37,0,0,0,.2.09h0a.38.38,0,0,0,.37-.33s0-.09,0-.14a4.56,4.56,0,0,0-.62-.79A7,7,0,0,0,601.64,164Z"/><path class="cls-4" d="M588.14,159.95c-.31-2,.38-4.36,2-6.85,4.23-6.54,3-10.55,1.27-14.42-2-4.53-1.95-10.68.26-16.89,2-5.53.64-12-.85-15.53a15.69,15.69,0,0,1,3.13,6.72,19,19,0,0,1-1.15,11.45c-.11.22-2.53,5.4.86,14.18a16,16,0,0,1,.85,9.89,10,10,0,0,1-1.61,3.52l0,.07c-.12.24-2.83,5.77-.38,8.76a4.28,4.28,0,0,1,.71-.3.37.37,0,0,0-.06-.09c-2.17-2.47.17-7.53.39-8a10.7,10.7,0,0,0,1.72-3.72,16.69,16.69,0,0,0-.87-10.4c-3.26-8.45-.9-13.54-.88-13.58a19.35,19.35,0,0,0,1.2-11.94,16.54,16.54,0,0,0-3.23-7,9.46,9.46,0,0,0-2.18-2,.38.38,0,0,0-.42.62c1.25.94,4.73,9.75,2.11,17.12-3.11,8.75-1.48,14.69-.24,17.45,1.72,3.81,2.82,7.47-1.22,13.7-3.36,5.19-2.06,8.39-1.32,9.55l.86-.09A4.69,4.69,0,0,1,588.14,159.95Z"/><path class="cls-4" d="M606.55,154.74c0-.07-4.29-7.24-3.63-13.29a39.51,39.51,0,0,1,.82-4.71,13,13,0,0,0-.24-8.11c-1.68-5.53-2-7.28-.69-11.22a13.08,13.08,0,0,0,.07,4.91c.84,2.58,2.12,6.09,2.13,6.12a.38.38,0,0,0,.06.11,5.27,5.27,0,0,1,.79,1.74,11.09,11.09,0,0,1,0,5.39c-.17.79-.38,1.53-.59,2.24-1.1,3.84-2,7.17,3,16.24.24-.11.46-.23.66-.35-4.94-8.81-4-12-3-15.68.21-.72.42-1.47.6-2.28a11.79,11.79,0,0,0,0-5.8,6.13,6.13,0,0,0-.87-1.91c-.16-.45-1.33-3.65-2.11-6s.75-9,.77-9.09a.38.38,0,0,0-.25-.49c-.22-.07-.39,0-.51.33l-.2.53c-.23.65-.61,1.75-1.13,3.27-1.61,4.74-1.16,6.71.51,12.21a12.24,12.24,0,0,1,.22,7.73,40.71,40.71,0,0,0-.83,4.79,20.93,20.93,0,0,0,1.61,9.28,32.67,32.67,0,0,0,2.06,4.36l.74-.2Zm-2.91-41.92h0Z"/><path class="cls-4" d="M608.47,154.44a.38.38,0,0,0,.65-.37l-.15-.26c-.2.12-.42.24-.66.35Z"/><path class="cls-4" d="M606.23,155.31a.38.38,0,0,0,.35-.5l-.74.2.07.12A.37.37,0,0,0,606.23,155.31Z"/><path class="cls-5" d="M581.14,163.44l.06,0-.26.09h0A.38.38,0,0,0,581.14,163.44Z"/><path class="cls-4" d="M581.19,156.8c.25-.45.53-.91.83-1.41,1.41-2.32,3.09-5.07,2.8-8.37.29,1.52.21,3.82-1,7.18-1.48,4.07-2,6.89-1.46,8.17a6.58,6.58,0,0,1,.76,0h.09c-.16-.14-1.07-1.33,1.32-7.87,3-8.22-.51-10.59-.66-10.69a.38.38,0,0,0-.54.47c2,4.35-.18,7.9-1.92,10.76-.3.5-.59,1-.85,1.43a7.34,7.34,0,0,0-.11,6.44q.35-.14.71-.24A6.68,6.68,0,0,1,581.19,156.8Z"/><path class="cls-4" d="M580.94,163.49l.26-.09a.38.38,0,0,0,.08-.47s-.06-.11-.14-.3q-.37.11-.71.24c.11.24.19.39.2.42A.37.37,0,0,0,580.94,163.49Z"/><path class="cls-4" d="M574.55,171.46l-.69,0a2.41,2.41,0,0,1-.19.57.38.38,0,0,1-.68-.33,1.5,1.5,0,0,0,.08-.2h-.28a28.67,28.67,0,0,0-3.37.31.34.34,0,0,1-.21.28.39.39,0,0,1-.49-.14,7.11,7.11,0,0,0-1.52.51l.12.48a.38.38,0,0,1-.27.45H567a.38.38,0,0,1-.36-.29l-.07-.26c-.63.4-2,1.17-3.64,2.11,0,.14,0,.27,0,.41a.37.37,0,0,1-.75,0L559,177.23c0,.27-.05.45-.06.48a.38.38,0,0,1-.37.32h-.05a.37.37,0,0,1-.32-.35l-1.16.65.11.5a.37.37,0,0,1-.13.37c4.28-2.39,9.19-5.14,10.2-5.81,1.31-.87,4.14-1,5.65-1.08l.52,0,1.3-.07a3.06,3.06,0,0,0,3.94.41c.34-.2.72-.44,1.13-.7,2.25-1.43,5.32-3.4,7.83-2.27a15.39,15.39,0,0,1,3.83,3.14c2,2,4.07,4,6.38,4h1.31c3.24,0,8.14-.06,9.18,1.29.2.27,2,2.67,3.72,5.17,2.5,3.74,2.48,4.52,2.45,4.64a3.66,3.66,0,0,0,.5,2.1c.72,1.68,1.08,2.84-.32,3.64-2.66,1.52-21.21,10.49-21.79,10.76-.37.15-9.91,3.81-18.82.51-4.31-1.59-6.47-1.92-7.91-1.92a12.47,12.47,0,0,0-1.39.09,5.72,5.72,0,0,1-2.8-.25c-3.51-1.13-11.22-6.14-11.71-7.94,0-.15,0-.2,0-.22a.37.37,0,0,0,.09-.29,52.55,52.55,0,0,1-.29-5.64c0-3.66.59-6,1.57-6.54l4.53-2.54.78-.44,0,0a.38.38,0,0,1-.45-.29l-.06-.28-.59.33-.73.41,0,.23a.38.38,0,0,1-.32.42h0a.38.38,0,0,1-.36-.26l-3.11,1.75c-1.26.72-1.91,3.13-1.95,7.18a53.65,53.65,0,0,0,.28,5.59,1,1,0,0,0-.07.76c.63,2.31,9.06,7.44,12.2,8.45a6.41,6.41,0,0,0,3.11.28c1.43-.15,3.21-.34,9,1.79a24.41,24.41,0,0,0,8.45,1.42,31.37,31.37,0,0,0,4.77-.37,30.25,30.25,0,0,0,6.15-1.57h0c.78-.38,19.14-9.25,21.85-10.79a2.33,2.33,0,0,0,1.31-2.42h0a.38.38,0,0,1-.15-.72l.06,0a11.6,11.6,0,0,0-.53-1.43,3.57,3.57,0,0,1-.46-1.63c.12-.48-.06-1.51-2.55-5.24-1.69-2.52-3.54-4.94-3.75-5.21-1.27-1.65-6-1.61-9.78-1.58h-1.3c-2,0-4-1.94-5.85-3.82a15.83,15.83,0,0,0-4.05-3.29c-2.88-1.3-6.29.88-8.54,2.32-.4.25-.77.49-1.1.69a2.31,2.31,0,0,1-3-.23"/><path class="cls-4" d="M575.11,171.59l.14.15c.36-.93,1.77-4.57,2.23-5.64a6.5,6.5,0,0,1,3.46-2.61.37.37,0,0,1-.31-.19s-.1-.18-.2-.42a6.89,6.89,0,0,0-3.63,2.93c-.47,1.09-1.87,4.71-2.24,5.66h.24A.37.37,0,0,1,575.11,171.59Z"/><path class="cls-4" d="M581.2,163.4a6.33,6.33,0,0,1,1.91-.31H584c2.84,0,6.72,0,8.33-1.24,1.24-1,3.05-1.06,5.4-.2s3.39,1.67,4,2.47a.37.37,0,0,1,0-.16,7.07,7.07,0,0,1,.15-.84,7.7,7.7,0,0,0-2.18-1.49l-.13.33a.38.38,0,0,1-.7-.28l.14-.35c-.37-.15-.71-.28-1-.37a7.41,7.41,0,0,0-4.78-.4,4.29,4.29,0,0,0-.71.3,4.2,4.2,0,0,0-.64.42,5.87,5.87,0,0,1-2.78.89l-.86.09c-1.39.11-2.92.11-4.21.1h-.85a6.55,6.55,0,0,0-.76,0,7.44,7.44,0,0,0-1.21.25c.08.19.14.3.14.3A.38.38,0,0,1,581.2,163.4Z"/><polygon class="cls-3" points="421.43 287.39 423.95 285.98 423.95 280.31 421.43 281.5 421.43 287.39"/><path class="cls-3" d="M420.08,257.93l.11,4.52,1.58-.57c7.67-3.25,22.38-9.53,23.26-10.09a2.37,2.37,0,0,0,1.1-1.45l-.09-3.53c0-.41-.11-.57-.15-.59h0a.57.57,0,0,0-.25.08l-.07,0-1.54.58c-.21.09-22,9-23.17,9.5a1.45,1.45,0,0,0-.74,1.49Z"/><path class="cls-3" d="M421.09,251.28a4.32,4.32,0,0,1,.39-5,3,3,0,0,1,.58-.51,3.3,3.3,0,0,0-1.29,0c-.7.18-1.31,1.68-1.31,3.21a3.26,3.26,0,0,0,.76,2.11Z"/><path class="cls-3" d="M421.25,248.76a2.72,2.72,0,0,0,1.32,2.86l.4.09c1.07.08,2-1.07,2.19-2.59s-.62-2.85-1.7-2.95h-.13a1.75,1.75,0,0,0-1.29.65A3.38,3.38,0,0,0,421.25,248.76Z"/><path class="cls-3" d="M446.47,256.7h0a.54.54,0,0,0-.24.09l-.07,0-1.54.61c-.21.09-22.13,9.47-23.27,10-.89.4-.75,1.58-.75,1.6v0l.12,4.79,1.58-.6c7.7-3.42,22.47-10,23.36-10.62a2.47,2.47,0,0,0,1.11-1.54l-.09-3.73C446.62,256.89,446.52,256.72,446.47,256.7Z"/><path class="cls-5" d="M450.93,155a16.62,16.62,0,0,1,1.72-2.32,9.65,9.65,0,0,1,5.11-3.25v-2.94h0l-4.54-1.53a.38.38,0,0,1-.26-.36v-5.09a.66.66,0,0,0,.94-.45l7.24-3.57a.38.38,0,0,1,.23,0l6.57,1.22a.31.31,0,0,0,.5-.19.38.38,0,0,1,.38.38v4.93a.38.38,0,0,1-.19.33l-.87.49-3.33,1.95c0,.12,0,1.57,0,3,0,1.64,0,2.44,0,2.84a13.52,13.52,0,0,1,3.72,2.48c3.33,3.13,5.2,7.87,5.54,14.11h0c.23,10.1-.13,34.76-.47,53.75l4.25-2.35a.37.37,0,0,1,.23-.13l1.37-.76,2.08-103.39c-4.42,1.78-29.53,12.7-29.8,12.82l-.08,0a2.58,2.58,0,0,1,0,.5c0,1.64-.29,15.38-.31,16.58a.67.67,0,0,1,0,.22.65.65,0,0,1,0,.19Z"/><path class="cls-3" d="M417.7,283.22a.38.38,0,0,1-.18,0h-.2a1.37,1.37,0,0,1-.8-.24h0v1.4a.37.37,0,0,1,0,.15c0,.07-.15.5.51.87l3.69,2v-5.53l-2.81,1.33A.37.37,0,0,1,417.7,283.22Z"/><path class="cls-3" d="M473,167.68a32.16,32.16,0,0,1-6.69,3.18c-5.64,1.91-10.94,1.81-15.33-.29a.37.37,0,0,1-.15-.13c-.18,24.09-.45,58.95-.6,78.93.67.38,6.23,3.48,11,2.79,5.2-.74,10.43-5,10.73-6.78C472,243.82,473.33,185.72,473,167.68Z"/><path class="cls-5" d="M449.9,145.22l-30.78,14.2a18.69,18.69,0,0,1-4,1.38v43.48l17.75-7a1,1,0,0,1,.94.12c.49.33.73,1.07.73,2.2v30.7c.07.45.31,2.35-.65,2.9-.77.44-15.21,7.17-17.26,8.12v40.2a1.13,1.13,0,0,0,.35.83,1.09,1.09,0,0,0,1,0l.08,0,6-2.83a.37.37,0,0,1,.31-.17h0l22.24-10.48.07,0a3.75,3.75,0,0,0,2.68-3.86c0-3.32.81-108.43.9-119.82A3,3,0,0,1,449.9,145.22ZM420.58,245a6.53,6.53,0,0,1,3,.4c1.46.17,2.5,1.84,2.32,3.76s-1.42,3.28-2.83,3.28h-.19a2.11,2.11,0,0,1-.51-.11l-2.42-.55a.37.37,0,0,1-.18-.1,4,4,0,0,1-1.05-2.72C418.72,247.3,419.37,245.35,420.58,245Zm-1.13,18-.13-5a2.69,2.69,0,0,1,.06-.87,1.92,1.92,0,0,1,1.13-1.39c1.14-.49,22.3-9.14,23.2-9.5l1.51-.57a1.09,1.09,0,0,1,1-.08,1.32,1.32,0,0,1,.55,1.24l.09,3.57a.37.37,0,0,1,0,.06,3,3,0,0,1-1.45,2c-1.16.74-22.48,9.77-23.38,10.16h0l-2.08.75-.13,0a.38.38,0,0,1-.37-.37Zm28-1.85a3.19,3.19,0,0,1-1.44,2.1c-1.16.77-22.57,10.28-23.48,10.68h0l-2.08.79-.13,0a.38.38,0,0,1-.37-.37l-.13-5.3a2.3,2.3,0,0,1,1.18-2.36c1.15-.52,22.39-9.61,23.29-10l1.52-.6a1.07,1.07,0,0,1,1-.1c.36.19.56.62.57,1.3l.09,3.76A.37.37,0,0,1,447.48,261.14Z"/><path class="cls-3" d="M387.6,161.08l1.08.46a88.89,88.89,0,0,0-.78-9.21.37.37,0,0,1-.1-.63c-.53-3.4-1.36-6.6-2.65-8.55a8,8,0,0,1-1,.67,35.82,35.82,0,0,1,2.6,7.64.37.37,0,0,1,.05.24c.21,1,.38,2,.51,3.07C387.48,156,387.56,158.28,387.6,161.08Z"/><path class="cls-3" d="M379.46,163.61c1.82,1.14,3.64,2.33,3.65,2.34a2,2,0,0,0,1.56.39,1.14,1.14,0,0,0,.58-.93,46.35,46.35,0,0,0,0-7.57.25.25,0,0,1,0-.06c0-.24.08-.91-.21-1.18a.68.68,0,0,0-.65-.1c-1.35.3-3.42.92-3.74,1A6.11,6.11,0,0,1,377,159a4.33,4.33,0,0,1-1-.12l-.07,2.68c.22.1.52.27.94.52C377.54,162.41,378.4,162.94,379.46,163.61Z"/><path class="cls-3" d="M399.95,60.39a1.06,1.06,0,0,0,.56-.7c-.27-1.49-4.14-22.46-6.79-37a.37.37,0,0,1-.07-.37l-.33-1.78a.36.36,0,0,1-.07-.39c-1.08-5.92-1.88-10.34-2-11.11-.17-1.1,0-1.78.45-2.1a1.54,1.54,0,0,1,1.51.1l12.58,3.39a.37.37,0,0,1,.3.08c18.12,4.87,40.14,10.74,41.16,10.85a.14.14,0,0,0,.11-.06,2.76,2.76,0,0,0,.12-1.59c-3.9-1-54.05-14.3-56.54-14.85a1.79,1.79,0,0,0-1.57.19A1.56,1.56,0,0,0,389,6.2L398,59.77C398.86,60.34,399.51,60.56,399.95,60.39Z"/><path class="cls-3" d="M375.88,158.3a4.74,4.74,0,0,0,4.44-1.11l-.92-12.43a7.39,7.39,0,0,1-2.12-.64,8.29,8.29,0,0,1-.75-.37,6.19,6.19,0,0,1-.86,2.85,9.63,9.63,0,0,1-.8,1.24l-.46.6.11,9A2.85,2.85,0,0,1,375.88,158.3Z"/><path class="cls-3" d="M396,209.59l0,.06c0,.15,4.31,13.81,8,20.29q.33-6.93.49-13.17l-.17-.18c-3.54-3.61-5.74-7.37-6.56-11.21C397.23,207,396.6,208.38,396,209.59Z"/><path class="cls-3" d="M375.22,161.55l.07-2.79a2.62,2.62,0,0,0-1.64-.73.24.24,0,0,0-.24.07c-.42.43-.37,2.14-.2,3.29A1.73,1.73,0,0,0,375.22,161.55Z"/><path class="cls-3" d="M391.74,185.93a.25.25,0,0,1,0-.06,40.52,40.52,0,0,1,.91-15.41,27.74,27.74,0,0,1,2-5.53l-5.45-2.33c0,1.12,0,2,0,2.62,0,3.58-.49,22.65-.56,25.69Z"/><path class="cls-3" d="M392.15,185.26l4-6.46,2.21-7.3.76-4.68-4-1.7C394.48,166.37,390.86,174,392.15,185.26Z"/><path class="cls-6" d="M433.76,232l-8.88-4.48-16.82,8.22h0a1.55,1.55,0,0,0,.74,1.09c1.37.87,6.49,3.34,7.46,3.81,5.79-2.69,16.63-7.76,17.26-8.11A.78.78,0,0,0,433.76,232Z"/><path class="cls-3" d="M450.82,170a.37.37,0,0,1,.47-.13c2.93,1.41,7.86,2.6,14.74.27A31.34,31.34,0,0,0,473,166.8c-.36-5.93-2.14-10.43-5.29-13.39a12.49,12.49,0,0,0-6.68-3.27c-.71-.09-1.39-.13-1.9-.14-1.43,0-3.6.59-5.87,3.14a15.51,15.51,0,0,0-2.16,3.14.37.37,0,0,1-.13.15Z"/><path class="cls-3" d="M482.43,231.67a9.73,9.73,0,0,1,.42,2.84,9.18,9.18,0,0,1-2.66,6.48,7.52,7.52,0,0,1-5.16,2.59h-.35a5,5,0,0,1-1.79-.46l-.12,2a7.2,7.2,0,0,0,4.59-.21c2.88-1.27,5.9-3,6.42-6.29s.44-7-.66-8.4C482.88,230.79,482.64,231.27,482.43,231.67Z"/><path class="cls-3" d="M486.32,228.51c1.63-2.64,2-6.21,2.07-9l-1.74,1.13a.37.37,0,0,1-.2.06l-.13,0a2.52,2.52,0,0,1-1,.35h0a.38.38,0,0,1-.17,0l-.33-.17a18.93,18.93,0,0,1-1.3,8.62,3.37,3.37,0,0,1,.79,1.24A6.23,6.23,0,0,0,486.32,228.51Z"/><path class="cls-3" d="M459.22,149.25a12.33,12.33,0,0,1,2,.17l.56.09,0-3.47-.78.42a3.44,3.44,0,0,1-1.55.36,3.8,3.8,0,0,1-.94-.12v2.54h.71Z"/><path class="cls-3" d="M490.31,218.3l-1.16.75c.06,10.12-4.48,12.28-4.67,12.37h0a11.07,11.07,0,0,1,.32,1.9,17.15,17.15,0,0,0,6.33-10.53,15.89,15.89,0,0,0,.06-5Z"/><path class="cls-6" d="M479.55,110.86l7.53,1.46,12.13-5.14L463.12,99.8v7.69l16.35,3.35Z"/><path class="cls-3" d="M459.74,140.42a.36.36,0,0,1,.37,0,2.77,2.77,0,0,0,.9-.23c.75-.34,4.1-2.11,5.76-3l-5.4-1-6.23,3.07,4.14,1.12A2.55,2.55,0,0,0,459.74,140.42Z"/><path class="cls-5" d="M488.32,114c0,1.38-1.09,103.58-1.09,105a2.18,2.18,0,0,1,0,.36l1.23-.8a.37.37,0,0,1,.15-.17l1.33-.79,7.65-5,2.51-105.09-12.15,5.15A2,2,0,0,1,488.32,114Z"/><path class="cls-3" d="M473.28,221.56l-.06,0c-.1,5.48-.2,10.45-.28,14.41a14.17,14.17,0,0,0,5.75-3.4,12.08,12.08,0,0,0,1.84-2.85,12.62,12.62,0,0,1-3.27-10.39Z"/><path class="cls-3" d="M483.93,220.43l-.85-.44a18.75,18.75,0,0,1-1,8,.37.37,0,0,1,0,.25l-.1.17a14.75,14.75,0,0,1-2.67,4.68,15,15,0,0,1-6.32,3.68l0,1.42c1.25-.34,6-1.86,8.19-5.74l0,0s.21-.32.5-.85a.37.37,0,0,1,.21-.47h0A19,19,0,0,0,483.93,220.43Z"/><path class="cls-3" d="M458.39,145.87h0a3,3,0,0,0,1.13.18v-4.89a2.92,2.92,0,0,1-.48-.07l-5.1-1.38a.37.37,0,0,1-.26-.26v4.84Z"/><path class="cls-3" d="M479.46,218.14l-1.37.76a12.17,12.17,0,0,0,2.66,10l.44-.74,0-.09a11.39,11.39,0,0,1-1.58-9.83Z"/><path class="cls-3" d="M472.88,239c0,1.23,0,2.31-.07,3.22.39.27,3.24,2,6.83-1.74a8.56,8.56,0,0,0,2.25-7.87l-.16.25C479.26,237.28,473.81,238.77,472.88,239Z"/><path class="cls-3" d="M482.29,219.72l0-.14-1.93-1a10.64,10.64,0,0,0,1.21,8.57A17.55,17.55,0,0,0,482.29,219.72Z"/><path class="cls-3" d="M462.57,149.66a7.87,7.87,0,0,1,1.13.36c0-1,0-3.19,0-4.89l-1.16.59Z"/><path class="cls-3" d="M468.08,141.54v-4.21h0c-.23.13-5.73,3.07-6.75,3.53a3.49,3.49,0,0,1-1,.28v4.78a2.59,2.59,0,0,0,.36-.14c1.28-.64,6.68-3.82,6.73-3.85Z"/><path class="cls-3" d="M388.18,191.21c0-1.39.57-22.25.57-26,0-.56,0-1.55,0-2.83l-1.1-.47c.08,10.28-.4,27-.53,31Z"/><path class="cls-3" d="M372,201.67a1.14,1.14,0,0,0,.78,1c.91.36,5.91,2.6,6.75,3l6.76-11,.29-3.53-9.1-2.91h-.11l-.7-.25-4.27-1.37Z"/><path class="cls-3" d="M377.27,187.68l.15-2.43a6.54,6.54,0,0,1-1.57-.5l0,2.43,1.07.38Z"/><path class="cls-3" d="M377.92,185.33l-.16,2.51.75.24.19-2.72h-.11A6.43,6.43,0,0,1,377.92,185.33Z"/><path class="cls-3" d="M385.15,177c0-4.21-2.94-7.63-6.56-7.63S372,172.77,372,177s2.94,7.63,6.56,7.63S385.15,181.19,385.15,177Zm-6.78,6.68c-3,0-5.48-3-5.48-6.6s2.46-6.6,5.48-6.6,5.48,3,5.48,6.6S381.38,183.65,378.36,183.65Z"/><ellipse class="cls-3" cx="378.36" cy="177.06" rx="4.98" ry="6.1"/><path class="cls-3" d="M373.12,157.39c-1.08-.49-2.73-1.25-3.76-1.69a2.61,2.61,0,0,0-2.3-.14,2,2,0,0,0-.77,1.66c0,.35,0,.73-.05,1.12a.25.25,0,0,1,0,.17l-.06.67c0,1.62.09,3.15.1,3.41a1.51,1.51,0,0,0,.7.77,1.28,1.28,0,0,0,1,0c1.24-.5,3.62-1.6,4.42-2-.12-.86-.33-3,.42-3.78A1,1,0,0,1,373.12,157.39Z"/><path class="cls-3" d="M385.91,160.49l0-.1,1.14.49c0-2.68-.11-4.83-.26-6-.11-1-.27-1.92-.46-2.81l-.06,0-6.05-2.33.54,7.3c.68-.2,2.36-.69,3.52-1a1.15,1.15,0,0,1,1.1.22,2,2,0,0,1,.36,1.6C385.8,158,385.87,159.14,385.91,160.49Z"/><path class="cls-3" d="M400.84,189.26l.75,0c.16,4.76-1.56,10.55-3.39,15.28.65,3.95,2.8,7.83,6.41,11.56.71-29.5-1.22-46.73-1.25-46.88l0-.25c-.14-.85-.4-2.43-1-2.63a5.75,5.75,0,0,0-2.68.54l-.77,4.75v0L396.6,179l0,.06c-14.2,23.08-22.1,35.89-23.53,38.18,3.07.7,6.72,4.81,8.36,7.34a44.42,44.42,0,0,1,2.43,4.22c1.65-2.6,8.47-13.36,10.09-16.52C395.61,208.94,401.12,197.48,400.84,189.26Z"/><path class="cls-7" d="M340.65,278.84c-.15.63-.32,1.28-.53,2a11.06,11.06,0,0,1-5.17,6.19,2.34,2.34,0,0,1-1.18.34,2.13,2.13,0,0,1-1.37-.54l-3.51,3.53a16.92,16.92,0,0,1,4.38,3.21,5.35,5.35,0,0,0,3.68,1.8h0a4.44,4.44,0,0,0,3.17-1.57,49.67,49.67,0,0,0,4.34-6.07L342.66,277l-1.93,1.84Z"/><path class="cls-3" d="M363.77,158.09c-1.46,3.11-5,17.68-7,26.13L361,171.79h0l4.58-11.52.1-1.1q0-.23,0-.46l-.47-.07A4.38,4.38,0,0,1,363.77,158.09Z"/><path class="cls-3" d="M399.88,254.45a.71.71,0,0,1,.31,0c.53-.42.88-.72,1-.86C402.69,248,404,232.3,404,232.14q0-.65.07-1.29c-3.47-5.62-7.53-18.07-8.33-20.59-.46,1-.86,1.78-1.15,2.35-.67,1.3-2.17,3.82-3.83,6.53a35.11,35.11,0,0,1,.78,5.59c.36,1.79-1,27.08-1.37,32.1-.07.88-.16,2.05-.26,3.41l1.56-.58a36.8,36.8,0,0,0,8.13-4.71.37.37,0,0,1,.3-.5Z"/><path class="cls-3" d="M415.84,241.3c-1.11-.53-6.09-2.93-7.49-3.82a2.55,2.55,0,0,1-.88-3.2v-31a1.26,1.26,0,0,1,.49-1.11,1.88,1.88,0,0,1,1.56-.09h0l4.78,2.13V160.93a9.76,9.76,0,0,1-1.36.1,4.86,4.86,0,0,1-2.1-.37l-22.44-8.12q.12.86.23,1.78c.31,2.71.46,5.36.53,7.45l10.11,4.32a.25.25,0,0,1,.18,0l.06,0a5.8,5.8,0,0,1,3-.47c1.08.34,1.36,2.07,1.55,3.22l0,.25c0,.17,2.48,22.07.86,58.73,0,1.16-.07,2.33-.1,3.46a.25.25,0,0,1-.07.17l0,.78c-.05.67-1.34,16.1-2.84,21.74l0,.11-.08.07s-.36.33-1,.84c1,1.24,2,5.48.37,19.35l14.67,7.37c0-.1,0-.16,0-.17Z"/><path class="cls-3" d="M342.69,276.23l12.09-11.53.28-.66a2.17,2.17,0,0,0-.08-1.82,2.53,2.53,0,0,0-1.48-1l-6.5,5.32-2.12,2.23a19.44,19.44,0,0,0-2.44,3.73,17,17,0,0,0-1.42,4.64l-.18.88,1.78-1.7Z"/><path class="cls-3" d="M372.61,217.66h-.1c-2.22,0-3.55,2.81-4.26,4.32-.13.27-.24.51-.34.69a12.06,12.06,0,0,0-1,3.45,3.3,3.3,0,0,0,1.29.72h0v0a9.14,9.14,0,0,1,3.24,1.68,12.08,12.08,0,0,1,4.32,7.4,1.14,1.14,0,0,0,1.26.37l.38-.1c1.44-.34,4.8-1.14,5.92-6.58a41.59,41.59,0,0,0-2.62-4.63c-1.74-2.69-5.43-6.66-8.16-7.06l0-.23Z"/><path class="cls-3" d="M389.38,232.35c0-.07.09-7.39-.54-10.14-2.26,3.64-4.37,6.94-4.71,7.47-1.21,6-5,6.87-6.49,7.21l-.35.09a2.12,2.12,0,0,1-.58.08,1.89,1.89,0,0,1-1.24-.47l-18.93,19.9a43.86,43.86,0,0,0,8.62,3.32,49.12,49.12,0,0,0,22.59.84C388.53,247.46,389.36,232.61,389.38,232.35Z"/><path class="cls-3" d="M346.79,284a12.42,12.42,0,0,1,2.34-3.56,13.14,13.14,0,0,1,8.51-4.19c3.39-.34,6.85,1.67,10,5.82a33.46,33.46,0,0,1,3.73,6.39,7.8,7.8,0,0,0,1.7,2.4,7.63,7.63,0,0,0,6,2.12c5.49-.32,6.84-7.31,7.38-12.54.19-1.82.7-10,1.24-19a48.43,48.43,0,0,1-9.39.92,50.66,50.66,0,0,1-13.37-1.81,43.31,43.31,0,0,1-8.93-3.47l-6.22,6.54,3.51-2.87a.25.25,0,0,1,.2-.05,3.08,3.08,0,0,1,1.93,1.28,2.64,2.64,0,0,1,.12,2.24v0l-.31.72a.25.25,0,0,1-.06.08L343.1,276.53l1.81,10.54C345.92,285.45,346.69,284.17,346.79,284Z"/><path class="cls-3" d="M345.79,143.13l-1.09.44c.18,1.08.72,3.14,1.74,3.6,1.49.66,9.41,3.83,9.49,3.86a1.66,1.66,0,0,0,1,.15.14.14,0,0,0,.08-.09l0-.06h0a2.32,2.32,0,0,0,.41-1.71,1.75,1.75,0,0,0-1.12-1.07l-5.58-1.63a5,5,0,0,1-3.34-4Z"/><path class="cls-3" d="M421.32,221.83l.25.06a1.11,1.11,0,0,0,.9-.42,2.3,2.3,0,0,0,.54-1.32c.09-1-.42-1.91-1.11-2h-.08c-.67,0-1.28.78-1.37,1.75A1.85,1.85,0,0,0,421.32,221.83Z"/><path class="cls-3" d="M425.64,227.07l8.18,4.13a5.6,5.6,0,0,0-.07-.82.37.37,0,0,1,0-.06V199.59c0-1.16-.28-1.48-.39-1.57a.29.29,0,0,0-.26,0l-6.28,2.48a.37.37,0,0,1,0,.1v24.65A2.52,2.52,0,0,1,425.64,227.07Z"/><path class="cls-3" d="M414.85,205.18l-.08,0h-.21l-5.3-2.36a1.17,1.17,0,0,0-.86,0,.57.57,0,0,0-.17.49v31a.37.37,0,0,1,0,.16,2.35,2.35,0,0,0-.13.39l16.65-8.13c.38-.19,1.37-.85,1.37-1.56V200.74l-11.24,4.44Zm5,12a4.74,4.74,0,0,1,2.19.28,2.41,2.41,0,0,1,1.73,2.78A3.05,3.05,0,0,1,423,222a1.87,1.87,0,0,1-1.39.68h-.15a1.6,1.6,0,0,1-.37-.08l-1.73-.39a.38.38,0,0,1-.18-.1,2.93,2.93,0,0,1-.78-2C418.43,218.81,418.92,217.38,419.84,217.14Z"/><path class="cls-3" d="M420,221.53a3.09,3.09,0,0,1-.31-1.69,2.93,2.93,0,0,1,1-2,1.8,1.8,0,0,0-.63,0c-.44.12-.85,1.15-.85,2.18a2.25,2.25,0,0,0,.49,1.41Z"/><path class="cls-3" d="M379.91,144.81l.3,4,.08,0,5.91,2.27a35.1,35.1,0,0,0-2.46-7.09,7.35,7.35,0,0,1-3.29.78Z"/><path class="cls-3" d="M347.85,142.33a4.42,4.42,0,0,0,3,3.82l5.22,1.52-.32-1.85a9.71,9.71,0,0,1-2.49-1,1.21,1.21,0,0,1-.5-.71.25.25,0,0,1,0-.12v-.1h0a5.41,5.41,0,0,1,.1-2c0-.23.08-.47.14-.71s.18-.65.34-1.09l-5.44,2.18Z"/><path class="cls-3" d="M353.31,142a9,9,0,0,0-.1,1.84.84.84,0,0,0,.32.57,9.58,9.58,0,0,0,2.48,1c2.07.12,2.49-.25,2.89-.6a2,2,0,0,1,.71-.46A.58.58,0,0,0,360,144a1.11,1.11,0,0,0-.07-.77c0-.06-2.6-5.83-3.33-7.37-.3-.64-.53-.69-.59-.69s-.26.17-.29.23-.48,1.12-.95,2.29a19.65,19.65,0,0,1-1,2.85A6.1,6.1,0,0,0,353.31,142Z"/><path class="cls-3" d="M385,128.77a4.36,4.36,0,0,0-1.27-.8A7.87,7.87,0,0,1,385,128.77Z"/><path class="cls-3" d="M372.43,138.51a.91.91,0,0,0,.13-.24q-.06-.21-.1-.41Z"/><path class="cls-3" d="M372.66,132.9v0Z"/><path class="cls-8" d="M351.72,134.56c1.4-.14,2.55,1.22,3,1.87l.52-1.25v0a.93.93,0,0,1,.73-.5h0c.38,0,.72.33,1,1,.73,1.54,3.3,7.31,3.33,7.37a1.62,1.62,0,0,1,.08,1.17,1.06,1.06,0,0,1-.66.6,1.58,1.58,0,0,0-.55.36,3.07,3.07,0,0,1-2.5.75h-.46l.34,2a2.15,2.15,0,0,1,1.3,1.35,2.65,2.65,0,0,1-.38,2l2.05,2.68a.25.25,0,0,1,0,.11,1.66,1.66,0,0,0,.81,1c.63.37,1.88.65,4.27-.12a19.11,19.11,0,0,0,9.2-6.58.25.25,0,0,1,.06-.17,9.48,9.48,0,0,0,1.33-1.88,5.51,5.51,0,0,0,.66-2.67c0-.06,0-.11,0-.16a9.91,9.91,0,0,1-3.22-4.47.86.86,0,0,1-.59.29.25.25,0,0,1-.25-.26l.51-12c0-.26-.08-1.08-.43-1.31a3.8,3.8,0,0,0-.77.13,32.34,32.34,0,0,1-3.64,1.16l-.14,0h0c-.44.12-1.22.28-1.45-.1s.1-.68.38-1c0,0,.85-.93,1.91-1.91h0l.2-.2-.35,0-.22,0a15.86,15.86,0,0,1-3.3,1.24l-.41.1c-1.71.48-3.61.91-5.39,1.27a60.66,60.66,0,0,1-6,1.07l.53.63a.25.25,0,0,1,0,.26c-1.19,2.61-2.19,5.63-1.8,6.17C351.59,134.53,351.62,134.57,351.72,134.56Z"/><ellipse class="cls-3" cx="381.98" cy="135.91" rx="4.05" ry="4.5"/><path class="cls-6" d="M385.53,142.82c1.21,1.8,2.14,4.77,2.78,8.87L411.15,160l.05,0a5.6,5.6,0,0,0,3.13.18V160a.38.38,0,0,1,.75,0V160a18.11,18.11,0,0,0,3.73-1.29l30.81-14.21.06,0a1.76,1.76,0,0,0,.58-.27v0a3.17,3.17,0,0,0-1.22-.58c-2.89-.94-57.08-17.94-60.31-18.95l-.36.58c-.67,1-.74,1.16.26,2.7a5,5,0,0,1,.39,4.43,8.61,8.61,0,0,1-.75,1.65,9.69,9.69,0,0,1,.2,2A9.19,9.19,0,0,1,385.53,142.82Z"/><path class="cls-3" d="M352.24,127.54c-.47.06-1.35-.46-2.63-1.55a9.46,9.46,0,0,1-1.68-1.89v11.28l3.14-.77c-.42-1.27,1.28-5.2,1.78-6.33Z"/><path class="cls-3" d="M374,132.17a9.15,9.15,0,0,0-.88,4.51,4.78,4.78,0,0,1,0,1.3,8.19,8.19,0,0,0,4.32,5.67,7.77,7.77,0,0,0,2.19.62l.1,0a6.77,6.77,0,0,0,3.76-.69.25.25,0,0,1,.11-.31l1.43-.76.08,0A8.68,8.68,0,0,0,388,136a9.23,9.23,0,0,0-.11-1.39.25.25,0,0,1-.36-.2,11.94,11.94,0,0,0-.64-2.75,7.48,7.48,0,0,0-5.77-4A9.53,9.53,0,0,0,374,132.17Zm12.53,3.74a4.57,4.57,0,1,1-4.55-5A4.79,4.79,0,0,1,386.53,135.91Z"/><path class="cls-3" d="M481.92,113.81l-2.08,103.68,2.54,1.3a.37.37,0,0,1,.56.26v0l2.36,1.21a1.28,1.28,0,0,0,1.18-1.23c0-1.46,1.08-104,1.09-105h0s0-.83-.52-.93l-4.59-.89a1,1,0,0,1,.28.66C482.74,113.24,482.46,113.56,481.92,113.81Z"/><path class="cls-3" d="M322.61,151.87l.26-.1.08,0h0l21.16-8.46a.25.25,0,0,1,.18-.21l1.29-.37,7.69-3.08a.25.25,0,0,1,.17,0c.24-.66.53-1.4.8-2.07l.17-.58c-.26-.4-1.39-2-2.69-1.87a.71.71,0,0,1-.3,0h0l-3.65.9-.09,0-16.31,4a10.1,10.1,0,0,1,2.11,1.63h0a4.17,4.17,0,0,1,.91,2.73,2.57,2.57,0,0,1-1,1.77c-2.11,1.65-4.94,3-5.67,3a3.31,3.31,0,0,1-2.63-2.29l-.06-.17c-.45-1.35-1.57-4.76-4.29-5.5a.25.25,0,0,1-.17.13l-16.24,3.28c1.63.42,4,1.73,4.7,5.76.71,4.32-.45,6.83-1.31,8,2.71-1.16,10.26-4.44,14.84-6.43Z"/><path class="cls-3" d="M305.88,150.75a6.84,6.84,0,0,0-1.24-2.62,9.92,9.92,0,0,0-2.64-1.76,3.47,3.47,0,0,0-.43-.09l-24.94,5.2a10.06,10.06,0,0,1,1.84,1,9.58,9.58,0,0,1,4,6.61,12.71,12.71,0,0,1-1.53,9l23.49-9.87A9.41,9.41,0,0,0,305.88,150.75Z"/><path class="cls-5" d="M308.52,150.4c-.4-2.44-1.49-4.11-3.24-5a5.56,5.56,0,0,0-2.4-.57l-.74.79a6.31,6.31,0,0,1,4.47,4.92,10,10,0,0,1-1.37,7.83l1.48.32C307.16,158.32,309.44,155.95,308.52,150.4Z"/><path class="cls-5" d="M281.73,159.23a8.83,8.83,0,0,0-6.63-7.45h0a1.72,1.72,0,0,0-1,.15l-.89.69a15.67,15.67,0,0,1,2.76,1c2.42,1.19,3.83,2.84,4.09,4.75.06.44.12.86.18,1.26.51,3.51.88,6.07-2.34,9.5l.64.33a1.39,1.39,0,0,0,1-.33.37.37,0,0,1,.08-.43S282.72,165.55,281.73,159.23Z"/><path class="cls-3" d="M363.44,157.65a.48.48,0,0,0-.33-.27c-.17,0-.66.06-1.48,1.28-.27.41-1.17,1.87-2.4,3.89-5.16,8.44-17.19,28.09-20.93,31.52.05.11.15.3.24.48.18.34.43.81.7,1.41a15.61,15.61,0,0,1,1.83,5.8,25.8,25.8,0,0,1,.33,6.53c0,.25,0,.49,0,.7,1.54-1.25,6.91-6.45,10.34-9.84L355.19,189C356.49,183.31,361.65,161,363.44,157.65Z"/><path class="cls-3" d="M279.42,159.76c-.06-.41-.12-.83-.18-1.27-.51-3.81-6.23-5.17-6.95-5.32l-29,6.79c4.46,1.21,7.81,6.13,7.81,12a13.57,13.57,0,0,1-3.5,9.33L277,168.95C280.27,165.63,280,163.41,279.42,159.76Z"/><path class="cls-3" d="M340.57,201.82a23.5,23.5,0,0,0-1.72-5.5,18.17,18.17,0,0,0-1.47-2.39,3.44,3.44,0,0,0-1.93-.25,1.11,1.11,0,0,0-.84.38.87.87,0,0,0-.13.62c.07.18.57,1.45.79,2s.54,1.32.26,5.54a24.57,24.57,0,0,1-3,9.86c-1,1.57-2.06,1.55-2.1,1.55a.25.25,0,0,1-.16-.07L329,212.43a2.13,2.13,0,0,0,1,2.17,6.37,6.37,0,0,0,5.25,1.21c2.38-.57,5.17-4.71,5.46-5.61a3.08,3.08,0,0,0,.11-.57.27.27,0,0,1,0-.15v0c0-.4.08-.79.11-1.18,0-1.44-.1-3.58-.32-6.4Z"/><path class="cls-8" d="M330.51,213.11a2.41,2.41,0,0,0,1.58-1.3,24,24,0,0,0,3-9.63c.27-4.11,0-4.75-.22-5.31s-.8-2-.8-2v0a1.38,1.38,0,0,1,.2-1h0a.25.25,0,0,1-.23-.18,66.25,66.25,0,0,0-3.5-9.66c-.94-2.19-1.91-4.45-2.89-7.44-1.81-5.49-2.79-13.32-3.27-17.08-.12-.92-.2-1.59-.25-1.87-.22-1.19-.64-4.2-.77-5.19a31,31,0,0,0-3.07,1.37c-.42,5.69,2.36,23.51,4.2,35.31.73,4.65,1.3,8.32,1.48,10a66,66,0,0,0,3.18,12.83Z"/><path class="cls-3" d="M347.43,135.51V123.34a.25.25,0,0,1,0,0,10,10,0,0,1-.87-2,2.69,2.69,0,0,1,.85-3.23.25.25,0,0,1-.07-.17l.08-18.61a3.7,3.7,0,0,1-1.7.36,3.78,3.78,0,0,1-1.66-.33l.33,37Z"/><path class="cls-5" d="M347,121.1l0,0a10.07,10.07,0,0,0,2.89,4.47c1.63,1.38,2.14,1.44,2.23,1.43h0l0,0h.06c.06,0,3.19-.46,6.75-1.19,1.53-.34,3-.69,4-1l.91-.22a21.69,21.69,0,0,0,3.77-1.36l.06,0h0c.5-.1,1-.15,1.18.12l0,.06a.35.35,0,0,1,0,.12h0a.37.37,0,0,1,0,0,.41.41,0,0,1,0,0h0a1.15,1.15,0,0,1-.45.63h0c-.1.1-.79.74-1.84,1.83a.37.37,0,0,0,0,.28c.07.07.25.08.49,0l.17,0c.3-.08.74-.24,1.23-.41.95-.33,1.74-.59,2.37-.74l.18-.08a1.29,1.29,0,0,1,.54-.13.87.87,0,0,1,.38.08.58.58,0,0,1,.49.29,4,4,0,0,1,.42,2.63,24.9,24.9,0,0,0,.07,4.33,8.4,8.4,0,0,1,4.72-4.72,22.06,22.06,0,0,0-3.74-9.13,15.13,15.13,0,0,0-5.27-4.5,14.69,14.69,0,0,0-6.72-1.66.25.25,0,0,1-.21-.1c-6.64,2.59-12.44,5.26-13.65,5.86A2.2,2.2,0,0,0,347,121.1Z"/><path class="cls-5" d="M380.07,119.5a19,19,0,0,1,1.3,7.67l.19,0c2.39-.17,4.26,1,5.42,3.48.13.28.25.56.35.83a9.25,9.25,0,0,1,.76,1.86c.59-1.17,1.3-3.27.13-5.08s-1-2.07-.26-3.24l.39-.62a.37.37,0,0,1,.26-.45,19.05,19.05,0,0,0,1.38-3.24,3,3,0,0,0-.15-2.82c-1.2-1.65-4.73-1.64-7.31-1.63-.82,0-1.53,0-2,0-.73-.07-1.2-.35-1.37-.8-.42-1.08,1-2.74,1.21-2.92l0,0a18.75,18.75,0,0,0,1.81-1.93c1.05-1.32,1.48-2.36,1.2-2.95s-1.24-1-4.54-.52a67.14,67.14,0,0,0-10.55,2.88,17.15,17.15,0,0,1,7.66,3.67A15.08,15.08,0,0,1,380.07,119.5Z"/><path class="cls-3" d="M374.52,118.21a22.46,22.46,0,0,1,3.81,9.19l.41,0a7.29,7.29,0,0,1,1.32-.19l.81-.14a18.88,18.88,0,0,0-1.28-7.37,14.58,14.58,0,0,0-4-5.71,17.06,17.06,0,0,0-8.25-3.71l-1.24.44-2.84,1.21a15.63,15.63,0,0,1,11.26,6.32Z"/><path class="cls-8" d="M325.5,146.49l.06.17a2.86,2.86,0,0,0,2.15,1.94,16.28,16.28,0,0,0,5.36-2.89,2.09,2.09,0,0,0,.86-1.43,3.68,3.68,0,0,0-.8-2.35,12.5,12.5,0,0,0-5.58-3c-2.84-.76-5.78.94-6.92,1.71C323.78,141.28,325,145,325.5,146.49Z"/><path class="cls-3" d="M347.18,98.53a3.27,3.27,0,0,0-2.9,0,3.27,3.27,0,0,0,2.9,0Z"/><path class="cls-3" d="M342.19,247.18v0c1.35,2,5.86,5.28,6.86,6,6.14-8.37,17.37-23.77,18.74-26-.62-.25-1.41-.67-1.35-1.14a12.9,12.9,0,0,1,1-3.64c.09-.16.2-.39.32-.66.76-1.61,2.17-4.59,4.69-4.61.48-.75,3.28-5.31,6.81-11-1-.44-5.81-2.61-6.67-2.95a1.63,1.63,0,0,1-1.1-1.53l.42-15.34a.25.25,0,0,1,.33-.23l3,1,0-2.56a8.58,8.58,0,0,1-4.08-7.52c0-4.62,3.28-8.38,7.31-8.38s7.31,3.76,7.31,8.38c0,4.39-3,8-6.7,8.35l-.2,2.9,7.65,2.45c.18-6.15.54-20.1.46-29l-1.17-.5a24.9,24.9,0,0,1-.19,4.32,1.59,1.59,0,0,1-.88,1.3,1.34,1.34,0,0,1-.51.09,3.05,3.05,0,0,1-1.52-.54c-2.26-1.48-5.83-3.75-7-4.33l-.08.05a3,3,0,0,1-1.56.46,2.16,2.16,0,0,1-1.63-.71c-.86.4-3.16,1.46-4.38,2a1.76,1.76,0,0,1-1.42,0,2,2,0,0,1-1-1.09.25.25,0,0,1,0-.07s0-.58-.07-1.4L361.51,172c-.24.73-13.36,40.57-14.77,48.19-.42,2.25-1.09,5.27-1.81,8.47-1.61,7.2-3.6,16.08-3,18.14A.37.37,0,0,1,342.19,247.18Z"/><path class="cls-3" d="M231,389.87h0a.25.25,0,0,1-.12,0,30.9,30.9,0,0,0-5.1-.4,42.92,42.92,0,0,0-10.07,1.27c-12.21,3-21,10.27-19.49,16.26,1,4.26,7,6.73,14.7,6.73A43,43,0,0,0,221,412.44,37.29,37.29,0,0,0,236,405.38c3.64-3.06,5.26-6.33,4.56-9.2s-3.64-5-8.28-6.07C231.85,390,231.45,389.94,231,389.87Zm7.84,6.26c.61,2.5-.9,5.33-4.25,8q-.68.54-1.43,1a.25.25,0,0,1-.12.16L230,407.12h0c-.62.29-1.36.59-2.09.87a42.1,42.1,0,0,1-6.49,2.14,40.2,40.2,0,0,1-9.41,1.19,26.89,26.89,0,0,1-5.11-.46c-4.19-.82-6.84-2.64-7.45-5.14s.9-5.33,4.25-8A38.78,38.78,0,0,1,231.43,391C235.63,391.8,238.27,393.63,238.88,396.12Z"/><path class="cls-3" d="M206.16,401.84l18.11,6.88c.36-.11,1.89-.6,3.44-1.18q.73-.31,1.43-.65l-24-9.23Z"/><path class="cls-3" d="M205.39,397.21l24.35,9.38c.91-.46,1.78-.95,2.58-1.46l-24.58-9.35Z"/><path class="cls-3" d="M231.65,389.36a11.05,11.05,0,0,1,4.06,1.26,23.19,23.19,0,0,1,2.33,1.31l5.6-6.23-5.86-2.1Z"/><path class="cls-5" d="M226.32,391a41.52,41.52,0,0,0-18.07,4.4l4.46,1.7h0c.21-.15,5.29-3.6,15.79-2.19,4.63.62,7.53,1.89,8.64,3.78a3.18,3.18,0,0,1,.45,1.45,5.21,5.21,0,0,0,.79-3.93c-.56-2.29-3.07-4-7.06-4.76A26.4,26.4,0,0,0,226.32,391Z"/><path class="cls-5" d="M204.29,403.44a11.31,11.31,0,0,1,1.38-1.51l-1-4.3-.67.51c-3.19,2.53-4.63,5.18-4.07,7.48.41,1.68,1.86,3,4.18,3.95a3.65,3.65,0,0,1-1.2-2.44A5.65,5.65,0,0,1,204.29,403.44Z"/><path class="cls-8" d="M333.5,274.84a10.08,10.08,0,0,0-3,6.05,3.21,3.21,0,0,1,1.69-.52,3.5,3.5,0,0,1,2.88,2.94c.06,1.23-1.42,2.43-2.15,3a1.36,1.36,0,0,0,1.65.07,10.32,10.32,0,0,0,4.83-5.76,35,35,0,0,0,.89-3.61,17.77,17.77,0,0,1,1.49-4.84,19.72,19.72,0,0,1,2.56-3.9l.7-.74.05-.06,0,0,10.33-10.86a.37.37,0,0,1,.38-.4l19.24-20.23c-1.39-6.68-6.36-8.22-6.92-8.37C366,231,350,252.72,349.3,253.7l0,0,.19.13L339.13,269l0,0C338.93,269.25,334.66,273.91,333.5,274.84Z"/><path class="cls-3" d="M348.73,253.59c-1-.72-5-3.62-6.66-5.7a45.19,45.19,0,0,0,.56,14.67Z"/><path class="cls-3" d="M327.37,270.18l-.08,0s-.83.26-1,1.69-1.5,12.12-1.85,15l5.19-4.87.06,0,0-.83a10.74,10.74,0,0,1,3.3-6.88c.36-.29,1.07-1,1.86-1.81a.25.25,0,0,1,0-.11v-7.68Z"/><path class="cls-6" d="M272.37,348.52h0l-3.39-.54-6.32-.94c-1.64,1.53-20.15,18.87-21.15,19.7a3.82,3.82,0,0,0-1.11,2.23v0c0,.11-3.25,11-3.41,12.45a1.45,1.45,0,0,0,.86,1.62l6.41,2.21a.25.25,0,0,1,.14.13l2.86,1a1,1,0,0,0,1-.06c.51-.39.56-1.45.54-1.82a.25.25,0,0,1,0-.08c0-.1,2.66-9.79,3.34-12a10.65,10.65,0,0,1,3-4.23c.16-.15,16.7-15.16,18.9-17.36,1.11-1.11,1.1-1.61,1.05-1.77s-.39-.29-.39-.29l-2.19-.32Z"/><path class="cls-5" d="M236.29,405.76a37.79,37.79,0,0,1-15.14,7.16A43.44,43.44,0,0,1,211,414.21a30,30,0,0,1-6.55-.68c-4-.89-6.73-2.58-8-4.84.22,1.81.73,4.65,1.9,6.21l0,0s1,1.63,4.29,2.84c5.54,2,13.19,1.36,18.64.43a38.5,38.5,0,0,0,7.09-2.63,31.62,31.62,0,0,0,12-9.63c.14-1.63.34-4.27.42-6.12A14.13,14.13,0,0,1,236.29,405.76Z"/><path class="cls-3" d="M322,291.72l1.84-4.26c.09-.76,1.74-14,1.93-15.6a2.31,2.31,0,0,1,1.31-2.1l9.59-7.05-3.55-.22c-.86.61-8.18,5.82-9.06,6.39a3.52,3.52,0,0,0-1.2,1.62l-2.68,20.25a6.25,6.25,0,0,1,1,.56Z"/><path class="cls-3" d="M335.37,271.72l2.2-2.26.08-7a.25.25,0,0,1-.1.19l-2.17,1.6Z"/><path class="cls-5" d="M255.43,368.61a10.34,10.34,0,0,0-2.84,4c-.65,2.13-3.14,11.27-3.33,11.94a4.48,4.48,0,0,1-.06.87l25.45-25.51a5,5,0,0,0,1.29-3.56c0-1.68-.37-4.79-.55-6.44a5.41,5.41,0,0,1-1,1.32C272.15,353.44,255.59,368.46,255.43,368.61Z"/><path class="cls-6" d="M401.81,16.17a16.68,16.68,0,0,0,3.55-5.07l-5.75-1.54a9.26,9.26,0,0,0-6.66,4.4l-.06.08L394,19.88C395.23,19.68,399.23,18.87,401.81,16.17Z"/><path class="cls-3" d="M400.22,61.08a1.61,1.61,0,0,1-.59.11,3.83,3.83,0,0,1-2.15-.91.38.38,0,0,1-.15-.24l-4.9-28.83a82.62,82.62,0,0,0-7.23,11.39c-3.28,6.26-7,15.51-5.89,24a4.6,4.6,0,0,0,1.85,2.71c1.47,1,3.56,1.3,6.21.8a124.26,124.26,0,0,0,18-5.14c6.14-2.22,15-5.92,22.35-11,6.92-4.74,14.55-12.32,19.72-17.85,5.46-5.83,9.41-10.66,9.66-11a86.65,86.65,0,0,0,4.37-7.65c3.33-6.67,3.31-9.45,2.7-10.61-2-3.85-6.14-5.23-13.83-4.62-7.27.57-21.88,3.61-30.57,9.34l28.11,7.43a.38.38,0,0,1,.27.29c.05.29.3,1.78-.25,2.43a.88.88,0,0,1-.7.33c-.6,0-16.83-4.31-31.46-8.22a35.09,35.09,0,0,0-10.14,6.44l17.72,19.9c1.16-.61,4.54-2.27,5.83-1.46a.37.37,0,0,1,.14,0c1.37.84,3.62,3.08,2.34,5.58-1.5,2.93-5.55,4.85-5.72,4.93h0a12.78,12.78,0,0,1-3.65.77,2.06,2.06,0,0,1-1.4-.4,13.82,13.82,0,0,1-2-2.76c-.53-.54-.46-1.46.21-2.74A12,12,0,0,1,420,42.8L401.32,21.55a31.11,31.11,0,0,0-5.91,4.52l.13.52a.37.37,0,0,1-.27.45c2.65,14.46,5.93,32.29,6,32.59a.37.37,0,0,1,0,.14A1.86,1.86,0,0,1,400.22,61.08Zm37-49.9A28.51,28.51,0,0,0,433,13.12a.38.38,0,0,1-.39-.64,28.73,28.73,0,0,1,4.29-2,50,50,0,0,1,11.9-2.89.38.38,0,0,1,.09.74A49.22,49.22,0,0,0,437.18,11.18Zm11,14.41c0-.07,4-7.17,3.74-14.07-.23-6.67-.88-7.82-.9-7.87v0l.6-.45c.13.18.81,1.41,1,8.27.24,7.12-3.67,14.17-3.84,14.47a.38.38,0,0,1-.65-.37Zm-25.53-7c-2.9,1-7.92,5.09-8,5.13a.38.38,0,1,1-.48-.58c.21-.17,5.17-4.21,8.2-5.26a.38.38,0,1,1,.25.71Zm13.77,20.4c.08-.06,7.54-6,9-8.52a.38.38,0,1,1,.65.37c-1.55,2.69-8.89,8.49-9.2,8.73a.38.38,0,1,1-.46-.59Zm-47,10.6a50.72,50.72,0,0,1,3.15-5.48.38.38,0,0,1,.6.44A51.13,51.13,0,0,0,390,49.88a.38.38,0,0,1-.67-.34Zm-2.1,4.65a.38.38,0,1,1,.7.26c-2.57,6.95-1.18,9-1.17,9a.38.38,0,0,1-.59.47,3.82,3.82,0,0,1-.55-2.14A20.52,20.52,0,0,1,387.28,54.2Zm8.18,11.38a23.18,23.18,0,0,1-7.62,1.37,17.19,17.19,0,0,1-3.64-.37,11.36,11.36,0,0,1-4-1.58.38.38,0,0,1,.44-.61,10.92,10.92,0,0,0,3.77,1.46,20.06,20.06,0,0,0,10.81-1,.38.38,0,0,1,.25.71ZM401,35.43a.38.38,0,0,1-.29-.61,21.76,21.76,0,0,1,5.42-4.71.38.38,0,1,1,.36.66,21.38,21.38,0,0,0-5.2,4.53A.37.37,0,0,1,401,35.43Zm8,23a66.79,66.79,0,0,0,6.87-5.05.38.38,0,0,1,.5.56,67.42,67.42,0,0,1-7,5.12,71.84,71.84,0,0,1-11.67,5.76l-.13,0a.38.38,0,0,1-.13-.73A71,71,0,0,0,409,58.43Z"/><path class="cls-3" d="M398,9.11l-5-1.35-.1,0c-.16-.1-.57-.27-.75-.14s-.26.51-.13,1.36c.07.41.32,1.86.71,4A10,10,0,0,1,398,9.11Z"/><path class="cls-3" d="M402.12,18.76c2.81-2.19,4.88-6.17,5.34-7.1l-1.37-.37a17,17,0,0,1-3.74,5.39c-2.75,2.88-6.87,3.73-8.25,3.94l.26,1.4A20.77,20.77,0,0,0,402.12,18.76Z"/><path class="cls-3" d="M424.83,46.16l0,0a10,10,0,0,1-4.33,1.29l-.4,0a9.84,9.84,0,0,0,1.34,1.71c.53.49,2.81,0,4.27-.53.27-.13,4-2,5.35-4.59a2.8,2.8,0,0,0-.5-3.19,6.32,6.32,0,0,0-.79-.82c0,.06,0,.13,0,.19C429.09,43.45,426,45.42,424.83,46.16Z"/><path class="cls-6" d="M428.83,39.42c-.7-.51-3.44.58-5.24,1.55a3.2,3.2,0,0,1-1.92,2,2.85,2.85,0,0,1-.93.16h-.12c-.82,1.11-1.71,2.81-1.19,3.29.84.76,3.91-.24,5-.91l0,0c1.09-.69,4-2.53,4.53-5.43C429,39.75,429,39.52,428.83,39.42Z"/><path class="cls-3" d="M352.83,279.31l1-.4c3.14-1.3,7.45-3.08,11.92,3.16a41.55,41.55,0,0,1,4.49,7.44,5.47,5.47,0,0,0,1.09,1.77,10.88,10.88,0,0,0,6.86,3.56,6.23,6.23,0,0,0,4.38-1.67,13.54,13.54,0,0,0,4.9-8.69c.45-4.39,1.28-15.48,1.83-22.81.15-2,.28-3.7.37-4.89.45-5.8,1.72-30.54,1.38-32v0a44.84,44.84,0,0,0-.63-5.07l-1.19,1.93c.78,2.41.68,10.39.68,10.74s-.86,15.16-1.64,28.37a.37.37,0,0,1,0,.53c-.55,9.16-1.06,17.4-1.25,19.24-.35,3.45-1.29,12.6-7.84,13a8.31,8.31,0,0,1-8.21-4.84,32.93,32.93,0,0,0-3.67-6.29c-2.11-2.79-5.48-6-9.53-5.62a12.65,12.65,0,0,0-8.18,4,12.06,12.06,0,0,0-2.26,3.43l0,0c-.08.14-1,1.69-2.2,3.57v.06a.25.25,0,0,1-.2.29h0a48.25,48.25,0,0,1-4.28,6,4.92,4.92,0,0,1-3.53,1.72h-.05a5.83,5.83,0,0,1-4-2,16.34,16.34,0,0,0-4.4-3.18l-.66.66a12.75,12.75,0,0,1,4.59,3c2.42,2.49,4.05,2.53,5.07,2.35s4-1.17,6.58-5.68l1-1.78C347.38,285.09,350,280.39,352.83,279.31Z"/><path class="cls-5" d="M522.61,329.36,384.77,404l-.05.24c0,.85,0,1.74,0,2.66,5.71-2.86,32.46-16.21,60.32-29.63,42-20.22,66.35-30.92,72.4-31.81,7.57-1.11,9.8.4,10.35,1.87.95,2.56-2.63,6.77-9.32,11-11,6.93-124.36,77.29-133.55,83,.82.16,2.08.57,2.26,1.56a1.37,1.37,0,0,1,.16.6c0,1.49-2.47,2.6-3.08,2.85l-1.35,1.76,170.32-93.4a.25.25,0,0,1,.33-.34l.16.08,11.93-6.54Z"/><path class="cls-3" d="M404.81,20.59a.37.37,0,0,1-.09-.18l-1.46-1.64c-.22.2-.45.39-.68.57a13,13,0,0,1-1.38.93l.37.42a.36.36,0,0,1,.24.27l18.82,21.45a2.23,2.23,0,0,0,2.22-1.64L405,20.69A.37.37,0,0,1,404.81,20.59Z"/><path class="cls-3" d="M382.91,446.86l.79-1a.38.38,0,0,1,.16-.12,8.68,8.68,0,0,0,1.61-.83,3.58,3.58,0,0,0,1.08-1.19.62.62,0,0,0,0-.14c0-.33-.35-1-2.49-1.67a.38.38,0,0,1-.26-.36c0-.29.06-19.93.14-33.63l-.14.07a.25.25,0,0,1-.36-.28l.51-2.29c0-5.21.07-9.19.1-10.26.06-1.91.83-7.71,1.72-14.43.93-7,2-14.93,2.43-20A27.93,27.93,0,0,0,387,349.4a16.37,16.37,0,0,0-1.83-3.94.38.38,0,0,1-.06-.3c0-.09,2.16-9.34,3.22-18.47a36.74,36.74,0,0,1,2.54-9.29c2-5.31,4.93-13.33,8-32.49,3.73-23.2,2.17-28.33,1.33-29.45l0,0a37.75,37.75,0,0,1-8.49,4.95l-1.89.71,0,.65c-.55,7.34-1.38,18.42-1.83,22.83a14.06,14.06,0,0,1-5.09,9,6.7,6.7,0,0,1-4.75,1.78,11.33,11.33,0,0,1-7.16-3.7,5.91,5.91,0,0,1-1.19-1.91,41.08,41.08,0,0,0-4.45-7.36c-4.25-5.92-8.17-4.3-11.33-3l-1,.4c-2.68,1-5.21,5.6-7.45,9.65l.14.73c0,.22,3.61,21.71,3.83,26.48.1,2.23,0,4.46-.1,6.43a17.68,17.68,0,0,0,.08,4.74c.52,1.35,3.51,13,3.51,15.61,0,1.62.51,10,.89,16.06.21,3.33.38,6.21.42,7.1.11,2.47,5.73,49.22,5.79,49.7a.25.25,0,0,1,0,.15s-.63,1.13-2.87,1.42c-1.9.25-28.75,6.28-34.13,7.49,1.06.37,2.73,1.13,3.33,2.41a2.39,2.39,0,0,1,.1,1.79h0c1.3-.21,4.28-.17,5.18,1.27a2.54,2.54,0,0,1-.31,2.7c1.15-.16,3.57-.33,4.83.6a1.84,1.84,0,0,1,.79,1.54c2.59-1.52,17.9-11.42,24-15.38l.07,0a33.08,33.08,0,0,0,4-1.27c-.64-.38-1.79-1.19-2.16-1.44-.26,0-.29-.18-.39-1.31s-.22-3.06-.36-5.72c-.27-5.15,1-20,2-30.78.47-5.38.87-10,1-12,.25-5.87-1.42-19.05-2.37-21.77a41.34,41.34,0,0,1-1.47-13.74c.26-5.53,4.85-23.92,5-24.7a.25.25,0,0,1,0-.07c-1.05-5.74-2-11.16-2.6-14.67-.88-5.42-2.49-7.18-3.69-7.71a2.67,2.67,0,0,0-2.39.15.38.38,0,0,1-.41-.63,3.42,3.42,0,0,1,3.11-.21c2,.87,3.37,3.66,4.12,8.27,1.77,10.87,7.36,40,7.42,40.29s.65,3.33.24,4.54l-.11.31c-.34,1-.69,1.95,0,6.17,1.15,7.09,7.43,46.82,7.55,52,0,1.91.36,7.11.72,13.13.69,11.4,1.54,25.58,1.46,31a.37.37,0,0,1-.05.19c-.08.14-2,3.35-4.07,4.46-1.72.93-23.76,7.27-30.65,9.25,2.09.25,5.06.87,5.8,2.39a1.92,1.92,0,0,1-.07,1.76c1.56.1,5.44.54,6.33,2.49a2.67,2.67,0,0,1-.37,2.56,26.67,26.67,0,0,1,3-.31c1.85-.09,4.35,0,5.75.87a2.14,2.14,0,0,1,1.07,1.58c1.88-2.15,7.39-9.2,12.21-15.45a.25.25,0,0,1-.1-.4Z"/><path class="cls-5" d="M379.36,406.34l-16.45,8.23.27,2.52,2.28,1.5,14.09-9.07,0-.46Z"/><path class="cls-3" d="M400.82,21l-.28-.32a24.15,24.15,0,0,1-6,2.1l.49,2.68A31.43,31.43,0,0,1,400.82,21Z"/><path class="cls-3" d="M332,286.42l-.23-.32.34-.21c.58-.36,2.22-1.6,2.18-2.54a2.79,2.79,0,0,0-2.18-2.23,3.23,3.23,0,0,0-1.68.68l0,.32,0,.34c0,.16,0,.52-.41.5a.32.32,0,0,1-.34-.31l-5.36,5-1.94,4.49,0,.07a5.86,5.86,0,0,1,1.42,2.54l3.37-3.38h0a.25.25,0,0,1,.17-.17l4.76-4.79Z"/><path class="cls-3" d="M413.37,13.25h0a51.37,51.37,0,0,0-8.72,5.94l.51.57a36.82,36.82,0,0,1,9.45-6.19Z"/><path class="cls-3" d="M462.37,99.51a.36.36,0,0,1,0-.36v-1.9a4.62,4.62,0,0,1-1.31.86c-1.4.65-4.37,1.08-8,1.15h-.89a23.28,23.28,0,0,1-7.06-.81,4.72,4.72,0,0,1-1.84-1.19v6.17l19,3.91Z"/><path class="cls-3" d="M445.44,97.76c2.86,1.15,12.59.94,15.3-.33.87-.41,1.38-.86,1.42-1.28a.59.59,0,0,0,0-.08c-.36-.82-1.33-2-4-2.4v1.93a.38.38,0,0,1-.11.27,5.5,5.5,0,0,1-3.24,1.31l-.83.08a29.53,29.53,0,0,1-3.14.22c-2,0-4-.38-4.67-1.94a.38.38,0,0,1,0-.16l0-1.13a4.12,4.12,0,0,0-2.39,1,1.77,1.77,0,0,0-.2.25,1.12,1.12,0,0,0,0,.8A3.06,3.06,0,0,0,445.44,97.76Z"/><path class="cls-3" d="M309.74,304.79a3.6,3.6,0,0,0-2.61-.65l-42.19,42.7,4.07.65,3.3.49,38.46-40.52A3.38,3.38,0,0,0,309.74,304.79Z"/><path class="cls-3" d="M320.88,291.69l-.92-.48-12.31,12.4a3.77,3.77,0,0,1,2.4.79,3.65,3.65,0,0,1,1.2,2.66c1.37-1.22,6.55-6.34,12.08-11.88A5.57,5.57,0,0,0,320.88,291.69Z"/><path class="cls-6" d="M449.14,124.77h0a3.55,3.55,0,0,1,1.88,1.48l0,0c1.15-.5,28.08-12.21,30.36-13,.48-.17.58-.33.58-.36,0-.22-.73-.71-1.49-1l-18.09-3.71-.29,0h0l-19.23-3.91a.37.37,0,0,1-.17-.09l-11.35-2.33-4.19,2h0l-20.64,9.44Z"/><path class="cls-3" d="M431.14,101a.37.37,0,0,1,.24,0l.48.1,3.87-1.85-4.19-.47-4.11,1.72a20.72,20.72,0,0,1,0,2.29Z"/><path class="cls-6" d="M396.41,97.69a13.56,13.56,0,0,1,4.6,3,15.33,15.33,0,0,1,4.58,11.49v.63l21.05-9.63c.32-4.36-.67-7.81-2.85-10a7.44,7.44,0,0,0-3.44-2h0c-.17,0-17.52-4.34-19.71-4.73a9,9,0,0,0-3.77.12L374.41,92.6l22,5.08Z"/><path class="cls-3" d="M403.81,18.26l.34.38A50.52,50.52,0,0,1,412.33,13l-4.13-1.11A25.59,25.59,0,0,1,403.81,18.26Z"/><path class="cls-3" d="M455.33,32.74l1.05-1.35a61.22,61.22,0,0,0,7.9-14.11.37.37,0,0,1,0-.44q.39-.65.73-1.28c1.27-3.26,2.08-5.92,2.45-7.22a6.77,6.77,0,0,0-.7-3.64c-1.87-3.53-6.86-3.85-6.92-3.85a79.87,79.87,0,0,0-30.5,4.8A78.32,78.32,0,0,0,417.4,11l1.5.39a.37.37,0,0,1,.12-.14c5-3.4,11.63-5.65,16.31-6.93a86.46,86.46,0,0,1,15-2.78c8-.63,12.38.87,14.55,5,1,1.92.09,5.72-2.7,11.3a87.42,87.42,0,0,1-4.42,7.73l0,0s-4.08,5-9.7,11c-5.2,5.56-12.86,13.18-19.84,18-7.42,5.08-16.34,8.81-22.52,11a125.07,125.07,0,0,1-18.14,5.17,14,14,0,0,1-2.53.25,7.24,7.24,0,0,1-4.26-1.19,5.27,5.27,0,0,1-2.15-3.2,32.36,32.36,0,0,1,1.22-12.78,60.6,60.6,0,0,1,4.76-11.67,81.6,81.6,0,0,1,7.57-11.84.37.37,0,0,1,.17-.12l-.1-.59A99.86,99.86,0,0,0,380.66,48a42.73,42.73,0,0,0-2.8,7.17l0,.06C377.25,56.53,375,67.73,379.6,71a9.65,9.65,0,0,0,6.72,1.65l1.76-.31a10,10,0,0,0,1.49-.48A.37.37,0,0,1,390,72c17.14-3.34,31.9-9.37,43.92-18A97.82,97.82,0,0,0,455.33,32.74Z"/><path class="cls-3" d="M448.53,90.38a19.19,19.19,0,0,0,6.73-.35l.42-.22a4.4,4.4,0,0,0,1.23-.8,4.34,4.34,0,0,0-2.51-.88c-.44.85-1.81,1.29-3.11,1.29h-.16a2,2,0,0,1-1.75-.79,5.43,5.43,0,0,0-1.63.69l0,0c-.07.08-.25.36-.18.56S448,90.28,448.53,90.38Z"/><path class="cls-3" d="M453.92,96.53l.85-.09a4.94,4.94,0,0,0,2.66-1V90.22a1.71,1.71,0,0,0-.09-.56,5.56,5.56,0,0,1-1.32.82l-.39.2a15.37,15.37,0,0,1-4.89.6,14.58,14.58,0,0,1-2.33-.16,2.19,2.19,0,0,1-1.41-.68l-.06,3.33a.32.32,0,0,1,0,.15l0,1.38C447.86,97.18,451.79,96.76,453.92,96.53Z"/><path class="cls-3" d="M451.15,88.66c1.27,0,2.46-.41,2.63-1V70.27a5.75,5.75,0,0,1-2.67,1.49,11,11,0,0,1-1.41.3l.16,16.09.12,0h0S450.11,88.63,451.15,88.66Z"/><path class="cls-5" d="M453.9,68.46a.37.37,0,0,1,0-.11l11.91-52.86-.21.38a64.52,64.52,0,0,1-8.67,16l-1.05,1.35a98.49,98.49,0,0,1-21.55,21.44c-12.12,8.66-27,14.74-44.27,18.1L448,71.5a.37.37,0,0,1,.21-.07C448.26,71.44,453.32,71.4,453.9,68.46Z"/><path class="cls-5" d="M377.44,135.91a4.57,4.57,0,1,0,4.55-5A4.79,4.79,0,0,0,377.44,135.91Zm4.55-4.5a4.52,4.52,0,1,1-4,4.5A4.3,4.3,0,0,1,382,131.41Z"/><path class="cls-5" d="M378.36,170.46c-3,0-5.48,3-5.48,6.6s2.46,6.6,5.48,6.6,5.48-3,5.48-6.6S381.38,170.46,378.36,170.46Zm0,12.7c-2.74,0-5-2.74-5-6.1s2.23-6.1,5-6.1,5,2.74,5,6.1S381.11,183.15,378.36,183.15Z"/><path class="cls-5" d="M216.91,391.72a35.11,35.11,0,0,0-13.23,6c-3.35,2.65-4.86,5.49-4.25,8s3.25,4.32,7.45,5.14a26.89,26.89,0,0,0,5.11.46,40.2,40.2,0,0,0,9.41-1.19,42.1,42.1,0,0,0,6.49-2.14c.73-.28,1.47-.57,2.09-.87h0l3.08-1.81a.25.25,0,0,0,.12-.16q.75-.51,1.43-1c3.35-2.65,4.86-5.49,4.25-8s-3.25-4.32-7.45-5.14A35.11,35.11,0,0,0,216.91,391.72Zm-17,13.9c-.56-2.29.89-5,4.07-7.48l.67-.51,1,4.3a11.31,11.31,0,0,0-1.38,1.51,5.65,5.65,0,0,0-1.39,3.68,3.65,3.65,0,0,0,1.2,2.44C201.78,408.66,200.33,407.3,199.92,405.62Zm21.36,4a34.61,34.61,0,0,1-14.31.73q-.84-.16-1.59-.38a.25.25,0,0,0-.1-.13,3.62,3.62,0,0,1-1.89-2.77c-.13-2.17,2.08-4.31,2.6-4.78l17.64,6.7Q222.48,409.36,221.28,409.66Zm6.42-2.12c-1.54.58-3.07,1.06-3.44,1.18l-18.11-6.88-1-4.17,24,9.23Q228.44,407.23,227.71,407.54Zm2-.95-24.35-9.38,2.36-1.43,24.58,9.35C231.52,405.64,230.66,406.13,229.75,406.59ZM237,401a.25.25,0,0,0,0,.11,15.28,15.28,0,0,1-2.67,2.65c-.46.37-1,.73-1.47,1.07l-19.54-7.44c1.22-.7,6.24-3.12,15.14-1.92,5.55.74,7.56,2.33,8.27,3.53A2.41,2.41,0,0,1,237,401Zm1.38-4.72a5.21,5.21,0,0,1-.79,3.93,3.18,3.18,0,0,0-.45-1.45c-1.11-1.89-4-3.16-8.64-3.78-10.51-1.41-15.58,2-15.79,2.19h0l-4.46-1.7a41.52,41.52,0,0,1,18.07-4.4,26.4,26.4,0,0,1,5,.45C235.33,392.25,237.83,393.95,238.39,396.24Z"/><path class="cls-5" d="M420,263.33l2.08-.75h0c.91-.38,22.23-9.42,23.38-10.16a3,3,0,0,0,1.45-2,.37.37,0,0,0,0-.06l-.09-3.57a1.32,1.32,0,0,0-.55-1.24,1.09,1.09,0,0,0-1,.08l-1.51.57c-.9.37-22.05,9-23.2,9.5a1.92,1.92,0,0,0-1.13,1.39,2.69,2.69,0,0,0-.06.87l.13,5a.38.38,0,0,0,.37.37Zm.86-6.93c1.14-.49,23-9.41,23.17-9.5l1.54-.58.07,0a.57.57,0,0,1,.25-.08h0s.14.18.15.59l.09,3.53a2.37,2.37,0,0,1-1.1,1.45c-.88.56-15.6,6.85-23.26,10.09l-1.58.57-.11-4.52v0A1.45,1.45,0,0,1,420.81,256.4Z"/><path class="cls-5" d="M446.81,256a1.07,1.07,0,0,0-1,.1l-1.52.6c-.9.39-22.15,9.48-23.29,10a2.3,2.3,0,0,0-1.18,2.36l.13,5.3a.38.38,0,0,0,.37.37l.13,0,2.08-.79h0c.91-.4,22.32-9.91,23.48-10.68a3.19,3.19,0,0,0,1.44-2.1.37.37,0,0,0,0-.05l-.09-3.76C447.37,256.65,447.17,256.21,446.81,256Zm-1.19,6.59c-.89.59-15.66,7.2-23.36,10.62l-1.58.6-.12-4.79v0s-.15-1.2.75-1.6c1.14-.51,23.06-9.89,23.27-10l1.54-.61.07,0a.54.54,0,0,1,.24-.09h0c.05,0,.15.2.16.65l.09,3.73A2.47,2.47,0,0,1,445.62,262.62Z"/><path class="cls-5" d="M419.77,251.7a.37.37,0,0,0,.18.1l2.42.55a2.11,2.11,0,0,0,.51.11h.19c1.41,0,2.66-1.42,2.83-3.28s-.86-3.58-2.32-3.76a6.53,6.53,0,0,0-3-.4c-1.21.31-1.87,2.26-1.87,3.94A4,4,0,0,0,419.77,251.7Zm3.56-5.53h.13c1.08.1,1.84,1.42,1.7,2.95s-1.12,2.67-2.19,2.59l-.4-.09a2.72,2.72,0,0,1-1.32-2.86,3.38,3.38,0,0,1,.79-1.94A1.75,1.75,0,0,1,423.33,246.17Zm-2.55-.4a3.3,3.3,0,0,1,1.29,0,3,3,0,0,0-.58.51,4.32,4.32,0,0,0-.39,5l-.86-.2a3.26,3.26,0,0,1-.76-2.11C419.47,247.44,420.08,245.94,420.77,245.76Z"/><path class="cls-5" d="M419.21,222.06a.38.38,0,0,0,.18.1l1.73.39a1.6,1.6,0,0,0,.37.08h.15A1.87,1.87,0,0,0,423,222a3.05,3.05,0,0,0,.72-1.75,2.41,2.41,0,0,0-1.73-2.78,4.74,4.74,0,0,0-2.19-.28c-.92.24-1.41,1.67-1.41,2.9A2.93,2.93,0,0,0,419.21,222.06Zm2.61-3.9h.08c.69.06,1.2,1,1.11,2a2.3,2.3,0,0,1-.54,1.32,1.11,1.11,0,0,1-.9.42l-.25-.06a1.85,1.85,0,0,1-.88-1.92C420.53,218.93,421.15,218.16,421.82,218.16Zm-1.79-.29a1.8,1.8,0,0,1,.63,0,2.93,2.93,0,0,0-1,2,3.09,3.09,0,0,0,.31,1.69l-.34-.08a2.25,2.25,0,0,1-.49-1.41C419.18,219,419.58,218,420,217.87Z"/><path class="cls-5" d="M395.21,64.87a20.06,20.06,0,0,1-10.81,1,10.92,10.92,0,0,1-3.77-1.46.38.38,0,0,0-.44.61,11.36,11.36,0,0,0,4,1.58,17.19,17.19,0,0,0,3.64.37,23.18,23.18,0,0,0,7.62-1.37.38.38,0,0,0-.25-.71Z"/><path class="cls-5" d="M397.28,64.59a.38.38,0,0,0,.35.24l.13,0a71.84,71.84,0,0,0,11.67-5.76,67.42,67.42,0,0,0,7-5.12.38.38,0,0,0-.5-.56A66.79,66.79,0,0,1,409,58.43a71,71,0,0,1-11.52,5.68A.38.38,0,0,0,397.28,64.59Z"/><path class="cls-5" d="M436.63,39.62a.37.37,0,0,0,.23-.08c.31-.25,7.65-6,9.2-8.73a.38.38,0,1,0-.65-.37c-1.48,2.57-8.94,8.46-9,8.52a.38.38,0,0,0,.23.67Z"/><path class="cls-5" d="M448.29,26.1a.37.37,0,0,0,.51-.14c.17-.3,4.08-7.35,3.84-14.47-.23-6.87-.91-8.1-1-8.27l-.6.45v0s.68,1.19.9,7.87c.24,6.9-3.7,14-3.74,14.07A.38.38,0,0,0,448.29,26.1Z"/><path class="cls-5" d="M386.23,63.92a.38.38,0,1,0,.59-.47s-1.4-2,1.17-9a.38.38,0,1,0-.7-.26,20.52,20.52,0,0,0-1.59,7.58A3.82,3.82,0,0,0,386.23,63.92Z"/><path class="cls-5" d="M389.55,50a.37.37,0,0,0,.5-.17,51.13,51.13,0,0,1,3.08-5.37.38.38,0,0,0-.6-.44,50.72,50.72,0,0,0-3.15,5.48A.38.38,0,0,0,389.55,50Z"/><path class="cls-5" d="M406.52,30.76a.38.38,0,1,0-.36-.66,21.76,21.76,0,0,0-5.42,4.71.38.38,0,0,0,.58.47A21.38,21.38,0,0,1,406.52,30.76Z"/><path class="cls-5" d="M422.38,17.84c-3,1-8,5.09-8.2,5.26a.38.38,0,0,0,.48.58c.05,0,5.06-4.13,8-5.13a.38.38,0,1,0-.25-.71Z"/><path class="cls-5" d="M449.23,7.92a.37.37,0,0,0-.42-.33,50,50,0,0,0-11.9,2.89,28.73,28.73,0,0,0-4.29,2,.38.38,0,1,0,.39.64,28.51,28.51,0,0,1,4.17-1.93,49.22,49.22,0,0,1,11.72-2.85A.38.38,0,0,0,449.23,7.92Z"/><path class="cls-5" d="M613,298.5c-.79-12.42,3.68-24.35,2.91-36.81-.65-10.39-2.39-20.44-1.84-30.72-25.67,13.37-48.7,25.39-53.68,28.07-4.55,2.45-6.66,4.5-6.44,6.29.3,2.53,5.07,4,11.26,5.61,2.87.76,4.56,1.92,5,3.45.58,2-1.07,3.95-1.3,4.21-1.47.82-42.31,23.55-59,32.38-5.53,2.92-8.18,5.64-7.86,8.09.47,3.55,7,5.13,7.42,5.24L522,329.12,384.73,403.5c0-4.26.06-7.42.09-8.35.06-1.88.83-7.66,1.71-14.36.93-7,2-14.95,2.43-20.05.82-9.2-2.42-14.62-3-15.57.29-1.27,2.21-9.89,3.2-18.4a36.17,36.17,0,0,1,2.5-9.12c2-5.34,5-13.4,8-32.63.6-3.75,1.07-7,1.42-9.93l14.67,7.37v1.82a1.47,1.47,0,0,0,.86,1.74l4.25,2.35.05,0h.25l.06,0,3.28-1.83a.38.38,0,0,0,.19-.33V280L446.9,269.5a4.55,4.55,0,0,0,3.22-4.58c0-.72,0-6.31.1-14.71a26.56,26.56,0,0,0,3.31,1.5,18.08,18.08,0,0,0,6.31,1.28,10.93,10.93,0,0,0,1.54-.1c5.08-.73,10.37-4.69,11.26-7a8.74,8.74,0,0,0,2.24.3,6.91,6.91,0,0,0,2.79-.56c1.86-.82,6.2-2.74,6.86-6.85a24.39,24.39,0,0,0,.31-4.51l.07,0a18,18,0,0,0,7-11.27,16.06,16.06,0,0,0,0-5.62l6.29-4.07a.37.37,0,0,0,.17-.31l2.53-105.87h0a.38.38,0,0,0,0-.09v0l0-.06v0l0-.05,0,0-.06-.06h0l-.07,0h-.06L463.12,99V97a3,3,0,0,0-.21-1.09,1.91,1.91,0,0,0-.72-1.17h0a6.74,6.74,0,0,0-3.89-1.81h-.1V90.22a2.32,2.32,0,0,0-.56-1.55,1,1,0,0,0-.34-.41.37.37,0,0,0-.21-.08,5.31,5.31,0,0,0-2.56-.8V69.19l12.91-57.32a14.18,14.18,0,0,0,.7-3.11l.25-1.11a.37.37,0,0,0-.22-.43,7,7,0,0,0-.79-2.89C465.32.44,460.07.1,459.85.09A80.64,80.64,0,0,0,429,4.94a74.79,74.79,0,0,0-12.65,5.79c-12.44-3.28-24.07-6.33-25.26-6.59a2.46,2.46,0,0,0-2.22.35,2.33,2.33,0,0,0-.7,1.78v0L392,28.7a101.29,101.29,0,0,0-12,18.94,43.45,43.45,0,0,0-2.84,7.29c-.71,1.71-2.91,13.16,2,16.7A10.07,10.07,0,0,0,385,73.49a.38.38,0,0,0,.26.1l63.65-1.36.15,15.68c-2.66.74-2.84,2.06-2.85,2.21v0l-.06,3.35a4.92,4.92,0,0,0-3,1.24A2.52,2.52,0,0,0,443,95l-.06.08v0a2.51,2.51,0,0,0-.35,1.45v6.69l-4.24-.87V98.77a.38.38,0,0,0-.75,0v3.49l-4.52-.93,4.15-2a.38.38,0,0,0-.12-.71L431.51,98a.38.38,0,0,0-.19,0l-4,1.67a11.42,11.42,0,0,0-3-7.08,8.15,8.15,0,0,0-3.82-2.22c-.83-.21-17.54-4.35-19.76-4.74a9.59,9.59,0,0,0-4.11.14L372.29,92.4a.38.38,0,0,0-.26.46l0,.05a1.54,1.54,0,0,0-.36,1v14.21a.37.37,0,0,0,.05.19c-1.47.45-3,.95-4.44,1.46-.1,0-.22,0-.41.09l-.58.24-.29.12c-1.95.7-3.82,1.42-5.48,2.08-6.19,2.46-11.32,4.83-12.49,5.41l-.19.1.08-19.08a.68.68,0,0,0,0-.16c0-.75-1.15-1.09-2.22-1.09a2.89,2.89,0,0,0-2,.62l0,0a.25.25,0,0,0-.09.18.68.68,0,0,0,0,.53l.33,37.58-13.15,3.24a14.55,14.55,0,0,0-3.08-1.21c-3.85-1-7.69,2-7.85,2.16a.24.24,0,0,0,0,.35l-17.06,3.44h-.11l0,0h0l-1,1.1h-.08L275.18,151a2.56,2.56,0,0,0-1.52.24l-.06,0-1.48,1.14-30.93,7.23h-.09c-5.5,0-10,5.51-10,12.28s4.47,12.28,10,12.28a8.42,8.42,0,0,0,4.41-1.27l31.67-13.28,1,.51.12,0h.2a2,2,0,0,0,1.85-1.08h0l24.46-10.27.07,0,1.78.38.08,0h0l.1,0,.18-.07.52-.22,1.85-.79,5.59-2.42,4.71-2c-.41,5.78,2.37,23.59,4.21,35.4.72,4.64,1.3,8.31,1.47,10A66.49,66.49,0,0,0,328.63,212a2.66,2.66,0,0,0,1.08,3,7.12,7.12,0,0,0,4.21,1.47,6.27,6.27,0,0,0,1.47-.17c2.59-.62,5.5-5,5.82-5.94a3.75,3.75,0,0,0,.13-.72,61.23,61.23,0,0,0,5.48-5c2.65-2.54,5.28-5.14,5.31-5.17a.25.25,0,0,0,.06-.1v0c-2.82,9-5.37,17.59-5.95,20.72-.41,2.24-1.09,5.25-1.81,8.45-1.79,8-3.63,16.21-3,18.44a.37.37,0,0,0,0,.08,28.28,28.28,0,0,0-.46,4.44A50.25,50.25,0,0,0,342,263a.37.37,0,0,0,.17.25l-3.59,5.27-.47.51.08-6.74a.25.25,0,0,0-.25-.25h0a.25.25,0,0,0-.25.25v.15a.25.25,0,0,0,0-.07.25.25,0,0,0-.22-.18l-4.33-.26a.25.25,0,0,0-.16,0c-.08.06-8.21,5.85-9.11,6.43a4,4,0,0,0-1.41,1.9v0l-2.69,20.38-12.85,12.94h0l-42.54,43.06-1.72-.25a.25.25,0,0,0-.21.06c-.2.19-20.2,18.92-21.21,19.76a4.26,4.26,0,0,0-1.28,2.54c-.2.68-3.26,11.07-3.43,12.52a2,2,0,0,0,.85,2l-6.35,6a39.23,39.23,0,0,0-15.32.88,37.79,37.79,0,0,0-15.14,7.16c-3.78,3.18-5.46,6.62-4.73,9.68a27.44,27.44,0,0,0,.35,3.09,11.94,11.94,0,0,0,1.79,5c.11.18,1.17,1.79,4.47,3a27,27,0,0,0,9.2,1.38,59.79,59.79,0,0,0,9.76-.9h0a38.88,38.88,0,0,0,7.19-2.66,32.09,32.09,0,0,0,12.28-9.85.25.25,0,0,0,0-.12c0-.29.61-7.13.42-8.3a.25.25,0,0,0-.1-.16,6.14,6.14,0,0,0-.17-1.53,6.94,6.94,0,0,0-2.6-3.81l5.72-6.37,2.91,1a2.14,2.14,0,0,0,.67.12,1.36,1.36,0,0,0,.5-.09h.07a.25.25,0,0,0,.18-.07L275,360.26a5.42,5.42,0,0,0,1.44-3.93c-.07-2.37-.68-7.52-.68-7.57a.25.25,0,0,0-.44-.13,1.17,1.17,0,0,0-.6-.3l-1.81-.27,38.26-40.3a38.59,38.59,0,0,0,3.51-3.28c1.79-1.75,4.25-4.19,7.33-7.26l5.46-5.46a12.36,12.36,0,0,1,4.63,2.94c2,2.11,3.6,2.57,4.72,2.57a4.42,4.42,0,0,0,.8-.08c1.2-.22,4.28-1.23,6.93-5.92l.64-1.15,0,.14c0,.22,3.61,21.67,3.82,26.41.1,2.2,0,4.43-.1,6.39-.11,2.31-.2,4.13.12,4.95.51,1.32,3.48,12.94,3.48,15.43,0,1.64.49,9.65.89,16.09.21,3.33.38,6.21.42,7.09.11,2.46,5.42,46.68,5.78,49.64a3.53,3.53,0,0,1-2.45,1.1c-2.12.28-33.77,7.41-35.11,7.71a.25.25,0,0,0,0,.49s3.14.74,3.93,2.42a2,2,0,0,1-.09,1.84.29.29,0,0,0,0,.08.25.25,0,0,0,.43.22c.48-.22,3.8-.44,4.89.77.57.62.41,1.57-.46,2.83a.25.25,0,0,0,.3.37c.28-.09,3.75-.62,5.06.51a1.45,1.45,0,0,1,.45,1.44.25.25,0,0,0,0,.15.26.26,0,0,0,.16.13h.06c.16,0,.61-.25,4.07-2.45,2-1.29,4.86-3.1,8.38-5.37,5.77-3.72,11.58-7.49,12.07-7.8.2-.05,1.16-.32,2.11-.61,2.2-.68,2.32-.9,2.34-1.08l13.84-8.91c.64,10.61,1.46,24.52,1.39,29.84-.31.51-2,3.18-3.73,4.1-1.54.83-21.94,6.75-32.51,9.76a.38.38,0,0,0,.09.74c1.75.05,6.47.54,7.25,2.13a1.49,1.49,0,0,1-.35,1.55.38.38,0,0,0,.3.6c1.5,0,5.56.44,6.3,2.08.3.67,0,1.54-.85,2.58l0,0a.39.39,0,0,0-.09.47.38.38,0,0,0,.6.1c.84-.31,7.3-1.17,9.23.45a1.39,1.39,0,0,1,.4,1.62.37.37,0,0,0,0,.2.39.39,0,0,0,.3.29H368c.25,0,.63-.34,3-3.26,1.35-1.67,3.2-4,5.5-7,2.09-2.68,4.17-5.37,5.66-7.32L553.71,355c2.8,1.36,20.07,9.74,32.91,15.09a16.16,16.16,0,0,0,6.28,1.23,26.32,26.32,0,0,0,12-3.34,66.13,66.13,0,0,0,11.48-7.89C608,340.65,614.34,319.09,613,298.5ZM401.18,274.3c1.65-13.88.61-18.12-.37-19.35.63-.51,1-.83,1-.84l.08-.07,0-.11c1.5-5.64,2.79-21.08,2.84-21.74l0-.78a.25.25,0,0,0,.07-.17c0-1.13.07-2.3.1-3.46,1.63-36.66-.83-58.56-.86-58.73l0-.25c-.19-1.15-.48-2.89-1.55-3.22a5.8,5.8,0,0,0-3,.47l-.06,0a.25.25,0,0,0-.18,0l-10.11-4.32c-.07-2.09-.22-4.75-.53-7.45q-.1-.92-.23-1.78l22.44,8.12a4.86,4.86,0,0,0,2.1.37,9.78,9.78,0,0,0,1.36-.1v43.32l-4.78-2.13h0a1.88,1.88,0,0,0-1.56.09,1.26,1.26,0,0,0-.49,1.11v31a2.55,2.55,0,0,0,.88,3.2c1.4.89,6.38,3.29,7.49,3.82v40.2s0,.07,0,.17ZM399.59,255a36.8,36.8,0,0,1-8.13,4.71l-1.56.58c.1-1.36.19-2.53.26-3.41.39-5,1.73-30.32,1.37-32.1a35.11,35.11,0,0,0-.78-5.59c1.66-2.71,3.17-5.23,3.83-6.53.29-.57.69-1.37,1.15-2.35.81,2.53,4.86,15,8.33,20.59q0,.64-.07,1.29c0,.16-1.31,15.82-2.79,21.49-.15.13-.5.44-1,.86a.71.71,0,0,0-.31,0,.38.38,0,0,0-.32.43A.36.36,0,0,0,399.59,255Zm-56.93,22,1.84,10.75a49.67,49.67,0,0,1-4.34,6.07,4.44,4.44,0,0,1-3.17,1.57h0a5.35,5.35,0,0,1-3.68-1.8,16.92,16.92,0,0,0-4.38-3.21l3.51-3.53a2.13,2.13,0,0,0,1.37.54,2.34,2.34,0,0,0,1.18-.34,11.06,11.06,0,0,0,5.17-6.19c.22-.69.39-1.34.53-2l.08-.05Zm-1.82,1,.18-.88a17,17,0,0,1,1.42-4.64,19.46,19.46,0,0,1,2.44-3.73l2.12-2.23,6.5-5.31a2.53,2.53,0,0,1,1.48,1,2.17,2.17,0,0,1,.08,1.82l-.28.66-12.09,11.53-.07.07Zm2.26-1.46L355.17,265a.25.25,0,0,0,.06-.08l.31-.72v0a2.65,2.65,0,0,0-.12-2.24,3.08,3.08,0,0,0-1.93-1.28.25.25,0,0,0-.2.05l-3.51,2.87,6.22-6.54a43.3,43.3,0,0,0,8.93,3.47,50.66,50.66,0,0,0,13.37,1.81,48.42,48.42,0,0,0,9.39-.92c-.54,9.08-1.05,17.21-1.24,19-.54,5.23-1.88,12.21-7.38,12.54a7.63,7.63,0,0,1-6-2.12,7.8,7.8,0,0,1-1.7-2.41,33.46,33.46,0,0,0-3.73-6.39c-3.14-4.15-6.59-6.16-10-5.82a13.14,13.14,0,0,0-8.51,4.19,12.42,12.42,0,0,0-2.34,3.56c-.1.17-.87,1.45-1.89,3.07Zm22.05-16.72a43.87,43.87,0,0,1-8.62-3.32l18.93-19.9a1.89,1.89,0,0,0,1.24.47,2.13,2.13,0,0,0,.58-.08l.35-.09c1.45-.34,5.28-1.25,6.49-7.21.34-.53,2.44-3.83,4.71-7.47.63,2.75.54,10.07.54,10.14,0,.25-.85,15.1-1.64,28.3A49.13,49.13,0,0,1,365.15,259.82ZM380.77,225a41.61,41.61,0,0,1,2.62,4.63c-1.12,5.44-4.48,6.24-5.92,6.58l-.38.1a1.14,1.14,0,0,1-1.26-.37,12.08,12.08,0,0,0-4.32-7.4,9.14,9.14,0,0,0-3.24-1.68v0h0a3.31,3.31,0,0,1-1.29-.72,12.06,12.06,0,0,1,1-3.45c.1-.18.21-.41.34-.69.72-1.52,2-4.32,4.26-4.32h.11l0,.23C375.34,218.3,379,222.27,380.77,225Zm3.06,3.81a44.4,44.4,0,0,0-2.43-4.22c-1.63-2.53-5.28-6.64-8.36-7.34,1.44-2.29,9.33-15.11,23.53-38.18l0-.06,2.23-7.35v0l.77-4.75a5.75,5.75,0,0,1,2.68-.54c.64.2.9,1.78,1,2.63l0,.25c0,.15,2,17.39,1.25,46.88-3.61-3.73-5.76-7.61-6.41-11.56,1.83-4.73,3.55-10.52,3.39-15.28l-.75,0c.28,8.23-5.23,19.68-6.93,23C392.3,215.42,385.48,226.17,383.83,228.77Zm-5.24-44.16c-3.62,0-6.56-3.42-6.56-7.63s2.94-7.63,6.56-7.63,6.56,3.42,6.56,7.63S382.2,184.61,378.59,184.61Zm.11.75-.19,2.72-.75-.24.16-2.51a6.45,6.45,0,0,0,.67,0Zm-2.84-.61a6.54,6.54,0,0,0,1.57.5l-.15,2.43-.39-.13-1.07-.38Zm.87,3.28.7.25h.11l9.1,2.91-.29,3.53-6.76,11c-.84-.38-5.85-2.63-6.75-3a1.14,1.14,0,0,1-.78-1l.41-15Zm8.72-31.79a1.15,1.15,0,0,0-1.1-.23c-1.16.26-2.84.75-3.52,1l-.54-7.3,6.05,2.33.06,0c.18.89.34,1.83.46,2.81.14,1.22.22,3.37.26,6l-1.14-.49,0,.1c0-1.34-.11-2.44-.12-2.65A2,2,0,0,0,385.43,156.24Zm-13,5.12c-.8.37-3.17,1.47-4.42,2a1.28,1.28,0,0,1-1,0,1.51,1.51,0,0,1-.7-.77c0-.26-.1-1.8-.1-3.41l.06-.67a.25.25,0,0,0,0-.17c0-.38,0-.76.05-1.12a2,2,0,0,1,.77-1.66,2.61,2.61,0,0,1,2.3.14c1,.44,2.69,1.19,3.76,1.69a1,1,0,0,0-.24.18C372.13,158.34,372.34,160.5,372.46,161.36Zm-7.11-3.23a2.91,2.91,0,0,1-1.39-.55,1,1,0,0,0-.78-.7c-.58-.08-1.24.43-2,1.5-.28.42-1.13,1.8-2.41,3.9-5.19,8.48-17.32,28.31-20.92,31.48l-.13-.18-.06-.05a3.62,3.62,0,0,0-2.29-.36,1.83,1.83,0,0,0-.93.32.24.24,0,0,0,0-.06,66.64,66.64,0,0,0-3.52-9.73c-.93-2.18-1.9-4.43-2.88-7.4-1.79-5.45-2.77-13.24-3.25-17-.12-.93-.2-1.6-.26-1.9-.26-1.37-.77-5.18-.81-5.47l20.47-8.19c.18,1,.72,3.29,2,3.86,1.5.67,9.43,3.84,9.51,3.87a2.8,2.8,0,0,0,1,.22,1,1,0,0,0,.4-.07l.11-.06,1.94,2.54a2.2,2.2,0,0,0,1,1.27,3.63,3.63,0,0,0,1.89.45,9.34,9.34,0,0,0,2.8-.51,18.94,18.94,0,0,0,9.06-6.28l.1,8.23c-.88-.41-3.17-1.46-4.48-2a3,3,0,0,0-2.76-.1,2.43,2.43,0,0,0-1,2c0,.32,0,.66,0,1Zm.38.56c0,.15,0,.31,0,.46l-.1,1.1L361,171.78h0l-4.23,12.43c2-8.45,5.5-23,7-26.13a4.38,4.38,0,0,0,1.48.53Zm-14.64-24.09-3.14.77V124.1a9.46,9.46,0,0,0,1.68,1.89c1.27,1.08,2.16,1.6,2.63,1.55l.62.74C352.35,129.41,350.66,133.34,351.08,134.61Zm2.3-6.26a.25.25,0,0,0,0-.26l-.53-.63a60.7,60.7,0,0,0,6-1.07c1.78-.36,3.68-.79,5.39-1.27l.41-.1a15.87,15.87,0,0,0,3.3-1.24l.22,0,.35,0-.2.2h0c-1.06,1-1.89,1.89-1.91,1.91-.28.29-.57.66-.38,1s1,.23,1.45.1h0l.14,0a32.41,32.41,0,0,0,3.64-1.16,3.78,3.78,0,0,1,.77-.13c.35.23.42,1,.43,1.31l-.51,12a.25.25,0,0,0,.25.26.86.86,0,0,0,.59-.29,9.91,9.91,0,0,0,3.22,4.47s0,.1,0,.16a5.51,5.51,0,0,1-.66,2.67,9.47,9.47,0,0,1-1.33,1.88.25.25,0,0,0-.06.17,19.11,19.11,0,0,1-9.2,6.58c-2.38.77-3.63.49-4.27.12a1.66,1.66,0,0,1-.81-1,.25.25,0,0,0,0-.11l-2.05-2.69a2.65,2.65,0,0,0,.38-2,2.15,2.15,0,0,0-1.3-1.35l-.34-2h.46a3.08,3.08,0,0,0,2.5-.75,1.58,1.58,0,0,1,.55-.36,1.07,1.07,0,0,0,.66-.6,1.62,1.62,0,0,0-.08-1.17c0-.06-2.6-5.84-3.33-7.37-.31-.65-.64-1-1-1h0a.93.93,0,0,0-.73.5v0l-.52,1.25c-.46-.65-1.61-2-3-1.87-.1,0-.12,0-.14,0C351.19,134,352.19,131,353.38,128.35Zm33.48,3.31a11.94,11.94,0,0,1,.64,2.75.25.25,0,0,0,.36.2A9.22,9.22,0,0,1,388,136a8.68,8.68,0,0,1-2.83,6.51l-.08,0-1.43.76a.25.25,0,0,0-.11.31,6.77,6.77,0,0,1-3.76.69l-.1,0a7.78,7.78,0,0,1-2.19-.62,8.19,8.19,0,0,1-4.32-5.67,4.78,4.78,0,0,0,0-1.3,9.15,9.15,0,0,1,.88-4.51,9.53,9.53,0,0,1,7.09-4.47A7.48,7.48,0,0,1,386.86,131.66ZM383.78,128a4.37,4.37,0,0,1,1.27.8A7.85,7.85,0,0,0,383.78,128Zm4.48,6.08a8.61,8.61,0,0,0,.75-1.65,5,5,0,0,0-.39-4.43c-1-1.55-.93-1.66-.26-2.7l.36-.58c3.22,1,57.42,18,60.31,18.95a3.17,3.17,0,0,1,1.22.58v0a1.76,1.76,0,0,1-.58.27l-.06,0-30.81,14.21a18.12,18.12,0,0,1-3.73,1.29V160a.38.38,0,0,0-.75,0v.2a5.6,5.6,0,0,1-3.13-.18l-.05,0-22.84-8.27c-.64-4.09-1.57-7.07-2.78-8.87a9.19,9.19,0,0,0,2.93-6.82A9.68,9.68,0,0,0,388.26,134Zm17.31-4.87a.38.38,0,0,0,0-.07V113.7l43.35,11.79c.1,0,1.65.58,1.65,2s-.23,12.78-.3,15.87a6.51,6.51,0,0,0-1-.41C447.35,142.3,422.79,134.58,405.58,129.18Zm21.25,71.27L433.1,198a.29.29,0,0,1,.26,0c.12.09.39.41.39,1.57v30.73a.37.37,0,0,0,0,.06,5.61,5.61,0,0,1,.07.82l-8.18-4.13a2.52,2.52,0,0,0,1.19-1.86V200.55A.37.37,0,0,0,426.82,200.45Zm-.73,24.76c0,.71-1,1.37-1.37,1.56l-16.65,8.13a2.36,2.36,0,0,1,.13-.39.37.37,0,0,0,0-.16v-31a.57.57,0,0,1,.17-.49,1.17,1.17,0,0,1,.86,0l5.3,2.36h.21l.08,0h0l11.24-4.44Zm-42.35-81.16a35.09,35.09,0,0,1,2.46,7.09l-5.91-2.27-.08,0-.3-4,.54,0A7.35,7.35,0,0,0,383.73,144.05Zm-29-6.38c.47-1.17.89-2.17.95-2.29s.17-.23.29-.23.28.06.59.69c.73,1.53,3.3,7.3,3.33,7.37a1.11,1.11,0,0,1,.07.77.58.58,0,0,1-.37.32,2,2,0,0,0-.71.46c-.4.36-.81.72-2.89.6a9.58,9.58,0,0,1-2.48-1,.84.84,0,0,1-.32-.57,9,9,0,0,1,.1-1.84,6.11,6.11,0,0,1,.46-1.46A19.64,19.64,0,0,0,354.76,137.68Zm-1.81,3.55c-.06.25-.1.48-.14.71a5.41,5.41,0,0,0-.1,2h0v.1a.25.25,0,0,0,0,.12,1.21,1.21,0,0,0,.5.71,9.71,9.71,0,0,0,2.49,1l.32,1.85-5.22-1.52a4.42,4.42,0,0,1-3-3.82v0l5.44-2.18C353.13,140.57,353,141,352.95,141.23Zm-2.23,5.4,5.58,1.63a1.75,1.75,0,0,1,1.12,1.07A2.32,2.32,0,0,1,357,151h0l0,.06a.14.14,0,0,1-.08.09,1.66,1.66,0,0,1-1-.15c-.08,0-8-3.2-9.49-3.86-1-.45-1.56-2.52-1.74-3.6l1.09-.44,1.59-.46A5,5,0,0,0,350.72,146.63Zm22.69,11.47a.24.24,0,0,1,.24-.07,2.62,2.62,0,0,1,1.64.73l-.07,2.79a1.73,1.73,0,0,1-2-.16C373,160.24,373,158.53,373.42,158.1Zm1.12-.64-.11-9,.46-.59a9.62,9.62,0,0,0,.8-1.24,6.19,6.19,0,0,0,.86-2.85,8.26,8.26,0,0,0,.75.37,7.39,7.39,0,0,0,2.12.64l.92,12.43a4.74,4.74,0,0,1-4.44,1.11A2.85,2.85,0,0,0,374.53,157.46Zm1.51,1.39a4.33,4.33,0,0,0,1,.12,6.11,6.11,0,0,0,3.66-1.44c.32-.1,2.39-.72,3.74-1a.68.68,0,0,1,.65.1c.29.28.25.95.21,1.18a.25.25,0,0,0,0,.06,46.35,46.35,0,0,1,0,7.57,1.14,1.14,0,0,1-.58.93,2,2,0,0,1-1.56-.39s-1.84-1.2-3.65-2.34c-1.07-.67-1.93-1.2-2.55-1.56-.42-.25-.72-.41-.94-.52Zm10.79-7.16a.37.37,0,0,0-.05-.24,35.82,35.82,0,0,0-2.6-7.64,8,8,0,0,0,1-.67c1.29,1.95,2.12,5.16,2.65,8.55a.37.37,0,0,0,.1.63,88.87,88.87,0,0,1,.78,9.21l-1.08-.46c0-2.81-.11-5.06-.26-6.32C387.21,153.69,387,152.66,386.83,151.69Zm.78,10.22,1.1.47c0,1.28,0,2.28,0,2.83,0,3.76-.54,24.62-.57,26l-1.1,1.68C387.2,188.87,387.69,172.18,387.6,161.9Zm1.61.69,5.45,2.33a27.75,27.75,0,0,0-2,5.53,40.52,40.52,0,0,0-.91,15.41.25.25,0,0,0,0,.06l-3.06,5c.08-3,.56-22.1.56-25.69C389.25,164.62,389.24,163.71,389.21,162.59Zm5.92,2.53,4,1.7-.76,4.68-2.21,7.3-4,6.46C390.86,174,394.48,166.37,395.13,165.12Zm9.47,51.65q-.16,6.23-.48,13.17c-3.73-6.48-8-20.15-8-20.29l0-.06c.56-1.21,1.19-2.64,1.82-4.21.82,3.84,3,7.6,6.56,11.21Zm4.16,20.07a1.54,1.54,0,0,1-.74-1.09h0l16.82-8.22,8.88,4.48a.78.78,0,0,1-.28.53c-.62.36-11.47,5.42-17.26,8.11C415.25,240.18,410.13,237.71,408.76,236.84Zm11.92,50.55-3.69-2c-.66-.37-.54-.79-.51-.87a.37.37,0,0,0,0-.15v-1.4h0a1.37,1.37,0,0,0,.8.24h.2a.38.38,0,0,0,.18,0,.37.37,0,0,0,.16,0l2.81-1.33ZM424,286l-2.53,1.41V281.5l2.53-1.19Zm25.41-21.06a3.75,3.75,0,0,1-2.68,3.86l-.07,0-22.24,10.48h0a.37.37,0,0,0-.31.17l-6,2.83-.08,0a1.09,1.09,0,0,1-1,0,1.13,1.13,0,0,1-.35-.83V241.3c2-1,16.48-7.68,17.26-8.12,1-.55.72-2.44.65-2.9v-30.7c0-1.13-.25-1.87-.73-2.2a1,1,0,0,0-.94-.12l-17.75,7V160.8a18.7,18.7,0,0,0,4-1.38l30.78-14.2a3,3,0,0,0,.36-.12C450.17,156.49,449.36,261.6,449.36,264.92ZM472,245.36c-.31,1.74-5.54,6-10.73,6.78-4.81.69-10.38-2.41-11-2.79.15-20,.41-54.83.6-78.93a.37.37,0,0,0,.15.13c4.38,2.11,9.68,2.21,15.33.29a32.17,32.17,0,0,0,6.69-3.18C473.33,185.72,472,243.82,472,245.36ZM451,144c0-1.2.31-14.94.31-16.58a2.58,2.58,0,0,0,0-.5l.08,0c.27-.12,25.38-11,29.8-12.82l-2.08,103.39-1.37.76a.37.37,0,0,0-.23.13l-4.25,2.35c.34-19,.7-43.65.47-53.75h0c-.34-6.23-2.21-11-5.54-14.11a13.52,13.52,0,0,0-3.72-2.48c0-.41,0-1.2,0-2.84,0-1.45,0-2.9,0-3l3.33-1.95.87-.49a.38.38,0,0,0,.19-.33v-4.93a1.94,1.94,0,0,1-.87-.19l-6.57-1.22a.38.38,0,0,0-.23,0L453.91,139a.29.29,0,1,1-.57.08.38.38,0,0,0-.38.38v5.09a.37.37,0,0,0,.26.36l4.54,1.53h0v2.94a9.65,9.65,0,0,0-5.11,3.25,16.62,16.62,0,0,0-1.72,2.32c0-5.63.07-9.44.08-10.53a.66.66,0,0,0,0-.19A.67.67,0,0,0,451,144Zm31.45-31.84,4.59.89c.55.1.52.9.52.93h0c0,1-1.09,103.58-1.09,105a1.28,1.28,0,0,1-1.18,1.23l-2.36-1.21v0a.37.37,0,0,0-.56-.26l-2.54-1.3,2.08-103.68c.55-.25.82-.57.83-1A1,1,0,0,0,482.47,112.19Zm-.6,118.91h0a.37.37,0,0,0-.21.47c-.29.54-.5.84-.5.85l0,0c-2.16,3.88-6.94,5.4-8.19,5.74l0-1.42a14.94,14.94,0,0,0,6.32-3.68,14.75,14.75,0,0,0,2.67-4.68l.1-.17a.37.37,0,0,0,0-.25,18.75,18.75,0,0,0,1-8l.85.44A19,19,0,0,1,481.87,231.1Zm-2.22,9.37c-3.59,3.72-6.44,2-6.83,1.74,0-.91,0-2,.07-3.22.93-.22,6.37-1.71,8.85-6.14l.16-.25A8.56,8.56,0,0,1,479.65,240.47Zm.88-10.72a12.08,12.08,0,0,1-1.84,2.85,14.17,14.17,0,0,1-5.75,3.4c.08-4,.18-8.94.28-14.41l.06,0,4-2.2A12.62,12.62,0,0,0,480.53,229.75Zm.71-1.68,0,.09-.44.74a12.17,12.17,0,0,1-2.66-10l1.37-.76.19.1A11.39,11.39,0,0,0,481.23,228.07Zm-.9-9.49,1.93,1,0,.14a17.55,17.55,0,0,1-.74,7.44A10.64,10.64,0,0,1,480.33,218.58Zm-19.66-72.8a2.58,2.58,0,0,1-.36.14v-4.78a3.49,3.49,0,0,0,1-.28c1-.46,6.52-3.4,6.75-3.53h0v4.21l-.69.39C467.34,142,461.95,145.14,460.67,145.78Zm3,4.24a7.86,7.86,0,0,0-1.13-.36l0-3.94,1.16-.59C463.7,146.83,463.71,149,463.71,150Zm-10-10.56a.38.38,0,0,0,.26.26l5.1,1.38a2.93,2.93,0,0,0,.48.07v4.89a3,3,0,0,1-1.13-.18h0l-4.67-1.58v-4.84Zm1.42-.2,6.23-3.07,5.4,1c-1.66.89-5,2.67-5.76,3a2.76,2.76,0,0,1-.9.23.37.37,0,0,0-.37,0,2.54,2.54,0,0,1-.46-.05Zm3.38,7.44a3.81,3.81,0,0,0,.94.12,3.44,3.44,0,0,0,1.55-.36l.78-.42,0,3.47-.56-.09a12.32,12.32,0,0,0-2-.17h-.71Zm-7.46,9.58a15.52,15.52,0,0,1,2.16-3.14c2.27-2.55,4.44-3.12,5.87-3.14.51,0,1.19.05,1.9.14a12.49,12.49,0,0,1,6.68,3.27c3.15,3,4.93,7.46,5.29,13.39a31.34,31.34,0,0,1-6.92,3.35c-6.88,2.33-11.81,1.14-14.74-.27a.37.37,0,0,0-.47.13c0-5.1.07-9.71.1-13.58A.37.37,0,0,0,451.05,156.28Zm32.73,82.35c-.52,3.27-3.54,5-6.42,6.28a7.2,7.2,0,0,1-4.59.21l.12-2a5,5,0,0,0,1.79.46H475a7.51,7.51,0,0,0,5.16-2.59,9.18,9.18,0,0,0,2.66-6.48,9.73,9.73,0,0,0-.42-2.84c.21-.39.45-.88.69-1.44C484.22,231.61,484.3,235.37,483.78,238.63Zm-.35-9.16a18.92,18.92,0,0,0,1.3-8.62l.33.17a.38.38,0,0,0,.17,0h0a2.52,2.52,0,0,0,1-.35l.13,0a.37.37,0,0,0,.2-.06l1.74-1.13c0,2.76-.44,6.32-2.07,9a6.23,6.23,0,0,1-2.1,2.2A3.37,3.37,0,0,0,483.43,229.47Zm7.68-6.67a17.15,17.15,0,0,1-6.33,10.53,11.09,11.09,0,0,0-.32-1.9h0c.2-.09,4.73-2.26,4.67-12.37l1.16-.75.87-.51A15.89,15.89,0,0,1,491.11,222.8Zm6.45-10.08-7.65,5-1.33.79a.37.37,0,0,0-.15.17l-1.23.8a2.18,2.18,0,0,0,0-.36c0-1.45,1.08-103.65,1.09-105a2,2,0,0,0-.39-1.26l12.15-5.15ZM463.12,99.8l36.09,7.38-12.13,5.14-7.53-1.46h-.09l-16.35-3.35ZM389,6.2a1.56,1.56,0,0,1,.44-1.15A1.79,1.79,0,0,1,391,4.87c2.48.55,52.63,13.82,56.54,14.85a2.76,2.76,0,0,1-.12,1.59.14.14,0,0,1-.11.06c-1-.11-23-6-41.16-10.85a.37.37,0,0,0-.14-.07.37.37,0,0,0-.15,0L393.22,7.05a1.54,1.54,0,0,0-1.51-.1c-.48.32-.63,1-.45,2.1.12.78.92,5.19,2,11.11a.36.36,0,0,0,.07.39l.33,1.78a.37.37,0,0,0,.07.37c2.65,14.52,6.52,35.48,6.79,37a1.06,1.06,0,0,1-.56.7c-.43.17-1.09,0-1.9-.62ZM395.27,27a.37.37,0,0,0,.27-.45l-.13-.52a31.1,31.1,0,0,1,5.91-4.52L420,42.8a12,12,0,0,0-.89,1.43c-.66,1.28-.73,2.2-.21,2.74a13.81,13.81,0,0,0,2,2.76,2.06,2.06,0,0,0,1.4.4,12.78,12.78,0,0,0,3.65-.77h0c.17-.08,4.22-2,5.72-4.93,1.28-2.5-1-4.74-2.34-5.58a.36.36,0,0,0-.14,0c-1.29-.8-4.67.85-5.83,1.46l-17.72-19.9a35.1,35.1,0,0,1,10.14-6.44c14.64,3.92,30.86,8.22,31.46,8.22a.88.88,0,0,0,.7-.33c.55-.66.3-2.14.25-2.43a.38.38,0,0,0-.27-.29l-28.11-7.43c8.69-5.73,23.3-8.77,30.57-9.34,7.68-.61,11.82.78,13.83,4.62.61,1.16.63,3.95-2.7,10.61a86.61,86.61,0,0,1-4.37,7.65c-.25.31-4.2,5.13-9.66,11-5.17,5.53-12.8,13.11-19.72,17.85-7.35,5-16.22,8.73-22.35,11a124.28,124.28,0,0,1-18,5.14c-2.65.49-4.74.22-6.21-.8a4.6,4.6,0,0,1-1.85-2.71c-1.08-8.46,2.6-17.7,5.89-24a82.64,82.64,0,0,1,7.23-11.39L397.34,60a.38.38,0,0,0,.15.24,3.83,3.83,0,0,0,2.15.91,1.61,1.61,0,0,0,.59-.11,1.86,1.86,0,0,0,1-1.32.37.37,0,0,0,0-.14C401.21,59.34,397.92,41.5,395.27,27ZM393,13.95a9.26,9.26,0,0,1,6.66-4.4l5.75,1.54a16.67,16.67,0,0,1-3.55,5.07c-2.58,2.7-6.58,3.52-7.84,3.71L392.9,14Zm-.25-1c-.39-2.16-.65-3.61-.71-4-.13-.85,0-1.26.13-1.36s.59,0,.75.14l.1,0,5,1.35A10,10,0,0,0,392.7,13Zm9.65,3.73a17,17,0,0,0,3.74-5.39l1.37.37c-.46.93-2.53,4.91-5.34,7.1A20.77,20.77,0,0,1,394.35,22l-.26-1.4C395.48,20.41,399.6,19.57,402.35,16.69ZM429,40.1c-.54,2.89-3.44,4.73-4.53,5.43l0,0c-1,.67-4.12,1.67-5,.91-.52-.48.37-2.18,1.19-3.29h.12a2.85,2.85,0,0,0,.93-.16,3.21,3.21,0,0,0,1.92-2c1.8-1,4.54-2.06,5.24-1.55C429,39.52,429,39.75,429,40.1Zm.74.14c0-.07,0-.13,0-.19a6.33,6.33,0,0,1,.79.82,2.8,2.8,0,0,1,.5,3.19c-1.34,2.62-5.08,4.46-5.35,4.59-1.46.52-3.74,1-4.27.53a9.85,9.85,0,0,1-1.34-1.71l.4,0a10,10,0,0,0,4.33-1.3l0,0C426,45.42,429.09,43.45,429.69,40.24Zm-9.06,2.19L401.81,21a.36.36,0,0,0-.24-.27l-.37-.42a13,13,0,0,0,1.38-.93c.23-.18.46-.37.68-.57l1.46,1.64a.36.36,0,0,0,.25.28l17.89,20.09A2.23,2.23,0,0,1,420.63,42.42Zm-16-23.22a51.38,51.38,0,0,1,8.72-5.94h0l1.23.33a36.82,36.82,0,0,0-9.45,6.19Zm-.5-.56-.34-.38a25.59,25.59,0,0,0,4.39-6.4L412.33,13A50.5,50.5,0,0,0,404.14,18.64Zm-3.61,2,.28.32A31.44,31.44,0,0,0,395,25.44l-.49-2.68A24.15,24.15,0,0,0,400.53,20.65Zm-11,51.22a10.09,10.09,0,0,1-1.49.48l-1.76.31A9.65,9.65,0,0,1,379.6,71c-4.58-3.28-2.35-14.48-1.76-15.82l0-.06a42.74,42.74,0,0,1,2.8-7.17A99.86,99.86,0,0,1,392.18,29.7l.1.59a.37.37,0,0,0-.17.12,81.6,81.6,0,0,0-7.57,11.84,60.6,60.6,0,0,0-4.76,11.67,32.36,32.36,0,0,0-1.22,12.78,5.27,5.27,0,0,0,2.15,3.2A7.24,7.24,0,0,0,385,71.08a14,14,0,0,0,2.53-.25,125,125,0,0,0,18.14-5.17c6.18-2.24,15.11-6,22.52-11,7-4.78,14.64-12.4,19.84-18,5.63-6,9.66-11,9.7-11l0,0a87.43,87.43,0,0,0,4.42-7.73c2.79-5.58,3.7-9.38,2.7-11.3-2.17-4.16-6.52-5.66-14.55-5a86.46,86.46,0,0,0-15,2.78C430.65,5.61,424,7.86,419,11.26a.37.37,0,0,0-.12.14L417.4,11a78.33,78.33,0,0,1,11.9-5.36,79.87,79.87,0,0,1,30.5-4.8c.05,0,5,.32,6.92,3.85a6.77,6.77,0,0,1,.7,3.64c-.37,1.3-1.19,4-2.45,7.22q-.34.63-.73,1.28a.37.37,0,0,0,0,.44,61.22,61.22,0,0,1-7.9,14.11l-1.05,1.35A97.82,97.82,0,0,1,433.94,54c-12,8.59-26.78,14.62-43.92,18A.37.37,0,0,0,389.56,71.87Zm58.64-.44a.37.37,0,0,0-.21.07l-57.89,1.23c17.27-3.36,32.14-9.44,44.27-18.1A98.49,98.49,0,0,0,455.92,33.2L457,31.85a64.52,64.52,0,0,0,8.67-16l.21-.38L453.95,68.35a.38.38,0,0,0,0,.11C453.32,71.4,448.26,71.44,448.21,71.44ZM450,88.13l-.11,0-.16-16.09a11,11,0,0,0,1.41-.3,5.75,5.75,0,0,0,2.67-1.49V87.68c-.16.57-1.35,1-2.63,1-1,0-1.18-.52-1.19-.54Zm-2.24,1.21,0,0a5.43,5.43,0,0,1,1.63-.69,2,2,0,0,0,1.75.79h.16c1.3,0,2.67-.43,3.11-1.29a4.34,4.34,0,0,1,2.51.88,4.4,4.4,0,0,1-1.23.8l-.42.22a19.19,19.19,0,0,1-6.73.35c-.55-.09-.91-.27-1-.47S447.65,89.43,447.72,89.35Zm-.79,4.58a.39.39,0,0,0,0-.09.39.39,0,0,0,0-.06l.06-3.33a2.19,2.19,0,0,0,1.41.68,14.56,14.56,0,0,0,2.33.16,15.37,15.37,0,0,0,4.89-.6l.39-.2a5.55,5.55,0,0,0,1.32-.82,1.71,1.71,0,0,1,.09.56v5.22a4.94,4.94,0,0,1-2.66,1l-.85.09c-2.12.23-6.05.65-7-1.22Zm-3.35,1.58a1.78,1.78,0,0,1,.2-.25,4.12,4.12,0,0,1,2.39-1l0,1.13a.37.37,0,0,0,0,.16c.71,1.56,2.69,1.94,4.67,1.94a29.5,29.5,0,0,0,3.14-.22l.83-.08a5.5,5.5,0,0,0,3.24-1.31.38.38,0,0,0,.11-.27V93.68c2.65.43,3.63,1.58,4,2.4a.62.62,0,0,1,0,.08c0,.42-.55.87-1.42,1.28-2.71,1.27-12.44,1.48-15.3.33a3.06,3.06,0,0,1-1.84-1.46A1.12,1.12,0,0,1,443.58,95.51Zm-.26,1.77a4.71,4.71,0,0,0,1.84,1.19,23.28,23.28,0,0,0,7.06.81h.89c3.58-.07,6.56-.5,8-1.15a4.62,4.62,0,0,0,1.31-.86v1.9a.36.36,0,0,0,0,.36v7.83l-19-3.91Zm-15.91,3.22,4.11-1.72,4.19.47-3.87,1.85-.48-.1a.37.37,0,0,0-.24,0l-3.73,1.77A20.76,20.76,0,0,0,427.41,100.49Zm-.26,3.25h0l4.19-2,11.35,2.33a.37.37,0,0,0,.17.09l19.23,3.91h0l.29,0,18.09,3.71c.76.3,1.49.8,1.49,1,0,0-.1.19-.58.36-2.28.83-29.21,12.54-30.36,13l0,0a3.55,3.55,0,0,0-1.88-1.48h0l-42.62-11.59,20.64-9.44ZM396.84,86.51a9,9,0,0,1,3.77-.12c2.2.39,19.54,4.69,19.71,4.73h0a7.45,7.45,0,0,1,3.44,2c2.19,2.19,3.17,5.64,2.85,10l-21.05,9.63v-.63A15.33,15.33,0,0,0,401,100.65a13.56,13.56,0,0,0-4.6-3h0l-22-5.08Zm-24.41,7.35a.78.78,0,0,1,.26-.54,1.39,1.39,0,0,1,1.15-.09l22.34,5.17a13.15,13.15,0,0,1,4.33,2.81,14.53,14.53,0,0,1,4.32,10.93v16.8L389.12,124a19.85,19.85,0,0,0,1.34-3.18,3.5,3.5,0,0,0-.22-3.27c-1.35-1.86-5-1.85-7.71-1.84-.8,0-1.5,0-2,0s-.85-.22-1-.49c-.26-.67.73-2,1.11-2.4s4-3.68,3.11-5.46c-.48-1-2.14-1.26-5.07-.8a51.18,51.18,0,0,0-6.3,1.51ZM378.81,107c3.3-.52,4.29,0,4.54.52s-.15,1.63-1.2,2.95a18.78,18.78,0,0,1-1.81,1.93l0,0c-.17.18-1.63,1.84-1.21,2.92.18.46.64.73,1.37.8.51.05,1.22,0,2,0,2.58,0,6.11,0,7.31,1.63a3,3,0,0,1,.15,2.82,19.06,19.06,0,0,1-1.38,3.24.37.37,0,0,0-.26.45l-.39.62c-.75,1.18-.87,1.49.26,3.24s.46,3.91-.13,5.08a9.24,9.24,0,0,0-.76-1.86c-.1-.27-.21-.55-.35-.83-1.16-2.45-3-3.66-5.42-3.48l-.19,0a19,19,0,0,0-1.3-7.67,15.08,15.08,0,0,0-4.14-5.91,17.15,17.15,0,0,0-7.66-3.67A67.15,67.15,0,0,1,378.81,107Zm-12.71,3.64,1.24-.44a17.06,17.06,0,0,1,8.25,3.71,14.58,14.58,0,0,1,4,5.71,18.88,18.88,0,0,1,1.28,7.37l-.81.14a7.28,7.28,0,0,0-1.32.19l-.41,0a22.46,22.46,0,0,0-3.81-9.19,15.63,15.63,0,0,0-11.26-6.32Zm-17.84,7.44c1.21-.61,7-3.27,13.65-5.86a.25.25,0,0,0,.21.1,14.69,14.69,0,0,1,6.72,1.66,15.13,15.13,0,0,1,5.27,4.5,22.07,22.07,0,0,1,3.74,9.13,8.4,8.4,0,0,0-4.72,4.72,24.9,24.9,0,0,1-.07-4.33,4,4,0,0,0-.42-2.63.58.58,0,0,0-.49-.29.87.87,0,0,0-.38-.08,1.28,1.28,0,0,0-.54.13l-.18.08c-.63.15-1.42.42-2.37.74-.49.17-.93.32-1.23.41l-.17,0c-.25.06-.42,0-.49,0a.36.36,0,0,1,0-.28c1-1.09,1.73-1.74,1.84-1.83h0a1.15,1.15,0,0,0,.45-.63h0a.4.4,0,0,0,0,0,.37.37,0,0,0,0,0h0a.36.36,0,0,0,0-.12l0-.06c-.19-.27-.67-.22-1.18-.12h0l-.06,0a21.7,21.7,0,0,1-3.77,1.36l-.91.22c-1.07.26-2.51.61-4,1-3.55.73-6.69,1.18-6.75,1.19h-.06l0,0h0c-.09,0-.6,0-2.23-1.43a10.06,10.06,0,0,1-2.89-4.47l0,0A2.2,2.2,0,0,1,348.26,118.12Zm-2.53-19.93a2.42,2.42,0,0,1,1.45.34,3.27,3.27,0,0,1-2.9,0A2.42,2.42,0,0,1,345.73,98.19Zm0,1.43a3.7,3.7,0,0,0,1.7-.35l-.08,18.61a.25.25,0,0,0,.07.17,2.69,2.69,0,0,0-.85,3.23,10,10,0,0,0,.87,2,.25.25,0,0,0,0,0v12.17l-3,.75-.33-37A3.78,3.78,0,0,0,345.73,99.62Zm-18.19,39.27a12.5,12.5,0,0,1,5.58,3,3.68,3.68,0,0,1,.8,2.35,2.09,2.09,0,0,1-.86,1.43,16.28,16.28,0,0,1-5.36,2.89,2.86,2.86,0,0,1-2.15-1.94l-.06-.17c-.48-1.47-1.72-5.21-4.87-5.89C321.77,139.83,324.71,138.13,327.55,138.89ZM245.2,182.28l-2.18.91-.09.06a7.45,7.45,0,0,1-1.82.23c-5.08,0-9.22-5.17-9.22-11.53,0-4.84,2.4-9,5.8-10.7h.11l3.48-.81c5,.11,9,5.24,9,11.52C250.33,176.47,248.24,180.39,245.2,182.28ZM277,168.95l-29.41,12.33a13.57,13.57,0,0,0,3.5-9.33c0-5.86-3.35-10.77-7.81-12l29-6.79c.72.16,6.44,1.51,6.95,5.32.06.44.12.86.18,1.27C280,163.41,280.27,165.63,277,168.95Zm2.53-.22a.37.37,0,0,0-.08.43,1.39,1.39,0,0,1-1,.33l-.64-.33c3.22-3.43,2.85-6,2.34-9.5-.06-.4-.12-.82-.18-1.26-.25-1.92-1.67-3.56-4.09-4.75a15.66,15.66,0,0,0-2.76-1l.89-.69a1.72,1.72,0,0,1,1-.15h0a8.83,8.83,0,0,1,6.63,7.45C282.72,165.55,279.55,168.69,279.52,168.72Zm24.92-10.49-23.49,9.87a12.71,12.71,0,0,0,1.53-9,9.58,9.58,0,0,0-4-6.61,10.08,10.08,0,0,0-1.84-1l24.94-5.2a3.45,3.45,0,0,1,.43.09,9.92,9.92,0,0,1,2.64,1.76,6.84,6.84,0,0,1,1.24,2.62A9.41,9.41,0,0,1,304.44,158.23Zm2.28.49-1.48-.32a10,10,0,0,0,1.37-7.83,6.31,6.31,0,0,0-4.47-4.92l.74-.79a5.56,5.56,0,0,1,2.4.57c1.75.86,2.84,2.53,3.24,5C309.44,155.95,307.16,158.32,306.72,158.72Zm1-.38c.86-1.19,2-3.7,1.31-8-.66-4-3.07-5.34-4.7-5.76l16.24-3.28a.25.25,0,0,0,.17-.13c2.72.75,3.85,4.15,4.29,5.5l.06.17a3.31,3.31,0,0,0,2.63,2.29c.73,0,3.56-1.34,5.67-3a2.57,2.57,0,0,0,1-1.77,4.17,4.17,0,0,0-.91-2.73h0a10.1,10.1,0,0,0-2.11-1.63l16.31-4,.09,0,3.65-.9h0a.71.71,0,0,0,.3,0c1.3-.13,2.43,1.47,2.69,1.87l-.17.58c-.27.68-.56,1.41-.8,2.07a.25.25,0,0,0-.17,0l-7.69,3.08-1.29.37a.25.25,0,0,0-.18.21L323,151.71h0l-.08,0-.26.1-.06,0C318,153.89,310.41,157.18,307.71,158.33ZM325.92,199c-.18-1.65-.75-5.33-1.48-10-1.84-11.81-4.62-29.62-4.2-35.31a30.91,30.91,0,0,1,3.07-1.37c.13,1,.55,4,.77,5.19.05.28.14.95.25,1.87.47,3.76,1.46,11.59,3.27,17.08,1,3,2,5.26,2.89,7.44a66.24,66.24,0,0,1,3.5,9.66.25.25,0,0,0,.23.18h0a1.38,1.38,0,0,0-.2,1v0s.56,1.44.8,2,.5,1.21.22,5.31a24,24,0,0,1-3,9.63,2.41,2.41,0,0,1-1.58,1.3l-1.41-1.31A66,66,0,0,1,325.92,199Zm14.92,10.66a3.07,3.07,0,0,1-.11.57c-.29.9-3.08,5-5.46,5.61A6.37,6.37,0,0,1,330,214.6a2.13,2.13,0,0,1-1-2.17l1.21,1.13a.25.25,0,0,0,.16.07s1.13,0,2.1-1.55a24.57,24.57,0,0,0,3-9.86c.28-4.22,0-4.92-.26-5.54s-.72-1.82-.79-2a.87.87,0,0,1,.13-.62,1.11,1.11,0,0,1,.84-.38,3.44,3.44,0,0,1,1.93.25,18.17,18.17,0,0,1,1.47,2.39,23.5,23.5,0,0,1,1.72,5.5v.05c.23,2.82.33,5,.32,6.4,0,.39-.06.78-.11,1.18v0A.27.27,0,0,0,340.83,209.63Zm10.89-10.48c-3.43,3.39-8.8,8.58-10.34,9.84,0-.21,0-.44,0-.7a25.8,25.8,0,0,0-.33-6.53,15.61,15.61,0,0,0-1.83-5.8c-.28-.6-.52-1.07-.7-1.41-.09-.18-.19-.37-.24-.48,3.75-3.44,15.77-23.09,20.93-31.52,1.23-2,2.13-3.48,2.4-3.89.82-1.23,1.31-1.31,1.48-1.28a.48.48,0,0,1,.33.27c-1.79,3.37-7,25.66-8.24,31.31Zm-6.8,29.46c.72-3.2,1.39-6.22,1.81-8.47,1.41-7.61,14.53-47.46,14.77-48.19l4.25-10.68c0,.82.07,1.38.07,1.4a.25.25,0,0,0,0,.07,2,2,0,0,0,1,1.09,1.75,1.75,0,0,0,1.42,0c1.22-.5,3.52-1.56,4.38-2a2.16,2.16,0,0,0,1.63.71,3,3,0,0,0,1.56-.46l.08-.05c1.13.58,4.7,2.85,7,4.33a3,3,0,0,0,1.52.54,1.34,1.34,0,0,0,.51-.09,1.59,1.59,0,0,0,.88-1.3,24.89,24.89,0,0,0,.19-4.32l1.17.5c.08,8.89-.28,22.84-.46,29L379,188.23l.2-2.9c3.75-.36,6.7-4,6.7-8.35,0-4.62-3.28-8.38-7.31-8.38s-7.31,3.76-7.31,8.38a8.58,8.58,0,0,0,4.08,7.52l0,2.56-3-1a.25.25,0,0,0-.33.23l-.42,15.34a1.63,1.63,0,0,0,1.1,1.53c.86.34,5.69,2.51,6.67,2.95-3.53,5.72-6.33,10.27-6.81,11-2.52,0-3.93,3-4.69,4.61-.13.27-.24.5-.32.66a12.9,12.9,0,0,0-1,3.64c-.06.47.73.88,1.35,1.14-1.38,2.22-12.6,17.63-18.74,26-1-.72-5.51-4-6.86-6v0a.37.37,0,0,0-.24-.43C341.32,244.69,343.31,235.81,344.93,228.61Zm-2.86,19.28c1.66,2.08,5.65,5,6.66,5.7l-6.1,9A45.19,45.19,0,0,1,342.07,247.89Zm-3,21.17,0,0,10.31-15.16-.19-.13,0,0c.72-1,16.68-22.74,18.85-26.13.56.15,5.52,1.69,6.92,8.37l-19.24,20.23a.37.37,0,0,0-.38.4l-10.33,10.86,0,0-.05.06-.7.74a19.72,19.72,0,0,0-2.56,3.9,17.77,17.77,0,0,0-1.49,4.84,35,35,0,0,1-.89,3.61,10.32,10.32,0,0,1-4.83,5.76,1.36,1.36,0,0,1-1.65-.07c.73-.52,2.21-1.72,2.15-3a3.5,3.5,0,0,0-2.88-2.94,3.22,3.22,0,0,0-1.69.52,10.08,10.08,0,0,1,3-6.05C334.66,273.91,338.93,269.25,339.12,269.05Zm-4.22,3.39c-.79.81-1.5,1.52-1.86,1.81a10.74,10.74,0,0,0-3.3,6.88l0,.83-.06,0-5.19,4.87c.35-2.83,1.68-13.54,1.85-15s1-1.68,1-1.69l.08,0,7.5-5.52v7.68A.25.25,0,0,0,334.89,272.45Zm2.65-9.75a.25.25,0,0,0,.1-.19l-.08,7-2.2,2.26v-7.43Zm-14.67,7.8a3.52,3.52,0,0,1,1.2-1.62c.88-.56,8.2-5.77,9.06-6.39l3.55.22-9.59,7.05a2.31,2.31,0,0,0-1.31,2.1c-.19,1.58-1.84,14.84-1.93,15.6L322,291.72l-.8-.42a6.27,6.27,0,0,0-1-.56Zm-82.5,135.44a31.62,31.62,0,0,1-12,9.63,38.5,38.5,0,0,1-7.09,2.63c-5.45.92-13.1,1.59-18.64-.43-3.29-1.21-4.28-2.82-4.29-2.84l0,0c-1.18-1.56-1.69-4.4-1.9-6.21,1.29,2.26,4.07,4,8,4.84a30,30,0,0,0,6.55.68,43.45,43.45,0,0,0,10.19-1.28,37.79,37.79,0,0,0,15.14-7.16,14.13,14.13,0,0,0,4.5-5.95C240.71,401.67,240.51,404.31,240.37,405.93Zm.16-9.76c.7,2.87-.92,6.14-4.56,9.2A37.29,37.29,0,0,1,221,412.44a43,43,0,0,1-10.09,1.27c-7.73,0-13.66-2.47-14.7-6.73-1.46-6,7.28-13.29,19.49-16.26a42.93,42.93,0,0,1,10.07-1.27,30.89,30.89,0,0,1,5.1.4.25.25,0,0,0,.12,0h0c.41.07.82.15,1.21.24C236.89,391.15,239.83,393.31,240.53,396.18Zm-2.5-4.25a23.24,23.24,0,0,0-2.33-1.31,11.06,11.06,0,0,0-4.06-1.26l6.12-5.75,5.86,2.1Zm37.35-42c.18,1.65.51,4.76.55,6.44a5,5,0,0,1-1.29,3.56L249.2,385.42a4.47,4.47,0,0,0,.06-.87c.18-.67,2.67-9.81,3.33-11.94a10.34,10.34,0,0,1,2.84-4c.17-.15,16.72-15.18,18.92-17.38A5.41,5.41,0,0,0,275.38,349.91Zm-.73-1.09s.32.06.4.29.06.66-1,1.77c-2.2,2.2-18.74,17.21-18.9,17.36a10.65,10.65,0,0,0-3,4.23c-.68,2.2-3.31,11.89-3.34,12a.25.25,0,0,0,0,.08c0,.37,0,1.43-.54,1.82a1,1,0,0,1-1,.06l-2.86-1a.25.25,0,0,0-.14-.13l-6.41-2.21a1.45,1.45,0,0,1-.86-1.62c.17-1.42,3.38-12.34,3.41-12.45v0a3.82,3.82,0,0,1,1.11-2.23c1-.83,19.51-18.17,21.15-19.7l6.32.94,3.39.54h0l.1,0Zm-2.34-.85-3.3-.49-4.07-.65,42.19-42.7a3.6,3.6,0,0,1,2.61.65,3.38,3.38,0,0,1,1,2.67Zm38.94-40.91a3.65,3.65,0,0,0-1.2-2.66,3.77,3.77,0,0,0-2.4-.79L320,291.21l.92.48a5.57,5.57,0,0,1,2.45,3.5C317.8,300.72,312.62,305.84,311.25,307.06Zm16-15.84a.25.25,0,0,0-.17.17h0l-3.37,3.38a5.86,5.86,0,0,0-1.42-2.54l0-.07,1.94-4.49,5.36-5a.32.32,0,0,0,.34.31c.37,0,.4-.34.41-.5l0-.34,0-.32a3.22,3.22,0,0,1,1.68-.68,2.79,2.79,0,0,1,2.18,2.23c0,.94-1.6,2.18-2.18,2.54l-.34.21.23.32h0Zm17.79-2-1,1.78c-2.55,4.51-5.45,5.47-6.58,5.68s-2.64.14-5.07-2.35a12.74,12.74,0,0,0-4.59-3l.66-.66a16.33,16.33,0,0,1,4.4,3.18,5.83,5.83,0,0,0,4,2H337a4.92,4.92,0,0,0,3.53-1.72,48.27,48.27,0,0,0,4.28-6h0a.25.25,0,0,0,.2-.29v-.06c1.19-1.88,2.12-3.43,2.2-3.57l0,0a12.06,12.06,0,0,1,2.26-3.43,12.65,12.65,0,0,1,8.18-4c4.05-.41,7.42,2.83,9.53,5.62a32.93,32.93,0,0,1,3.67,6.29,8.31,8.31,0,0,0,8.21,4.84c6.55-.39,7.49-9.54,7.84-13,.19-1.84.7-10.08,1.25-19.24a.37.37,0,0,0,0-.53c.79-13.22,1.63-28.11,1.64-28.37s.1-8.33-.68-10.74l1.19-1.93a44.85,44.85,0,0,1,.63,5.07v0c.34,1.43-.93,26.17-1.38,32-.09,1.18-.22,2.89-.37,4.89-.55,7.33-1.38,18.42-1.83,22.81a13.54,13.54,0,0,1-4.9,8.69,6.23,6.23,0,0,1-4.38,1.67,10.88,10.88,0,0,1-6.86-3.56,5.48,5.48,0,0,1-1.09-1.77,41.55,41.55,0,0,0-4.49-7.44c-4.48-6.24-8.78-4.46-11.92-3.16l-1,.4C350,280.39,347.38,285.09,345.09,289.23Zm20.37,129.36-2.28-1.5-.27-2.52,16.45-8.23.16,2.73,0,.46Zm-2.28-72.86a40.79,40.79,0,0,1-1.44-13.55c.23-4.76,3.82-19.68,4.79-23.63,2.16,11.71,4.57,24.29,4.61,24.48a12.66,12.66,0,0,1,.27,4.16l-.1.3c-.37,1-.75,2.13,0,6.54,1.15,7.09,7.42,46.76,7.54,51.9,0,1.56.25,5.3.52,9.89L362.86,414c-.06-.91-.12-2.07-.2-3.57-.26-5.11,1-19.91,2-30.71.47-5.38.87-10,1-12.06C365.85,361.28,364.06,348.27,363.17,345.73Zm23.38,97.95a3.59,3.59,0,0,1-1.08,1.19,8.69,8.69,0,0,1-1.61.83.37.37,0,0,0-.16.12l-.79,1-2.39,2.57a.25.25,0,0,0,0,.32.25.25,0,0,0,.11.08c-4.82,6.25-10.33,13.3-12.21,15.45a2.14,2.14,0,0,0-1.07-1.58c-1.4-.88-3.9-1-5.75-.87a26.63,26.63,0,0,0-3,.31,2.67,2.67,0,0,0,.37-2.56c-.88-1.95-4.76-2.39-6.33-2.49a1.92,1.92,0,0,0,.07-1.76c-.74-1.52-3.71-2.14-5.8-2.39,6.89-2,28.93-8.32,30.65-9.25,2.06-1.11,4-4.32,4.07-4.46a.38.38,0,0,0,.05-.19c.08-5.45-.77-19.63-1.46-31-.36-6-.67-11.22-.72-13.13-.12-5.18-6.4-44.91-7.55-52-.68-4.22-.33-5.21,0-6.17l.11-.31c.4-1.21-.18-4.21-.24-4.54s-5.65-29.42-7.42-40.29c-.75-4.62-2.14-7.4-4.12-8.27a3.42,3.42,0,0,0-3.11.21.38.38,0,0,0,.41.63A2.67,2.67,0,0,1,360,285c1.19.52,2.8,2.29,3.69,7.71.57,3.52,1.54,8.94,2.6,14.67a.25.25,0,0,0,0,.07c-.2.78-4.78,19.17-5,24.7a41.34,41.34,0,0,0,1.47,13.74c1,2.72,2.63,15.9,2.37,21.77-.09,2-.49,6.66-1,12-.94,10.82-2.22,25.63-2,30.78.14,2.67.26,4.59.36,5.72s.13,1.29.39,1.31c.37.26,1.53,1.06,2.16,1.44a33,33,0,0,1-4,1.27l-.07,0c-6.09,4-21.4,13.85-24,15.38a1.84,1.84,0,0,0-.79-1.54c-1.26-.93-3.68-.76-4.83-.6a2.54,2.54,0,0,0,.31-2.7c-.9-1.44-3.88-1.48-5.18-1.27h0a2.39,2.39,0,0,0-.1-1.79c-.6-1.28-2.27-2-3.33-2.41,5.38-1.21,32.24-7.24,34.13-7.49,2.24-.29,2.84-1.37,2.87-1.42a.25.25,0,0,0,0-.15c-.06-.47-5.68-47.22-5.79-49.7,0-.89-.22-3.76-.42-7.1-.38-6.09-.89-14.44-.89-16.06,0-2.62-3-14.25-3.51-15.61a17.68,17.68,0,0,1-.08-4.74c.09-2,.2-4.21.1-6.43-.22-4.77-3.79-26.26-3.83-26.48l-.14-.73c2.24-4.06,4.78-8.64,7.45-9.65l1-.4c3.15-1.31,7.08-2.93,11.33,3a41.08,41.08,0,0,1,4.45,7.36,5.91,5.91,0,0,0,1.19,1.91,11.33,11.33,0,0,0,7.16,3.7,6.7,6.7,0,0,0,4.75-1.78,14.06,14.06,0,0,0,5.09-9c.45-4.4,1.28-15.49,1.83-22.82l0-.65,1.89-.71a37.75,37.75,0,0,0,8.49-4.95l0,0c.84,1.13,2.4,6.25-1.33,29.45-3.08,19.16-6,27.18-8,32.49a36.73,36.73,0,0,0-2.54,9.29c-1.06,9.13-3.2,18.38-3.22,18.47a.38.38,0,0,0,.06.3A16.35,16.35,0,0,1,387,349.4a27.93,27.93,0,0,1,1.18,11.27c-.45,5.09-1.5,13-2.43,20-.89,6.72-1.66,12.52-1.72,14.43,0,1.06-.07,5-.1,10.26l-.51,2.29a.25.25,0,0,0,.36.28l.14-.07c-.08,13.71-.14,33.34-.14,33.63a.37.37,0,0,0,.26.36c2.15.69,2.48,1.34,2.49,1.67A.63.63,0,0,1,386.56,443.67Zm131.63-85.74c-11,6.94-125,77.69-133.62,83,0-3.28.07-21,.14-33.48C395.68,402,503.84,348,517.5,346c5.65-.83,9.13-.28,9.8,1.54S525.95,353,518.19,357.93Z"/><path class="cls-5" d="M372.43,138.51l0-.65q0,.2.1.41A.91.91,0,0,1,372.43,138.51Z"/><path class="cls-5" d="M372.66,132.9v0Z"/><path class="cls-5" d="M384.57,441"/><path class="cls-4" d="M352.46,456.42,300.53,485l4.75,2.84,51.8-28.9s-3.79-1-5.19,0S353.47,457.52,352.46,456.42Z"/><ellipse class="cls-4" cx="284.28" cy="495.8" rx="25.27" ry="10.94" transform="translate(-108.23 80.39) rotate(-13.55)"/><path class="cls-4" d="M477.32,497.45a1.82,1.82,0,0,0-.46.41,11.21,11.21,0,0,1,4.95,4c2.17,3.28,10.53,1.49,14.52,1.86s5.07,5.1,5.06,8.37,1.08,2.91,3.25,6.55a3.39,3.39,0,0,1-.53,4.25L554.21,496s13-9.5-3-7.26-13,6.45-21.39,5.28-9.15-3.85-16-2.34-13.76,6.44-20.25,6.42c-5.9,0-13.68-2.25-16.2-.65"/><polygon class="cls-4" points="362.86 414.03 363.16 416.83 365.74 419 379.58 410.09 379.28 405.44 362.86 414.03"/><path class="cls-4" d="M616.24,191.86l0-.5a3.23,3.23,0,0,0,1.81-.74c.71-.68.9-1.71,1.15-3.89a10.27,10.27,0,0,0-1.21-5l-.25-.59a2.5,2.5,0,0,0-1-1.36c-.26-.23-.62-.53-1.1-1a7.34,7.34,0,0,1-1.75-3.71,11.15,11.15,0,0,0-1.68-4c-1.87-2.48-4.76-2.87-7.31-3s-2.49-1.32-2.51-2.08c0-.09,0-.17,0-.25a5.59,5.59,0,0,0-.4-1.47l.46-.2a6,6,0,0,1,.44,1.63c0,.08,0,.18,0,.27,0,.72.06,1.47,2,1.6,2.67.17,5.68.58,7.68,3.23a11.72,11.72,0,0,1,1.76,4.19,6.88,6.88,0,0,0,1.6,3.47c.48.43.82.74,1.09,1a3,3,0,0,1,1.17,1.55c.06.16.15.35.25.57a10.66,10.66,0,0,1,1.25,5.24c-.27,2.3-.48,3.4-1.3,4.19A3.69,3.69,0,0,1,616.24,191.86Z"/><ellipse class="cls-5" cx="241.12" cy="171.99" rx="9.15" ry="11.57"/><path class="cls-4" d="M575.25,171.74s-.13-.45-.7-.28"/><g class="cls-9"><path class="cls-4" d="M384.7,407.5l.1-4.66,133-72.65-15.58-5.92s-11.55-5.08,3.7-13.86,53.61-29.58,53.61-29.58,10.63-4.62,2.77-7.39-17.1-7.39-12.48-10.63,176.87-97.62,176.87-97.62V348.56l-38.54,26.81s-8.8,5.45-19.27,3.77S631.14,362,631.14,362s-4.61-2.93-8-1.26-13,8.8-13,8.8-15.92,9.64-27.65,4.61-28.91-14.66-28.91-14.66l-171.5,89.66,2.11-2.75s2.88-1.35,2.88-1.81.27-2.56-1-2.87a3.37,3.37,0,0,1-1.58-.7l.09-.65,136.13-84.9s11.74-8.5,1.62-9.1-40.47,15.17-40.47,15.17Z"/></g><path class="cls-10" d="M503.91,513.28a44.05,44.05,0,0,1-3.52-6.5,7.33,7.33,0,0,0-3.52-3.31,11.05,11.05,0,0,0-1.67-.62,13.61,13.61,0,0,1-1.72-.35,1.74,1.74,0,0,1-.72-.64,3.77,3.77,0,0,0-.71-.73c-.57-.49-1.12-1-1.68-1.5a1.87,1.87,0,0,1-.39-.44c-.2-.35-.07-1-.1-1.37s-.07-.93-.1-1.39a25.53,25.53,0,0,1-.08-2.67,4.51,4.51,0,0,1,1.45-2.88,11.91,11.91,0,0,1,1.29-1.13,5,5,0,0,0,1.24-1.13,7.19,7.19,0,0,0,.82-2.13,14.05,14.05,0,0,1,1-2.75,10.53,10.53,0,0,1,1.79-2.21c1-1,2-2,3-3.09a8,8,0,0,0,2.2-4.13c.52-2.73-.33-5.55,1.75-7.86.4-.45,0-1.39-.65-1.12-5.24,2.12-5.3,8.45-9.26,11.7-1-7.37-11.23-8-17.19-10.77-.18-.35-.36-.69-.53-1-1.38-3-1.23-5.84-.49-9,.93-4,2.33-7.8.22-11.63a.67.67,0,0,0-1.22.16c-.87,5-4.09,8.86-5.68,13.55-1.49,4.4-.47,8.21,1.5,12.27a28.86,28.86,0,0,1,2.2,4.63c.59,2.17-.07,3.09-1,4.78-1.37,2.36-2.87,4.62-3.58,7.3a11,11,0,0,0,1.36,9.18c.15.22.32.42.48.63s.25.38.36.56c-.67,0-1.32-.27-2-.28a5.48,5.48,0,0,0-2.12.39c-1.88.76-3.06,2.49-4.37,3.93l-.13.14c-3.49-4.06.93-9.4,1.37-13.76.36-3.6-1.29-6.94-2.88-10-.37-.73-1.42-.15-1.18.57a.64.64,0,0,0,0,.21c1.83,6-3.54,10.13-5.26,15.35a9.19,9.19,0,0,0-.15,5.64,9.82,9.82,0,0,0,1.21,2.48,7.23,7.23,0,0,0,1.88,2.13c-.39.07-.79.21-1.19.31a5.73,5.73,0,0,0-1.49.59,11.35,11.35,0,0,0-4.36,5.85,27.71,27.71,0,0,0-1.16,3.86q-.22,1-.4,1.95c-.09.51-.13,1-.26,1.52a12,12,0,0,0-.31,1.62,3.57,3.57,0,0,0,.33,2.28,4.26,4.26,0,0,0,1.27,1.25,12.56,12.56,0,0,0,3.42,1.42l.21.06a21,21,0,0,1,4.4,1.51c2.22,1.24,3.94,3.21,6.17,4.45a12.35,12.35,0,0,0,7.39,1.35c6-.63,11.32-4.21,17.06-5.83,4.75-1.34,11.3-.6,15.36-3.73C507,520.14,506.24,516.49,503.91,513.28Zm-9.63-35.21c3.73-2.53,4.75-8.19,7.93-11-.44,3.26.48,8.48-2.46,10.82a25.16,25.16,0,0,0-5,6.05c-.77,1.2-.91,2.84-1.5,4.12s-1.52,1.4-2.41,2.25a8.36,8.36,0,0,0-1.66,2.36c-.68,1.46,0,4.25.21,6-.47-.93-1.69-2.81-1.58-4.7.13-2.21,1.34-4.2,2.45-6,1.71-2.83,4-5.77,4.13-9.21C494.36,478.68,494.28,478.09,494.28,478.07ZM476.37,467a48.17,48.17,0,0,0,7.89,2.66,27,27,0,0,1,3.05,1.11l.73.34c6.24,3.1,6.45,8.59,3.3,13.83-1.64,2.74-3.87,5.21-4.18,8.51-.35,3.79,2.3,6.5,5,8.78-.21,0-1.1-.21-1.31-.24a22.33,22.33,0,0,1-4.8-.77,7.37,7.37,0,0,1-1.74-.88c-.28-.18-.94-.45-1.08-.76,0,0-.88-.14-.87-.24a10.32,10.32,0,0,0-.05-1.61,15.66,15.66,0,0,1-.11-2.68,18,18,0,0,1,1.07-4.5c.78-1.77,2.22-3.92,2.89-5.73.6-1.62,1.35-3.52,1.07-5.19a10.8,10.8,0,0,0-3.11-6.05,11.59,11.59,0,0,0-2.62-1.77c-2.11-1.05-4.76-2.49-5.52-5Zm5.33,32.24h0a2.42,2.42,0,0,0-.87-.45c-1.44-.34-.85-2-.72-2.64a10.88,10.88,0,0,1,1.91-3.92C481.68,494.18,481.1,497.2,481.7,499.22Zm-2.18-.58c-.23,0-.46,0-.69.05a2.31,2.31,0,0,0-.25-.33.59.59,0,0,0-.1-.1,1.93,1.93,0,0,0-.15-.15.68.68,0,0,0-.12-.06.62.62,0,0,0-.18-.22c-5.57-3.9-1.12-11.4.84-15.9,1.41-3.24,2.1-6.38,1.11-9.7,2.75,1.43,5,2.84,5.92,6.53,1.07,4.42-1.62,7.32-3.25,11.09-.12.28-.22.56-.32.84A9.94,9.94,0,0,0,479.51,498.64Zm-10.4-5.31a10.57,10.57,0,0,1,0-4.55,28.56,28.56,0,0,1,3.59-8.46c2-3.34,1.45-5-.21-8.35-1.07-2.18-2.34-4.24-2.85-6.64a15.59,15.59,0,0,1,1.52-9.59c1.43-3,3.75-6.73,4.71-9.91,2.09,3.75-1.69,11.52-1.07,16.44a13.78,13.78,0,0,0,1.18,3.53c-.4-.11-1.19.57-1.07,1,.73,2.39,1,2.68,3.11,3.8.21.11.76,1.07,1,1.18a10.47,10.47,0,0,1,.75,4.07c.07,7-10.16,16.74-1.93,22.81a21.08,21.08,0,0,1-3.1.1c-.38-.05-.76-.14-1.14-.22a6.06,6.06,0,0,1-1.65-.58,5.9,5.9,0,0,1-.59-.54C470.34,495.77,469.6,495.22,469.11,493.33Zm-12.46,9.16a11.14,11.14,0,0,1-.82-1.17,8.55,8.55,0,0,1-1-2.29,7.81,7.81,0,0,1-.24-2.25,9.9,9.9,0,0,1,.35-2.22,16,16,0,0,1,.79-2.2c.33-.75.7-1.48,1.08-2.2s.8-1.48,1.21-2.22.81-1.49,1.18-2.25a24.63,24.63,0,0,0,1-2.3,14.62,14.62,0,0,0,.67-2.36q0-.22.07-.43l0-.22c0-.05,0-.17,0-.22a13.58,13.58,0,0,1,1.18,6.27c-.22,2.85-1.67,5.28-2.4,8-.8,3-.71,6,1.32,8.35,0,0-1.68,1-1.81,1-.29.15-.66.43-1,.36a1.18,1.18,0,0,1-.63-.43c-.18-.21-.35-.43-.52-.66S456.82,502.7,456.65,502.49Zm43.1,21.09c-2.65.61-5.44.65-8.12,1.19a52.35,52.35,0,0,0-9.24,2.83c-6.16,2.49-12.94,6.37-19.33,2.25-2.06-1.33-3.73-3.18-5.93-4.3s-4.8-1.09-7-2.25a4.65,4.65,0,0,1-1.45-1.11c-.5-.63-.34-1.23-.24-2q.09-.65.19-1.29.21-1.3.51-2.58a31.09,31.09,0,0,1,1.59-5q.32-.77.7-1.52c1-2,2.34-3.66,4.64-4.29,1.61-.44,3.42-.58,4.82-1.57a13.12,13.12,0,0,0,2-1.84c1.13-1.22,2.2-2.63,3.76-3.32a6.51,6.51,0,0,1,4.22-.17c2.36.58,4.08,1.36,6.56,1.1s3.08-.18,5.07.86a20.47,20.47,0,0,0,3.19,1.63c2.65.86,5.49.67,8.2,1.2a11,11,0,0,1,3.76,1.32c1.91,1.19,2.3,3,3.11,4.89a25.54,25.54,0,0,0,3.05,4.64c1.07,1.5,2.11,3.1,1.59,5.09C504.76,521.93,502,523.06,499.75,523.59Z"/><path class="cls-3" d="M500.07,523.38c-2.65.59-5.44.62-8.12,1.14a54,54,0,0,0-9.24,2.71c-6.16,2.39-12.94,6.1-19.33,2.15-2.06-1.27-3.73-3-5.93-4.12s-4.8-1-7-2.16A4.64,4.64,0,0,1,449,522c-.5-.6-.34-1.18-.24-1.88q.09-.62.19-1.24c.14-.83.31-1.65.51-2.47a28.91,28.91,0,0,1,1.59-4.79q.32-.74.7-1.45a7.23,7.23,0,0,1,4.64-4.11c1.61-.42,3.42-.56,4.82-1.51a12.94,12.94,0,0,0,2-1.77,12.28,12.28,0,0,1,3.76-3.19,6.78,6.78,0,0,1,4.22-.17c2.36.56,4.08,1.3,6.56,1.06s3.08-.17,5.07.82a20.79,20.79,0,0,0,3.19,1.56c2.65.83,5.49.65,8.2,1.15a11.35,11.35,0,0,1,3.76,1.27c1.91,1.14,2.3,2.87,3.11,4.69a24.39,24.39,0,0,0,3.06,4.45c1.07,1.44,2.11,3,1.59,4.87C505.08,521.8,502.36,522.88,500.07,523.38Z"/><polygon class="cls-4" points="0 446.39 153.8 586.01 22.68 703.26 0 446.39"/></g></g></svg>